<?xml version='1.0' encoding='utf-8'?>
<!-- Generator: Adobe Illustrator 19.1.0, SVG Export Plug-In . SVG Version: 6.00 Build 0)  -->
<svg x="0px" xmlns="http://www.w3.org/2000/svg" version="1.1" viewBox="-240 332 130 130" xml:space="preserve" baseProfile="tiny" xmlns:xlink="http://www.w3.org/1999/xlink" y="0px" id="Layer_1">
 <path d="M-175,334.6c-34.5,0-62.4,27.9-62.4,62.4s27.9,62.4,62.4,62.4s62.4-27.9,62.4-62.4S-140.5,334.6-175,334.6z M-156.5,375.6&#xd;&#xa;&#x9;h-11c-1.3,0-2.8,1.8-2.8,4.1v7h13.8v13.7h-13.8v33.2h-13.8v-33.2h-11v-13.7h11v-6.9c0-9.9,7.4-17.9,16.5-17.9h11V375.6z" fill="#000000"/>
 <path d="M-167.5,375.6h11v-13.6h-11c-9.1,0-16.5,8-16.5,17.9v6.9h-11v13.7h11v33.2h13.8v-33.2h13.8v-13.7h-13.8v-7&#xd;&#xa;&#x9;C-170.3,377.3-168.8,375.6-167.5,375.6z" fill="#FFFFFF"/>
</svg>
