<?xml version='1.0' encoding='utf-8'?>
<!-- Generator: Adobe Illustrator 19.1.0, SVG Export Plug-In . SVG Version: 6.00 Build 0)  -->
<svg viewBox="-240 332 130 130" version="1.1" xmlns:xlink="http://www.w3.org/1999/xlink" id="Layer_1" x="0px" xml:space="preserve" baseProfile="tiny" xmlns="http://www.w3.org/2000/svg" y="0px">
 <path fill="#000000" d="M-175,334.6c-34.5,0-62.4,27.9-62.4,62.4s27.9,62.4,62.4,62.4s62.4-27.9,62.4-62.4S-140.5,334.6-175,334.6z&#xd;&#xa;&#x9; M-147.6,384.5l0,1.8c0,18-13.7,38.7-38.7,38.7c-7.7,0-14.8-2.3-20.9-6.1c1.1,0.1,2.1,0.2,3.2,0.2c6.4,0,12.2-2.2,16.9-5.8&#xd;&#xa;&#x9;c-6-0.1-11-4-12.7-9.5c0.8,0.2,1.7,0.2,2.5,0.2c1.2,0,2.4-0.2,3.6-0.5c-6.2-1.2-10.9-6.7-10.9-13.3V390c1.8,1,3.9,1.6,6.2,1.7&#xd;&#xa;&#x9;c-3.7-2.4-6.1-6.6-6.1-11.3c0-2.5,0.7-4.8,1.8-6.8c6.7,8.2,16.7,13.6,28,14.2c-0.2-1-0.3-2.1-0.3-3.1c0-7.5,6.1-13.6,13.6-13.6&#xd;&#xa;&#x9;c3.9,0,7.4,1.6,9.9,4.3c3.1-0.6,6-1.7,8.6-3.3c-1,3.2-3.2,5.8-6,7.5c2.7-0.3,5.4-1.1,7.8-2.1C-142.7,380.2-145,382.6-147.6,384.5z"/>
 <path fill="#FFFFFF" d="M-140.9,377.5c-2.4,1.1-5.1,1.8-7.8,2.1c2.8-1.7,5-4.4,6-7.5c-2.6,1.6-5.5,2.7-8.6,3.3&#xd;&#xa;&#x9;c-2.5-2.6-6-4.3-9.9-4.3c-7.5,0-13.6,6.1-13.6,13.6c0,1.1,0.1,2.1,0.3,3.1c-11.3-0.6-21.3-6-28-14.2c-1.2,2-1.8,4.4-1.8,6.8&#xd;&#xa;&#x9;c0,4.7,2.4,8.9,6.1,11.3c-2.2-0.1-4.3-0.7-6.2-1.7v0.2c0,6.6,4.7,12.1,10.9,13.3c-1.2,0.3-2.3,0.5-3.6,0.5c-0.9,0-1.7-0.1-2.5-0.2&#xd;&#xa;&#x9;c1.7,5.4,6.7,9.3,12.7,9.5c-4.7,3.6-10.5,5.8-16.9,5.8c-1.1,0-2.2-0.1-3.2-0.2c6,3.9,13.2,6.1,20.9,6.1c25,0,38.7-20.7,38.7-38.7&#xd;&#xa;&#x9;l0-1.8C-145,382.6-142.7,380.2-140.9,377.5z"/>
</svg>
