<?xml version='1.0' encoding='utf-8'?>
<!-- Generator: Adobe Illustrator 19.1.0, SVG Export Plug-In . SVG Version: 6.00 Build 0)  -->
<svg viewBox="-240 332 130 130" version="1.1" xmlns:xlink="http://www.w3.org/1999/xlink" id="Layer_1" x="0px" xml:space="preserve" baseProfile="tiny" xmlns="http://www.w3.org/2000/svg" y="0px">
 <path fill="#000000" d="M-175,340.8c-31,0-56.2,25.1-56.2,56.2c0,31.1,25.1,56.2,56.2,56.2s56.2-25.1,56.2-56.2&#xd;&#xa;&#x9;C-118.8,365.9-144,340.8-175,340.8z M-150,385.7l0,1.6c0,16.3-12.4,35.2-35.2,35.2c-7,0-13.5-2.1-19-5.6c1,0.1,1.9,0.2,2.9,0.2&#xd;&#xa;&#x9;c5.8,0,11.1-2,15.4-5.3c-5.4-0.1-10-3.7-11.6-8.6c0.7,0.1,1.5,0.2,2.3,0.2c1.1,0,2.2-0.1,3.2-0.4c-5.7-1.1-9.9-6.1-9.9-12.1v-0.2&#xd;&#xa;&#x9;c1.7,0.9,3.6,1.5,5.6,1.6c-3.3-2.2-5.5-6-5.5-10.3c0-2.3,0.6-4.4,1.7-6.2c6.1,7.5,15.2,12.4,25.5,12.9c-0.2-0.9-0.3-1.9-0.3-2.8&#xd;&#xa;&#x9;c0-6.8,5.5-12.4,12.4-12.4c3.5,0,6.8,1.5,9,3.9c2.8-0.5,5.5-1.6,7.9-3c-0.9,2.9-2.9,5.3-5.4,6.8c2.5-0.3,4.9-1,7.1-1.9&#xd;&#xa;&#x9;C-145.5,381.8-147.6,384-150,385.7z"/>
 <path fill="#FFFFFF" d="M-143.9,379.3c-2.2,1-4.6,1.6-7.1,1.9c2.5-1.5,4.5-4,5.4-6.8c-2.4,1.4-5,2.5-7.9,3c-2.3-2.4-5.5-3.9-9-3.9&#xd;&#xa;&#x9;c-6.8,0-12.4,5.5-12.4,12.4c0,1,0.1,1.9,0.3,2.8c-10.3-0.5-19.4-5.5-25.5-12.9c-1.1,1.8-1.7,4-1.7,6.2c0,4.3,2.2,8.1,5.5,10.3&#xd;&#xa;&#x9;c-2-0.1-3.9-0.6-5.6-1.6v0.2c0,6,4.3,11,9.9,12.1c-1,0.3-2.1,0.4-3.2,0.4c-0.8,0-1.6-0.1-2.3-0.2c1.6,4.9,6.1,8.5,11.6,8.6&#xd;&#xa;&#x9;c-4.2,3.3-9.6,5.3-15.4,5.3c-1,0-2-0.1-2.9-0.2c5.5,3.5,12,5.6,19,5.6c22.7,0,35.2-18.8,35.2-35.2l0-1.6&#xd;&#xa;&#x9;C-147.6,384-145.5,381.8-143.9,379.3z"/>
</svg>
