<?xml version='1.0' encoding='utf-8'?>
<!-- Generator: Adobe Illustrator 19.1.0, SVG Export Plug-In . SVG Version: 6.00 Build 0)  -->
<svg id="Layer_1" baseProfile="tiny" xmlns="http://www.w3.org/2000/svg" viewBox="-240 332 130 130" xml:space="preserve" version="1.1" x="0px" y="0px" xmlns:xlink="http://www.w3.org/1999/xlink">
 <path d="M-175,340.8c-31,0-56.2,25.1-56.2,56.2c0,31.1,25.1,56.2,56.2,56.2s56.2-25.1,56.2-56.2&#xd;&#xa;&#x9;C-118.8,365.9-144,340.8-175,340.8z M-158.3,377.6h-10c-1.2,0-2.5,1.6-2.5,3.8v6.4h12.5v12.5h-12.5v30.1h-12.5v-30.1h-10v-12.5h10&#xd;&#xa;&#x9;v-6.3c0-9,6.7-16.3,15-16.3h10V377.6z" fill="#000000"/>
 <path d="M-168.3,377.6h10v-12.4h-10c-8.3,0-15,7.3-15,16.3v6.3h-10v12.5h10v30.1h12.5v-30.1h12.5v-12.5h-12.5v-6.4&#xd;&#xa;&#x9;C-170.8,379.2-169.5,377.6-168.3,377.6z" fill="#FFFFFF"/>
</svg>
