<svg width="24" height="24" xmlns="http://www.w3.org/2000/svg">
 <g>
  <title>background</title>
  <rect width="582" fill="none" height="402" id="canvas_background" x="-1" y="-1"/>
 </g>
 <g>
  <title>Layer 1</title>
  <path fill="none" id="svg_1" d="m0,0l24,0l0,24l-24,0l0,-24z"/>
  <path fill="#ffff00" fill-opacity="1" id="svg_2" d="m12,3c-3.31,0 -6,2.69 -6,6c0,3.54 3.82,8.86 6,11.47c1.75,-2.11 6,-7.63 6,-11.47c0,-3.31 -2.69,-6 -6,-6zm-1.53,11l-3.18,-3.18l1.42,-1.42l1.77,1.77l4.6,-4.6l1.41,1.41l-6.02,6.02z"/>
  <path id="svg_3" d="m12,1c-4.41,0 -8,3.59 -8,8c0,5.57 6.96,13.34 7.26,13.67l0.74,0.82l0.74,-0.82c0.3,-0.33 7.26,-8.1 7.26,-13.67c0,-4.41 -3.59,-8 -8,-8zm0,19.47c-2.18,-2.61 -6,-7.93 -6,-11.47c0,-3.31 2.69,-6 6,-6s6,2.69 6,6c0,3.83 -4.25,9.36 -6,11.47zm3.07,-13.9l-4.6,4.6l-1.76,-1.77l-1.42,1.42l3.18,3.18l6.01,-6.01l-1.41,-1.42z"/>
 </g>
</svg>
