<svg xmlns="http://www.w3.org/2000/svg" viewBox="0 0 512 512" xmlns:xlink="http://www.w3.org/1999/xlink">
 <defs>
  <style>.cls-1{isolation:isolate;}.cls-2{fill:url(#Sfumatura_senza_nome_31);}.cls-3{fill:#ec5a55;}.cls-4{fill:#065bae;}.cls-5{fill:#f784b0;}.cls-6{opacity:0.8;}.cls-7,.cls-9{fill:#fff;}.cls-8{fill:#e6e6e6;opacity:0.83;mix-blend-mode:multiply;}.cls-9{opacity:0.25;}.cls-10{fill:#f2f2f2;opacity:0.2;}.cls-11{fill:#002f50;}</style>
  <radialGradient r="253.8" cx="69.68" gradientTransform="matrix(-1, 0, 0, 1, 310.87, 0)" gradientUnits="userSpaceOnUse" id="Sfumatura_senza_nome_31" cy="207.23">
   <stop offset="0" stop-color="#63cebc"/>
   <stop offset="0.35" stop-color="#60ccba"/>
   <stop offset="0.64" stop-color="#55c5b3"/>
   <stop offset="0.92" stop-color="#44baa8"/>
   <stop offset="1" stop-color="#3db6a4"/>
  </radialGradient>
 </defs>
 <title>V&amp;amp;A Egg</title>
 <g class="cls-1">
  <g id="Layer_1" data-name="Layer 1">
   <path d="M259.87,484.72c103-2.37,167.74-90.74,159.59-205.83-10-140.86-98-253.28-168.87-251.65h-.22C183.18,28.79,93.28,145.2,91.87,286.43c-1.21,120.12,64.82,200.67,167.79,198.3Z" class="cls-2"/>
   <path d="M250.37,27.25h.22c44.85-1,96.6,43.71,131.07,112.42l-23.94,13.73-51.62-28.1-51,26.79-51-29.4-49.66,29.4-27.13-14.26C160,71.88,209.4,28.19,250.37,27.25Z" class="cls-3"/>
   <path d="M99.82,216.78l3.72-1.31,49,30.71,51-28.75,54.89,26.79,47-26.14,51.62,27.44,53.08-27.09a376.51,376.51,0,0,1,9.31,60.46,266.67,266.67,0,0,1,.33,32.7l-12.4-3.34L359,337l-50.31-28.75-51.62,28.1-52.27-27.44-49,28.75-52.27-27.44L92.87,314c-.73-9-1.09-18.14-1-27.6A343.17,343.17,0,0,1,99.82,216.78Z" class="cls-4"/>
   <path d="M125.78,416.83l29.37,13.61L205.47,401l49.66,28.1,49.66-26.79,52.27,28.1,29-13c-28,40.65-71.74,66-126.24,67.26h-.22C201.35,486.07,154.9,460.8,125.78,416.83Z" class="cls-5"/>
   <g class="cls-6">
    <path d="M116.37,400.79l38.14,22.66,47.13-28.2a7,7,0,0,1,7-.06l46.87,26.88,46.87-26.88a7,7,0,0,1,7,.06l47.41,28.23,39.87-23.69a170.68,170.68,0,0,1-17,26.3l-19.32,11.48a7,7,0,0,1-7.12,0l-47.47-28.27L259,436.13a7,7,0,0,1-6.93,0L205.3,409.29l-46.55,27.85a7,7,0,0,1-7.74.42l-18-10.69A170.56,170.56,0,0,1,116.37,400.79Z" class="cls-7"/>
    <path d="M360.41,159.18a7,7,0,0,1-7.12,0l-47.47-28.27L259,157.76a7,7,0,0,1-6.93,0L205.3,130.92l-46.55,27.85a7,7,0,0,1-7.74.42l-26.41-15.7q3-6.39,6.23-12.49l23.69,14.08,47.13-28.2a7,7,0,0,1,7-.06l46.87,26.88,46.87-26.88a7,7,0,0,1,7,.06l47.41,28.23L378,132.55q3.24,6.1,6.31,12.45Z" class="cls-7"/>
    <path d="M408,223.74,360.41,252a7,7,0,0,1-7.12,0l-47.47-28.27L259,250.58a7,7,0,0,1-6.93,0L205.3,223.74l-46.55,27.85A7,7,0,0,1,151,252l-47.58-28.27L97.75,227c1.13-6.07,2.39-12.08,3.82-18a6.94,6.94,0,0,1,5.48.68l47.47,28.21,47.13-28.2a7,7,0,0,1,7-.06l46.87,26.88,46.87-26.88a7,7,0,0,1,7,.06l47.41,28.23,47.51-28.23a6.94,6.94,0,0,1,3.33-1c1.51,5.67,2.92,11.4,4.18,17.23Z" class="cls-7"/>
    <path d="M100,302.46a7,7,0,0,1,7,.05l47.47,28.21,47.13-28.2a7,7,0,0,1,7-.06l46.87,26.88,46.87-26.88a7,7,0,0,1,7,.06l47.41,28.23,47.51-28.23a7,7,0,0,1,7-.05l8.56,4.91q-.28,7.84-1,15.47L408,316.56l-47.58,28.27a7,7,0,0,1-7.12,0l-47.47-28.27L259,343.41a7,7,0,0,1-6.93,0L205.3,316.57l-46.55,27.85a7,7,0,0,1-7.74.42l-47.58-28.27-9.79,5.62c-.55-5-1-10.12-1.28-15.31Z" class="cls-7"/>
   </g>
   <path d="M208.44,451.38l.24,0c113.79-22,179.7-149.56,151.51-304.71a583.25,583.25,0,0,0-14.77-63.24h0l.07.09c38,46,68.35,116.22,74,195.43C427.62,394,362.84,482.35,259.87,484.72h-.22c-37.88.87-70.74-9.51-97.11-28.93C176.71,456.43,194.07,454.16,208.44,451.38Z" class="cls-8"/>
   <path d="M243.95,483.46h.23c83.54-5.14,150-68.25,173.72-151.61-12,88.22-71.53,150.9-158,152.89h-.22a181.48,181.48,0,0,1-23.11-1C239,483.7,241.46,483.61,243.95,483.46Z" class="cls-9"/>
   <path d="M152.21,267.29c-13.27-7.6-22.75-23.12-26.7-43.69-5-26-.72-57.14,11.72-85.36,12.86-29.16,30.95-53,50.93-67.17,18.49-13.1,36.46-16.38,49.3-9,24.95,14.29,36,71.75,10.61,139.74-10.46,28-28.41,50.77-49.26,62.61-16.72,9.52-33.25,10.56-46.54,2.94Z" class="cls-10"/>
   <ellipse ry="6.2" class="cls-11" cx="256.55" rx="8.94" transform="translate(-0.13 0.3) rotate(-0.07)" cy="115.89"/>
   <ellipse ry="6.2" class="cls-11" cx="256.55" rx="8.94" transform="translate(-0.13 0.3) rotate(-0.07)" cy="116"/>
   <ellipse ry="6.2" class="cls-11" cx="205.74" rx="8.94" transform="translate(-0.5 0.24) rotate(-0.07)" cy="432.35"/>
   <ellipse ry="6.2" class="cls-11" cx="307.26" rx="8.94" transform="translate(-0.5 0.35) rotate(-0.07)" cy="432.35"/>
   <ellipse ry="6.2" class="cls-7" cx="202.85" rx="8.94" transform="translate(-0.21 0.23) rotate(-0.07)" cy="184.43"/>
   <ellipse ry="6.2" class="cls-7" cx="150.08" rx="8.94" transform="translate(-0.45 0.17) rotate(-0.07)" cy="391.5"/>
   <ellipse ry="6.2" class="cls-7" cx="256.87" rx="8.94" transform="translate(-0.45 0.3) rotate(-0.07)" cy="391.5"/>
   <ellipse ry="6.2" class="cls-7" cx="360.12" rx="8.94" transform="translate(-0.45 0.42) rotate(-0.07)" cy="391.5"/>
   <ellipse ry="6.2" class="cls-7" cx="306.98" rx="8.94" transform="translate(-0.21 0.35) rotate(-0.07)" cy="184.43"/>
   <ellipse ry="6.2" class="cls-11" cx="162.55" rx="8.94" transform="translate(-0.13 0.19) rotate(-0.07)" cy="115.89"/>
   <ellipse ry="6.2" class="cls-11" cx="354.13" rx="8.94" transform="translate(-0.13 0.41) rotate(-0.07)" cy="115.89"/>
  </g>
 </g>
</svg>
