<svg viewBox="0 0 512 512" xmlns:xlink="http://www.w3.org/1999/xlink" xmlns="http://www.w3.org/2000/svg">
 <defs>
  <style>.cls-1{mask:url(#mask);filter:url(#luminosity-noclip-2);}.cls-2{mix-blend-mode:multiply;fill:url(#linear-gradient);}.cls-3{isolation:isolate;}.cls-4{fill:url(#radial-gradient);}.cls-5{fill:url(#radial-gradient-2);}.cls-6{mask:url(#mask-2);}.cls-7{opacity:0.4;mix-blend-mode:lighten;fill:url(#linear-gradient-2);}.cls-8{filter:url(#luminosity-noclip);}</style>
  <filter width="167.7" height="32766" color-interpolation-filters="sRGB" id="luminosity-noclip" x="110.27" y="-7841.94" filterUnits="userSpaceOnUse">
   <feFlood result="bg" flood-color="#fff"/>
   <feBlend in2="bg" in="SourceGraphic"/>
  </filter>
  <mask width="167.7" height="32766" maskUnits="userSpaceOnUse" id="mask" x="110.27" y="-7841.94">
   <g class="cls-8"/>
  </mask>
  <linearGradient y1="-519.18" gradientTransform="matrix(0.48, 0.15, -0.2, 0.65, 632.17, 529.57)" x1="-1048.42" id="linear-gradient" gradientUnits="userSpaceOnUse" x2="-1048.42" y2="-130">
   <stop stop-color="#fff" offset="0"/>
   <stop stop-color="#d0d0d0" offset="0.15"/>
   <stop stop-color="#939393" offset="0.38"/>
   <stop stop-color="#626262" offset="0.58"/>
   <stop stop-color="#3e3e3e" offset="0.76"/>
   <stop stop-color="#292929" offset="0.91"/>
   <stop stop-color="#212121" offset="1"/>
  </linearGradient>
  <radialGradient gradientTransform="matrix(1, -0.04, 0.04, 1, 35.97, 103.55)" cx="210.89" id="radial-gradient" r="286.73" gradientUnits="userSpaceOnUse" cy="65.84">
   <stop stop-color="#fcf7d3" offset="0.05"/>
   <stop stop-color="#fbef32" offset="0.22"/>
   <stop stop-color="#ecb51b" offset="0.44"/>
   <stop stop-color="#e0a817" offset="0.47"/>
   <stop stop-color="#c1850d" offset="0.58"/>
   <stop stop-color="#ab6c06" offset="0.68"/>
   <stop stop-color="#9e5c02" offset="0.77"/>
   <stop stop-color="#995700" offset="0.84"/>
  </radialGradient>
  <radialGradient gradientTransform="matrix(1, -0.04, 0.04, 1, 34.82, 59.78)" cx="213.04" id="radial-gradient-2" r="297.39" gradientUnits="userSpaceOnUse" cy="122.39">
   <stop stop-color="#f4f2e4" offset="0"/>
   <stop stop-color="#fce201" offset="0.37"/>
   <stop stop-color="#e28d07" offset="0.69"/>
   <stop stop-color="#905403" offset="1"/>
  </radialGradient>
  <filter width="167.7" height="256.85" color-interpolation-filters="sRGB" id="luminosity-noclip-2" x="110.27" y="35.61" filterUnits="userSpaceOnUse">
   <feFlood result="bg" flood-color="#fff"/>
   <feBlend in2="bg" in="SourceGraphic"/>
  </filter>
  <mask width="167.7" height="256.85" maskUnits="userSpaceOnUse" id="mask-2" x="110.27" y="35.61">
   <g class="cls-1">
    <path class="cls-2" d="M157.76,290.3c-17.93-5.47-32.25-20.81-40.32-43.19-10.23-28.33-9.48-64.65,2-99.62,11.89-36.13,31.21-67.49,54.38-88.31,21.44-19.25,43.68-27.26,61-22,33.7,10.27,56.38,72.81,34.37,156-9,34.19-28.34,64.35-52.94,82.75-19.74,14.76-40.5,19.88-58.46,14.4Z"/>
   </g>
  </mask>
  <linearGradient y1="-519.18" gradientTransform="matrix(0.48, 0.15, -0.2, 0.65, 632.17, 529.57)" x1="-1048.42" id="linear-gradient-2" gradientUnits="userSpaceOnUse" x2="-1048.42" y2="-130">
   <stop stop-color="#fff" offset="0"/>
   <stop stop-color="#fff" offset="1"/>
  </linearGradient>
 </defs>
 <title>Special Egg</title>
 <g class="cls-3">
  <g data-name="Layer 1" id="Layer_1">
   <path class="cls-4" d="M265.48,486.78c99.15-4.46,178.75-111,167.93-227-13.24-142-103.2-238.48-188.68-234.64h-.21c-82.59,3.71-169.15,108-166.87,250.62,1.94,121.26,88.46,215.44,187.62,211Z"/>
   <path class="cls-5" d="M149.18,76.82a4.1,4.1,0,0,1,.68-.74A4.6,4.6,0,0,1,149.18,76.82Zm-66.7,219c2.63.38,4.11-2.05,5.15-3.53a29.79,29.79,0,0,0,3-5.64c3.41-8.07,5-17.63,5.65-28.19,1-16.83-1.86-31.8-6.72-43.3-1.42-3.4-3.1-6.87-5.59-9.42q-.91,4.49-1.68,9.08a4.16,4.16,0,0,1,.36.38,25.63,25.63,0,0,1,3.06,5.43c3.49,8.15,4.77,18.08,5.32,30.06a90.81,90.81,0,0,1-1.58,21.7c-1,4.93-2.16,9.41-4.5,13.23-.64,1-1.76,2.81-2.81,3.22a2.59,2.59,0,0,1-2.45-.7A7.38,7.38,0,0,1,78,285c.08,1.57.17,3.13.28,4.69C78.9,292.51,80.12,295.45,82.47,295.8ZM153.18,70.12l0,0h0S153.2,70.12,153.18,70.12Zm181.4-13h-.34a.28.28,0,0,1,.06-.19l-.58,0c0-.09.08-.13.05-.27l-.52,0a.27.27,0,0,1,.05-.19l-.59,0a.32.32,0,0,1,.07-.2l-.59,0c0-.09.08-.09.05-.2l-.58,0c0-.08.08-.09.06-.2l-.52,0a.3.3,0,0,1,.05-.19l-.59,0a.34.34,0,0,1,.06-.2l-.58,0a.33.33,0,0,1,.06-.2c-.21,0-.56.1-.58,0a.3.3,0,0,1,.05-.2c-.22,0-.32.12-.58.1.08-.34-.34-.14-.53-.17a.33.33,0,0,1,.06-.2c-.26,0-.35.13-.65.09,0-.08.08-.09.06-.2-.22,0-.57.11-.59,0s.08-.1.05-.2c-.21,0-.31.13-.58.1a.29.29,0,0,1,.06-.2c-.25,0-.32.13-.59.09,0-.39-.41-.09-.59-.1,0-.08.08-.1,0-.2-.26,0-.37.08-.58.09.19-.37-.4-.12-.59-.11,0-.08.08-.09.05-.2-.26,0-.36.08-.58.09.18-.48-.6.15-.6-.3-.49.28-.54-.16-1.11.05,0-.08.12-.16,0-.19-.1.14-.45,0-.58.15,0-.08.08-.09,0-.2a4.53,4.53,0,0,0-.65.16c0-.08.09-.1.06-.2-.67.2-1.15-.2-1.75.08a.28.28,0,0,1,0-.19,4.94,4.94,0,0,0-.64.16c0-.11.09-.17,0-.19-.44.27-.7-.06-1.17.18,0-.11.08-.17,0-.19-.41.32-.73,0-1.16.25,0-.08,0-.19-.08-.19-.63.36-1.12,0-1.81.34,0-.18-.93,0-1.23.18,0-.08.11-.15,0-.19-.66.41-1.17.15-1.87.54,0-.07.05-.08.06-.14-.2,0-.78.44-.65.16-.26,0-.69.45-.71.16-.12.09-.73.48-.57.22-.24,0-.74.51-.64.22-.3,0-.7.51-.71.23-.44.4-1,.38-1.41.58s-1.24.87-1.27.65c-.27.12-.44.52-.76.42-.21.18-.4.52-.7.42-.08.2-.3.27-.44.42A20.79,20.79,0,0,0,299,62.2c-1.94,2.39-4.11,5-4.77,8.37-1.51,7.7-.32,17.25,1.87,24.3a66.73,66.73,0,0,0,4.4,10.82c8.09,15.5,20.41,27.42,33.35,37,4.86,3.14,9.59,7,15.24,9.69a92.51,92.51,0,0,0,11.14,4.26,66.6,66.6,0,0,0,21,3.62c11.66,0,19.75-6.14,21.89-14.23q-3.51-7.42-7.33-14.47c-.09.24-.15.47,0,.46,0,.27-.27.67-.16.85-.07.49-.25,1.16-.37,1.84,0,0,0-.07.06,0-.12.27-.51,1-.28,1-2.12,6.32-7.8,9.86-14.87,11.49a28.78,28.78,0,0,1-10.56.08,70.45,70.45,0,0,1-19.39-6.37,14.24,14.24,0,0,1-2.2-1c-2.73-1.39-5.4-3.17-8.1-4.79-.1-.26-.72-.56-1.09-.8-1.38-.93-2.71-2.14-4.11-3-10.89-9.22-21.14-20.62-27.21-35.37a57,57,0,0,1-4-14.36c-1-8.58,1.12-15.23,6-18.85,0,.08-.09.11,0,.13a15.09,15.09,0,0,1,3.42-2.17c0,.07-.09.1,0,.13.39-.36.84-.31,1.27-.65,0,.07-.08.1,0,.13s.71-.49.57-.22A20.24,20.24,0,0,1,319.13,59c0,.07-.05.09-.06.14,1.44-.4,2.65-.11,4.16-.38,0,.11-.1.17,0,.19.48-.34.64.14,1.16-.19,0,.08-.11.16,0,.2.11-.11.34-.1.51-.15,0,.11-.08.17,0,.19s.4-.09.58-.16c0,.08-.1.16,0,.2.36-.3.66.1,1.1-.12a.28.28,0,0,1-.05.2c.18-.08.46-.08.64-.16,0,.09-.08.09-.06.2.22,0,.32-.13.59-.09-.2.25.41.09.52,0a.28.28,0,0,1-.05.19c.44-.22.75.2,1.17,0a.28.28,0,0,1-.05.2c.26,0,.37-.08.58-.09-.18.36.33.12.52.1-.18.36.34.12.53.11,0,.38.35.09.53.11-.19.37.4.12.59.1,0,.08-.08.09-.06.19l.52,0a.33.33,0,0,1-.06.21c.26,0,.32-.14.59-.1a.31.31,0,0,1-.06.19l.59,0c0,.09-.08.1-.05.2a1.36,1.36,0,0,1,.58-.09c0,.08-.08.09-.05.2l.52,0a.31.31,0,0,1-.06.19c.22,0,.56-.1.59,0s-.09.1-.06.2c.22,0,.32-.13.59-.09,0,.08-.08.09-.06.19l.52,0a.3.3,0,0,1-.06.2l.59,0c0,.08-.08.09-.06.2l.52,0a.28.28,0,0,1-.06.2l.59,0c0,.1-.09.17-.12.26.22,0,.56-.1.58,0s-.07.09-.05.2l.52,0a.3.3,0,0,1-.06.2l.6,0c0,.09-.08.09-.06.2l.52,0c0,.09-.09.16-.12.26l.59,0c0,.08-.08.09-.06.2l.46,0c.11.12,0,.09,0,.26l.52,0c0,.1-.09.17-.11.27l.58,0c0,.08-.08.09-.06.2l.52,0c0,.09-.09.13-.06.26l.52,0c0,.1-.09.17-.12.26l.45,0q-3.88-3.39-7.86-6.49h-.05s0,0,0,0ZM83,308.53a4.46,4.46,0,0,0,3.21,1.2c2.57,0,5.07-2,6.55-3.79,4.79-5.59,7.82-12.9,10.1-20.26a94.45,94.45,0,0,0,3.7-16.42,122.28,122.28,0,0,0,1.1-18.85c-.41-13.75-2.14-25.16-5.55-35.22A85.85,85.85,0,0,0,96,201c-2.1-3.78-4.66-8-8.8-9.83q-.36,1.42-.7,2.84c3.5,2.09,5.56,6,7.53,9.7a83.33,83.33,0,0,1,5.44,13.39,107.66,107.66,0,0,1,4.85,33.24,110.69,110.69,0,0,1-4.8,32.26,65.88,65.88,0,0,1-5.65,13.29,24.32,24.32,0,0,1-4.19,5.36c-1.71,1.58-4.16,3-6.92,1.52-2.69-2.06-3.51-5.41-4.27-9.61q.28,3.39.66,6.75l.41.25C80.17,303.78,81.18,306.81,83,308.53ZM129.86,97.86c0-.11-.1-.16,0-.19s.44.15.46,0c0-.27.83,0,.83-.36.33.19.49-.23.85,0,0-.1-.11-.16,0-.19.31,0,.88,0,.84-.24.31.21.52-.26.84,0,0-.11-.1-.16,0-.19.33.12.48,0,.39-.15.1.06.52.1.52,0s-.1-.07-.14-.12c.23-.1.43.16.52,0-.07,0-.16-.1-.07-.13.48.21.72-.38,1.3-.19,0-.12-.1-.16,0-.2s.39.16.46,0c-.08,0-.16-.1-.08-.13.39.16.56-.19.91-.11-.24-.19.3-.14.39-.08,0-.11-.11-.16,0-.19s.36.18.45,0c-.08,0-.16-.1-.08-.13.83,0,1.44-.57,2.13-.49,0-.12-.1-.16,0-.19s.39.15.45,0c-.07,0-.16-.1-.07-.12s.56.18.38-.15c.07.07.47.12.52,0s-.16-.1-.07-.13.43.12.46,0c1.5-.54,2.91-1.05,4.62-1.65,0,0-.07,0-.07-.12a.78.78,0,0,0,.9-.3c.52.23.33-.35.84-.11,0-.11-.1-.16,0-.19.93-.17,1.56-.55,2.57-.84-.07,0-.08-.11,0-.13,1-.15,1.13-.47,2.13-.62,0-.11-.11-.16,0-.19a7.39,7.39,0,0,0,1.29-.39.07.07,0,0,1,0-.13c.82-.15,1-.37,1.74-.53a.07.07,0,0,1,0-.13,7.25,7.25,0,0,0,1.29-.38.07.07,0,0,1,0-.13c2.9-.85,5.1-2.22,7.74-3.34,0-.13.46-.38.83-.36,0-.35.6-.15.44-.41a5.48,5.48,0,0,0,1.72-.86c.3,0,.46-.11.45-.21a9.32,9.32,0,0,0,2.17-1.14c.79-.19,1-.57,1.79-.8.34-.21,1.14-.71,1.77-1.05.85-.47,1.93-1,2.67-1.43.26-.17.71-.21.84-.3s0-.15.05-.19c.27-.15.62-.22.9-.37a1.39,1.39,0,0,1,.9-.44c.13-.4.79-.32.94-.69.55-.12.84-.48,1.34-.64,1.43-.84,3.11-1.79,4.64-2.62.9-.57,2.2-1.32,3.3-1.91a4.37,4.37,0,0,1,1-.57c6.83-4.12,13.91-8.48,20-13a4.28,4.28,0,0,0,1.07-.77c.61-.24.9-.77,1.53-1a.42.42,0,0,1,.12-.2A10.75,10.75,0,0,0,215,54.78c.16-.06.25-.19.45-.22a7,7,0,0,1,1.64-1.25c1-1,2.29-1.77,3.33-2.76a129.87,129.87,0,0,0,11.28-10.22c1.21-1.28,2.66-3.06,4.15-4.88,1.26-1.54,2.69-3.12,3.23-4.9.42-1.35,1-4.66-.81-4.9q-4.91.52-9.83,1.5a2.26,2.26,0,0,0-.05.48,39.56,39.56,0,0,1-7,8.2c-.15.1.09.16-.06.2-2.29,2.06-4.38,4.31-6.89,6.18-.4.64-1.32,1.11-1.69,1.58-.21.14-.47.23-.57.48-1.87,1.35-3.48,2.94-5.49,4.17,0,.08,0,.18-.06.2-2.61,1.9-5.45,3.92-8,5.71-1.8,1-3.25,2.29-5.13,3.23-.19.41-.76.47-1.07.76.1.15-.64.21-.51.42-.82.22-1.18.87-2,1.06,0,.11.1.17,0,.2-1.8.88-3.61,2.21-5.54,3.18A4.06,4.06,0,0,1,183,64c.23.33-.41.14-.5.35a.07.07,0,0,1,0,.13c-1.66.68-2.78,1.7-4.33,2.29.05.29-.27.25-.51.28,0,.12.1.16,0,.2-1.2.42-2.18,1.23-3.38,1.71.07,0,.09.11,0,.13-.84.13-1.07.74-1.85.8,0,.38-.63.15-.5.48l-.46,0c0,.11.11.16,0,.2-.85.23-1.08.63-1.92.87.07,0,.08.11,0,.14-.84.18-1.41.87-2.3,1,.21.29-.21.17-.45.22-.14.35-.61.39-1,.57.25.18-.29.14-.45.15.19.27-.13.18-.39.21,0,.29-.64.41-1,.57.29.23-.44.05-.45.22.07,0,.09.11,0,.14-.86.16-1.2.72-2.24.95.27.36-.42.08-.51.28.29.23-.44.05-.44.22.28.23-.44,0-.45.21.29.23-.44.05-.44.22.29.23-.44.05-.45.21.25.17-.3.14-.45.16.21.29-.2.17-.45.21.21.3-.21.18-.45.22.21.29-.21.17-.44.21.21.29-.21.18-.45.22.21.29-.21.18-.45.22.27.35-.36.09-.44.28.29.23-.44.05-.45.22.28.22-.44.05-.45.21.29.23-.44.05-.45.21a.07.07,0,0,1,0,.14c-.5,0-.44.16-.9.24.29.23-.44.05-.45.21.29.23-.44,0-.45.21a.07.07,0,0,1,0,.13,7,7,0,0,0-.9.24.06.06,0,0,1,0,.13c-.46-.09-.34.35-.83.23,0,.12.1.17,0,.2-.54,0-.32.23-.9.18.2.29-.21.18-.45.21,0,.12.1.16,0,.2-.5,0-.45.16-.9.23.29.23-.44.05-.45.22s-.51.28-.84.3c.25.37-.63.06-.43.42-.08-.09-.29-.05-.45,0,.32.4-.7,0-.38.41-.55-.15-.75.35-1.42.39.07,0,.16.1.07.13s-.3,0-.46,0c.24.37-.63.06-.43.41-.51-.15-.38.2-.91.24.08,0,.11.07.13.13-.1-.1-.34,0-.52,0,0,.11.1.16,0,.19s-.41-.18-.52,0c.07,0,.16.1.07.13s-.42-.16-.52,0c.07,0,.16.1.08.13-.36,0-.45,0-.45.22-.76,0-1.05.41-1.8.47.05,0,.21.21.08.19a.45.45,0,0,0-.27-.07l-.14.17s0,0,0,0l0,0q-4.93,6-9.56,12.41Zm23.84-28c-.29-.22.44-.05.45-.21-.25-.17.3-.14.45-.16-.27-.36.42-.08.51-.28-.25-.18.29-.14.45-.16-.28-.36.42-.08.51-.28-.25-.17.3-.14.45-.15-.21-.29.2-.17.45-.21.08-.15-.18-.24,0-.26s.28.1.52,0c-.23-.31.15-.27.44-.28-.27-.36.42-.09.51-.28-.25-.18.3-.15.46-.16-.28-.36.42-.08.51-.28-.26-.17.29-.14.44-.16-.22-.31.27-.17.51-.21-.22-.32.65-.16.44-.48.15,0,.48.06.52-.09-.28-.24.49,0,.51-.22-.25-.17.3-.14.45-.15s-.11-.16,0-.19c.51.07.39-.44,1-.31-.27-.36.42-.08.51-.28-.21-.16.31-.16.45-.22s-.11-.16,0-.2l.52,0c-.33-.42.77,0,.44-.4.51,0,.46-.41,1-.31-.23-.32.38-.17.5-.35a1.42,1.42,0,0,1,.9-.37c.14-.09-.08-.24,0-.26.65.09.32-.34,1-.25-.14-.37.27-.25.5-.28-.05-.3.3-.23.51-.29-.22-.31.27-.17.51-.22-.23-.33.37-.18.51-.35-.25-.17.3-.14.45-.15-.14-.37.27-.25.5-.28,0-.3.28-.25.51-.28,0-.11-.1-.16,0-.19.65.07.31-.41,1-.3-.23-.33.38-.17.51-.35a.07.07,0,0,1,0-.13c.62-.12.92-.54,1.54-.65-.16,0,0-.21.05-.2.78-.16,1.13-.72,1.92-.87-.23-.33.36-.14.51-.29s-.11-.16,0-.19c.52,0,.54-.38,1-.37,0-.12-.11-.16,0-.2,1.05-.26,1.64-.95,2.62-1.29-.05,0-.09,0-.07-.13.64,0,.44-.38,1.09-.37-.17-.28.25-.24.52-.29-.05-.3.26-.25.5-.28.16-.42.69-.49,1.08-.7-.19-.16.34-.18.51-.22,0-.12-.1-.16,0-.19.66-.14,1-.62,1.59-.79-.05,0-.07,0-.07-.13.75-.06.9-.68,1.66-.73-.08-.41,1.07-.43,1-.83.24,0,.27-.12.52-.09s-.09-.16.05-.2c1.07-.42,1.62-1.09,2.67-1.42,0-.4.61-.19.63-.56a24.33,24.33,0,0,0,3.24-2,.6.6,0,0,0,.57-.35c2.38-1.36,4.28-3,6.57-4.6-.12-.19.47-.24.57-.42-.11-.17.43-.27.57-.42-.06,0-.08-.05-.08-.13.73-.18.93-.85,1.65-1.05.09,0,0-.25.12-.27.85-.41,1.34-1.15,2.21-1.53.11-.14-.05-.12.06-.26.85-.37,1.33-1.16,2.27-1.61,0-.35.34-.36.57-.48,0-.4.56-.32.62-.68a42.67,42.67,0,0,0,5.83-5.32q-5.1,1.52-10.16,3.53c-.24.21-.5.38-.73.57.09.16-.35.34-.57.42a.35.35,0,0,0,.07.19c-.27,0-.37.24-.64.29,0,.17.12.13,0,.26-1.47.94-2.63,2.29-4,3.18.05,0,.08,0,.07.13-1.64,1-2.78,2.37-4.49,3.27a10.31,10.31,0,0,1-2.2,1.73.11.11,0,0,1,.08.13c-.75.13-.92.79-1.66.92-.1.3-.61.61-1.07.77-.1.31-.65.62-1.14.77,0,.11.1.17,0,.2-.52,0-.51.53-1.09.5,0,.1,0,.24-.05.27-.63.15-.85.68-1.53.79.05.34-.29.32-.57.35.17.28-.22.3-.5.35.15.47-.78.14-.5.54-.22,0-.37.12-.57.15,0,.11.1.17,0,.2-.54,0-.53.48-1.09.44,0,.11.1.16,0,.19-.66.16-.9.68-1.6.79,0,.12.11.16,0,.2-.66.14-.95.62-1.59.79.05,0,.07,0,.07.13-.88.18-1.23.88-2.17,1,.17.26-.18.25-.44.28.09.28-.29.26-.57.35,0,.11.11.16,0,.2-1.41.43-1.9,1.15-3.12,1.51,0,.11.1.17,0,.19-.59-.11-.43.44-1,.31.14.37-.28.24-.51.28.19.5-.8.06-.5.48-.74.1-.82.58-1.54.59.16.33-.33.21-.57.35.26.24-.43.15-.51.28a.07.07,0,0,1,0,.13c-.49,0-.55.38-1,.37.16,0,0,.22-.06.2-.77.11-1,.67-1.85.74-.15.1.08.24-.05.26l-.52,0c.24.33-.36.13-.51.28s.1.17,0,.2l-.53,0c.23.31-.27.17-.51.22-.06.12.21.21,0,.26l-.52,0c.28.37-.42.08-.51.29.26.23-.42.14-.51.28.07,0,.08.11,0,.13-.51-.09-.43.35-1,.24-.09.15.18.24,0,.27-.4-.17-.47.19-.52.22a4.18,4.18,0,0,0-.52.09c.14-.05-.37.26-.51.21.28.22-.25.23-.44.22.22.31-.27.17-.51.22-.05.12.21.2,0,.26a1.64,1.64,0,0,0-.37-.06l-.11.1s0,.16,0,.18h-.17q-3.69,3.31-7.29,6.87C153.51,69.94,153.66,70,153.71,69.86Zm149-32.08c-.17,0,.16-.25-.14-.19a1.91,1.91,0,0,1-1.24-.2,5.31,5.31,0,0,1-1.1,0c-.1,0-.09-.16-.2-.18s-.37.12-.46.08c-.47-.19,1.6-.16-.07-.19-.14,0-.43.16-.58.16s.15-.27-.14-.19c-1.37.16-2.46-.3-3.79,0,0-.08.11-.16,0-.19-.93.27-1.69-.07-2.59.31,0-.08.11-.15,0-.19-.92.38-1.68.12-2.59.51-.18,0,.14-.19-.13-.13a50.69,50.69,0,0,0-7.32,2.09s0-.05,0-.06-.12.07-.12.14c-14.06,5.78-23.56,19.11-21.68,40a73.22,73.22,0,0,0,2.85,14A36.47,36.47,0,0,0,265.25,99a150.1,150.1,0,0,0,13.6,22.67,178.46,178.46,0,0,0,34.91,36.91c2.67,2.08,5.39,4.15,8.23,6,14.12,9.32,30.24,17.47,49.76,20.53a74.51,74.51,0,0,0,12,.76c14.52-.09,25.78-5.07,30.1-14.22q-1.77-4.82-3.66-9.51c-3.26,6.69-10.46,10.66-19.35,11.61-8.21.87-15.75-.39-22.45-1.93a70.06,70.06,0,0,1-9.26-2.71,152.45,152.45,0,0,1-39.62-22.74,113.36,113.36,0,0,1-30-34.26C285,104,280.61,94.27,278.89,83.38c-1.59-10.08-.39-20.1,3.88-26.72a28.19,28.19,0,0,1,12-10.12,6.26,6.26,0,0,0,1.15-.51c.14,0-.09.2.13.06.61-.38,1.22-.37,1.86-.73.14,0-.09.19.13.05,1.08-.45,2-.44,3.15-.86.19,0-.14.18.14.12a33.72,33.72,0,0,1,5-.68c.13,0-.1.19.2.12,1-.22,1.9.12,2.93-.13.17,0-.16.27.14.19.36-.29.53,0,.59,0s.35-.16.51-.15c0,0,0,.18.14.19a4,4,0,0,0,1,0c.22,0-.16.26.14.19a5.58,5.58,0,0,1,1,0c.06,0,.14.17.2.18s.29-.11.39-.08.08.18.21.19.29-.11.45-.08-.07.13,0,.2.42-.12.59-.1,0,.19,0,.19a10.67,10.67,0,0,0,1.17,0c.18,0-.15.26.14.19s.27-.12.52-.08c-.15.25.23.17.48.21q-6.76-4.07-13.66-7.35C303.27,37.83,303.14,37.58,302.73,37.77Zm88,256.76a8.49,8.49,0,0,0,4.08-2c3.22-2.59,4.89-7.59,3.9-13.28-.87-5-3.46-9-8.14-9.94a6.37,6.37,0,0,0-4.72.73c-5.35,2.69-8.59,7.49-9.74,14.07a29.62,29.62,0,0,0,0,10.62,39.57,39.57,0,0,0,3,9.07,23.22,23.22,0,0,0,4.83,7.28,9.23,9.23,0,0,0,8.73,2.73,17.44,17.44,0,0,0,7.76-4.39,30.07,30.07,0,0,0,5.52-6.38,34.77,34.77,0,0,0,5.31-18,56,56,0,0,0-.89-11c-2-11.78-6.87-22.16-17.53-24.57a16,16,0,0,0-5.48,0,23.26,23.26,0,0,0-9,3.21c-7.5,4.38-12.53,11.45-16.26,19.51a34.89,34.89,0,0,0-2.94,8.74,67.05,67.05,0,0,0-.26,21.72c2.2,13.67,9,23.55,19,29.21a21.21,21.21,0,0,0,3.94,2c4.72,1.49,10.11.89,14.77-.79a28.62,28.62,0,0,0,7.61-4.78,42.31,42.31,0,0,0,5.88-6.78,62.11,62.11,0,0,0,8-16.53c4-12.34,5.4-29.51,2.13-43.91-3.1-13.68-9.8-25.51-19.76-32.11a27.53,27.53,0,0,0-20-4.45,43,43,0,0,0-18,8.18,63.84,63.84,0,0,0-11.69,14,75.71,75.71,0,0,0-12.32,38,77.49,77.49,0,0,0,.41,11.79,53.68,53.68,0,0,0,1.93,11.06,82.67,82.67,0,0,0,8.24,18,70.93,70.93,0,0,0,11.34,14.49c6.19,5.87,15.55,11.24,27,9.88a31.67,31.67,0,0,0,9.27-2.58c11.73-5.81,19.17-16.24,24.37-29.2a107.4,107.4,0,0,0,6-21,132.69,132.69,0,0,0,1.83-18.73c.06-2.2,0-4.56,0-6.78-.06-1.19-.11-2.39-.16-3.58-.06,0-.07,0-.07-.06-.68-10.08-2.45-19.74-5.75-27.85s-7.28-15.2-12.79-20.49a38,38,0,0,0-9.5-6.88,27.27,27.27,0,0,0-13.11-2.93c-10.63.47-17,5.31-23.13,10.36,5.41-3.77,11.15-7.26,19.4-7.91a29.55,29.55,0,0,1,20.14,5.61c10.2,7.37,16.7,19.17,20.49,33.64,4.37,16.68,3.26,36.76-.79,51.94-.23.85-.47,1.74-.73,2.58a83.15,83.15,0,0,1-4.37,11.48c-.85,1.7-1.71,3.63-2.58,5.07l-1.7,2.81a56.16,56.16,0,0,1-5.29,7,42.77,42.77,0,0,1-5.08,4.46,31.48,31.48,0,0,1-6.1,3.54,30.8,30.8,0,0,1-7.48,2,23.3,23.3,0,0,1-8.57-.59c-10.27-2.43-17.63-8.73-23-16.9a53.18,53.18,0,0,1-6.37-14.06,71.23,71.23,0,0,1-3-17.59c-.87-19.33,5.15-33.71,14.23-44.52a44.1,44.1,0,0,1,10.73-9.41c4.21-2.54,10.09-4.52,16.21-3.4a22.16,22.16,0,0,1,7.16,2.67,33.86,33.86,0,0,1,5.86,4.11c7,6.25,11.38,16,12.91,27.78a77.08,77.08,0,0,1-1.2,26.85,56,56,0,0,1-5.1,14.25,36.68,36.68,0,0,1-6.07,8.49,24.5,24.5,0,0,1-8.34,6,19.13,19.13,0,0,1-8.23,1.08c-8.46-.67-13.58-6.3-17.26-12.52A41.42,41.42,0,0,1,365,299.86a54.22,54.22,0,0,1-.36-18.18c1.83-11,7.65-18.87,16.22-23.62a20.77,20.77,0,0,1,7.64-2.62,12.4,12.4,0,0,1,8.15,1.46c4.13,2.33,6.8,6.5,8.67,11.54a39.27,39.27,0,0,1,2.33,17,30.09,30.09,0,0,1-1.86,7.91,21.66,21.66,0,0,1-3.84,6.11c-2.73,3.26-7.62,7.56-13.21,4.77a12,12,0,0,1-5.11-4.92,27.09,27.09,0,0,1-3-7.23c-1.18-5,.14-8.8,2.83-11.21a5.51,5.51,0,0,1,3.38-1.72,3.67,3.67,0,0,1,3.15,1.82,6.78,6.78,0,0,1,1.34,3.78c0,3.43-2.16,4.27-2.34,7.41C388.87,293.3,389.57,294.59,390.68,294.53ZM214.94,108.17a60.13,60.13,0,0,0-14.66-2.54c-10.24-.41-21.65,2.42-30,6.11a72.34,72.34,0,0,0-11.51,6.38A88.5,88.5,0,0,0,145,129.9a90,90,0,0,0-7.61,9c-1.16,1.58-2.25,3.26-3.43,5a74.11,74.11,0,0,0-8.56,16.95c-2.38,6.53-4.45,14.28-4.33,22.56.15,11.1,3.19,19.7,9.05,27.31a47.09,47.09,0,0,1-7-20,57.59,57.59,0,0,1,.78-17.38c.36-1.82.76-3.6,1.26-5.27A79.42,79.42,0,0,1,133,149.93a98.8,98.8,0,0,1,16.24-20.23,80.67,80.67,0,0,1,6.34-5.44,68.18,68.18,0,0,1,16.85-9.62c14.07-5.56,30.13-5.59,43.08-.44A51,51,0,0,1,232,124.75c7,6.62,11.83,16,12.9,28.77a42.55,42.55,0,0,1-.82,12.23,69.33,69.33,0,0,1-7.34,19.44c-6.35,11.52-16,20.35-28.42,26.32a68.67,68.67,0,0,1-21.69,6.32,46.45,46.45,0,0,1-22.89-3,39.37,39.37,0,0,1-15.65-11.5,33.44,33.44,0,0,1-7.68-19.94c-.2-8.07,2.16-15.38,4.91-21.41a52.35,52.35,0,0,1,17.8-21.67,59.52,59.52,0,0,1,19-8.81A47.39,47.39,0,0,1,193.82,130c12-.07,21.6,4.85,27.54,12.2a27.46,27.46,0,0,1,5.09,8.77c2.46,8.05,1.06,17.26-1.44,23.08a43,43,0,0,1-11.69,15.45,50.2,50.2,0,0,1-8,5.71,47.43,47.43,0,0,1-21.54,6.45,25.38,25.38,0,0,1-11.31-2c-6.2-2.77-10.43-7.62-13.22-14.15a27.2,27.2,0,0,1-2.27-11.37,23.32,23.32,0,0,1,2.92-10.44,36.12,36.12,0,0,1,13.59-13.72,29.69,29.69,0,0,1,10.14-3.78,18.42,18.42,0,0,1,11,1.2,16.47,16.47,0,0,1,2.77,2,18.76,18.76,0,0,1,6.24,8.46,15,15,0,0,1,.38,8.4c-1.37,5.23-4.13,8.46-7.89,11.44a26.14,26.14,0,0,1-6.09,3.79c-2.51,1-5.54,1.35-7.7,0a7.18,7.18,0,0,1-3.67-6.22,5.7,5.7,0,0,1,1.48-3.39c1.41-1.78,3.6-3.76,6.65-2.78,1.24.39,2.25,1.21,3.59,1.34a2.88,2.88,0,0,0,3.28-2.56,7.53,7.53,0,0,0-.64-2.58,9.47,9.47,0,0,0-4.22-5.35c-3-1.67-6.75-1.14-10,.32a15.9,15.9,0,0,0-9.47,15.68,10,10,0,0,0,1.12,3.27c3.12,7,9.78,10.23,19.2,8a33.18,33.18,0,0,0,11.43-5.47,35.06,35.06,0,0,0,8.63-8.09c2.45-3.37,4.31-7.1,3.95-12.31a24.25,24.25,0,0,0-26.84-21.29,39.73,39.73,0,0,0-12.65,4.36,49.56,49.56,0,0,0-10.06,6.71,35.3,35.3,0,0,0-12,20.56,30.22,30.22,0,0,0,1,14.1c3.35,10.78,11.15,17.1,21.07,20.57a22.92,22.92,0,0,0,6.71,1.4,54.49,54.49,0,0,0,27.24-6.06c11.2-5.77,18.77-14.85,24.08-25.8a36,36,0,0,0,2.41-5.78,44.52,44.52,0,0,0,.06-22c-3.78-13.22-13.1-20.46-25-24.89-8.09-3-18.11-3.15-27.1-1a60.71,60.71,0,0,0-22.73,10.73,75.28,75.28,0,0,0-8.27,7.48,58.16,58.16,0,0,0-7.12,8.59,3.54,3.54,0,0,0-.85,1.22,64.24,64.24,0,0,0-6.53,11.5,58.18,58.18,0,0,0-4.4,13.7,51.09,51.09,0,0,0-.3,16.58A46.47,46.47,0,0,0,137,206.36a29.2,29.2,0,0,0,3.72,5.76,48.79,48.79,0,0,0,15.87,12.13,54.78,54.78,0,0,0,30.8,5,70.56,70.56,0,0,0,15.55-3.76,57.2,57.2,0,0,0,12.41-6.62c7.48-5,14.61-10.68,20.41-17.35,8.56-9.87,16-21.62,17.53-38a57.33,57.33,0,0,0-1.17-17.37,49.9,49.9,0,0,0-13.55-24.5A55.43,55.43,0,0,0,214.94,108.17Zm-64.61-5.9c.12.11.36,0,.45-.08C150.64,102.23,150.34,102.12,150.32,102.27ZM342.78,63.9a1.06,1.06,0,0,0-.08.18H343ZM317.41,45.33h0l-.05,0A.05.05,0,0,1,317.41,45.33Zm25.84,19,0,0,0,0ZM118.68,114.6a.32.32,0,0,0,.21.19c.11-.1.08-.34.31-.34a.18.18,0,0,0,.14.19c0-.19.14-.25.25-.34a.18.18,0,0,0,.21.12c.12-.25.2-.28.44-.14a.78.78,0,0,1,.84-.3c.06-.13.1-.28.25-.34a.41.41,0,0,0,.14.19c.1-.23.22-.3.51-.22,0-.17.09-.21.19-.27a.38.38,0,0,0,.14.19,2.49,2.49,0,0,1,.25-.34.17.17,0,0,0,.2.12,1.65,1.65,0,0,1,1.22-.44c0-.28.25-.31.39-.15,0-.24.22-.35.38-.15,0-.24.22-.34.39-.15a.21.21,0,0,1,.39-.15c.05-.13.1-.28.24-.34a.17.17,0,0,0,.14.19c0-.19.14-.25.24-.33.07.34.25-.14.39-.15s0,.16.13.13c.07-.26.18-.29.39-.15a.6.6,0,0,1,.7-.29c.13-.31.45-.36.77-.36a1,1,0,0,1,.19-.27c.14.32.24-.25.52,0a.62.62,0,0,1,.71-.29c0-.26.18-.3.32-.15a4,4,0,0,1,1.66-.73c0-.34.4-.23.7-.42a3,3,0,0,1,1-.37c0-.11-.1-.16,0-.2a.43.43,0,0,1,.33.06c0-.12-.1-.16,0-.2.59,0,.83-.42,1.42-.46,0-.11-.11-.16,0-.19.58,0,.82-.42,1.41-.45-.14-.42,1.14-.28,1-.7.56,0,.53-.29,1.1-.31,0-.12-.1-.16,0-.19.79-.14,1.14-.61,1.78-.74,0,0-.07-.06-.06-.12,1.15-.22,1.84-1,3.26-1.39,0-.11-.1-.16,0-.19.61,0,.52-.35,1.09-.44a7.57,7.57,0,0,1,1.47-.72c-.05,0-.08,0-.08-.13.66,0,.63-.37,1.16-.44-.1-.09-.33,0-.52,0-.3.42-.67.34-1.15.58.05,0,.07,0,.07.12-.52,0-.64.32-1.16.31,0,.12.1.16,0,.2-1.83.53-2.38,1.12-4.11,1.55,0,.11.11.16,0,.19a.73.73,0,0,0-.39,0c0,.2-.69.35-1.09.51l-4.41,1.76a3.35,3.35,0,0,1-1.48.46c0,.11.1.16,0,.19-.86,0-1.45.66-2.25.69.07,0,.16.1.07.12a1.22,1.22,0,0,0-.78.17,4.06,4.06,0,0,0-1.34.58c-.09,0-.12-.1-.2-.12,0,.22-.19.22-.38.15a1.17,1.17,0,0,1-.19.27c-.15-.38-.37.32-.52,0a.8.8,0,0,1-.83.3c-.42.44-1,.25-1.41.65-.15-.32-.23.11-.38.15a.51.51,0,0,0-.14-.19c-.08.2-.28.36-.45.16.07.37-.34.13-.38.14s-.22.27-.25.27-.1-.15-.2-.12-.09.2-.19.21-.15-.14-.2-.12c-.21.1-.18.41-.44.15a.37.37,0,0,1-.25.27c-.38-.23-.63.3-1,.11-.16.42-.48,0-.7.42a.49.49,0,0,0-.14-.19c-.09.22-.22.27-.39.2-.58.93-1.15,1.88-1.72,2.83A.73.73,0,0,0,118.68,114.6Zm273.9,297.7a.74.74,0,0,0,0,.2l.09-.15Zm-41.64,42.92,0,0Zm41.15-42.31a.17.17,0,0,1,.13.11,1.73,1.73,0,0,1,.13-.18C392.23,412.83,392.1,412.82,392.09,412.91Zm-.25.34a.45.45,0,0,1,.15.09l.12-.17C392,413.16,391.85,413.15,391.84,413.25Zm17-27.82a1.15,1.15,0,0,1-.11.59c0-.08-.14-.11-.26-.12a.63.63,0,0,1-.1.53.36.36,0,0,0-.21-.19.9.9,0,0,1-.1.53c-.14,0-.14-.19-.26-.06a.64.64,0,0,1-.12.47.32.32,0,0,0-.2-.19c0,.22,0,.47-.17.59a.32.32,0,0,0-.2-.18.71.71,0,0,1-.11.53c-.13,0-.14-.19-.26-.05a.56.56,0,0,1-.11.46.33.33,0,0,0-.21-.19.76.76,0,0,1-.17.53.34.34,0,0,0-.2-.19c0,.34-.05.65-.38.41a.57.57,0,0,1-.11.46c-.12,0-.06-.21-.2-.18a1.54,1.54,0,0,1-.17.53.32.32,0,0,0-.2-.19.74.74,0,0,1-.18.52.18.18,0,0,0-.2-.12c0,.35-.09.54-.38.34a.53.53,0,0,1-.11.4c-.1,0-.12-.1-.2-.12a1.4,1.4,0,0,1-.17.52.34.34,0,0,0-.2-.18,1.07,1.07,0,0,1-.17.53.35.35,0,0,0-.2-.19c0,.36-.08.54-.38.35a.58.58,0,0,1-.11.46.3.3,0,0,0-.2-.18,1.61,1.61,0,0,1-.18.53.34.34,0,0,0-.2-.19c0,.28-.09.59-.31.34-.09.1,0,.34-.18.4s-.11-.11-.2-.13c0,.22-.17.26-.11.53-.14,0-.14-.17-.27-.18a.66.66,0,0,1-.17.47c0-.07-.08-.1-.14-.13s-.08.31-.18.4-.12-.1-.2-.12a1.51,1.51,0,0,1-.18.47.18.18,0,0,0-.2-.13c0,.25-.11.52-.31.27-.09.11,0,.34-.18.4s-.12-.1-.2-.12a.64.64,0,0,1-.17.47.49.49,0,0,0-.14-.19,1.25,1.25,0,0,1-.17.46.18.18,0,0,0-.2-.12c0,.25-.1.52-.32.27-.08.11,0,.34-.18.4s-.11-.11-.2-.12a.62.62,0,0,1-.17.47.19.19,0,0,0-.14-.2,1.24,1.24,0,0,1-.17.47.17.17,0,0,0-.2-.12c0,.15,0,.36-.18.4a.53.53,0,0,0-.14-.19c0,.16,0,.37-.18.46,0-.07-.07-.1-.13-.12s-.08.31-.18.41-.05-.16-.2-.12c0,.25-.1.51-.31.27a.68.68,0,0,1-.18.4c0-.08-.08-.1-.14-.13s-.07.31-.18.41-.06-.17-.2-.12c0,.29-.14.49-.32.27a.61.61,0,0,1-.18.4c0-.07-.08-.1-.13-.13s0,.34-.18.4-.07-.1-.13-.13,0,.34-.18.4a.16.16,0,0,0-.19-.12c0,.31-.16.39-.32.2a.51.51,0,0,1-.11.39c-.09,0-.11-.1-.2-.12,0,.29-.14.5-.32.28,0,.25-.11.52-.31.27a.7.7,0,0,1-.17.41c0-.08-.08-.1-.14-.13s0,.34-.18.4a.54.54,0,0,0-.14-.2.62.62,0,0,1-.18.4c0-.07-.08-.1-.14-.12a.62.62,0,0,1-.18.4c0-.07-.08-.09-.13-.12a.67.67,0,0,1-.18.39.48.48,0,0,0-.14-.18c0,.17-.05.37-.17.46a.18.18,0,0,0-.14-.18c0,.25-.11.51-.31.27,0,.25-.11.52-.31.27,0,.12,0,.28-.12.33s-.11-.1-.2-.12a.52.52,0,0,1-.12.39c-.08,0-.07-.11-.13-.13s0,.34-.18.4-.08-.1-.13-.12c-.09.18-.12.44-.32.21,0,.15,0,.35-.18.4s0-.15-.14-.13c0,.23-.06.41-.31.27,0,.12,0,.27-.11.33s-.08-.1-.13-.12-.07.31-.18.4a.18.18,0,0,0-.14-.19c-.05.15,0,.36-.18.4,0-.08,0-.15-.13-.12,0,.25-.13.44-.25.2a.71.71,0,0,1-.18.41.44.44,0,0,0-.14-.19c0,.24-.12.52-.24.27-.07.23-.1.5-.51.41.1.3-.16.15-.31.28,0,0,0,.4-.32.21a.31.31,0,0,0,.08.19c-.27,0-.49.09-.26.27h-.38c.13.23,0,.2-.25.21s.19.2,0,.26-.39-.05-.39.09.11.07.14.12l-.33,0c.2.35-.5.14-.3.47-.37-.08-.28.21-.31.27l-.33,0c.12.23,0,.2-.25.21s.19.2,0,.26-.38-.06-.39.08.1.07.14.12c-.2,0-.24.08-.39.09.17.25-.07.19-.31.21a.33.33,0,0,0,.07.19c-.22.05-.46,0-.31.27l-.33,0c.13.35-.29.2-.38.34.08,0,.11.07.14.12l-.33,0c0,.18,0,.32-.37.28a.26.26,0,0,0,.07.18c-.38,0-.34.16-.31.27h-.34c.1.31-.17.16-.37.35s-.19.51-.57.41c.18.39-.3.19-.37.35.07,0,.1.06.13.12-.2,0-.23.08-.39.09.26.33-.52.1-.24.46l-.38,0a.26.26,0,0,0,.07.18c-.16,0-.19.12-.39.09.26.34-.52.11-.24.47l-.33,0c0,.18,0,.33-.38.28a.26.26,0,0,0,.07.19c-.18.1-.49,0-.31.27-.2,0-.19.12-.39.08.25.34-.52.11-.24.47h-.32c0,.17,0,.31-.39.28a.29.29,0,0,0,.07.18c-.11.09-.38,0-.45.16s.1.06.13.13a.84.84,0,0,0-.45.15c.08,0,.11.06.14.12a.56.56,0,0,0-.44.15c.07,0,.1.07.13.12-.43,0-.42.16-.38.28-.27,0-.45.05-.31.28-.27,0-.46,0-.32.27h-.32c0,.24-.33.47-.7.55.09.27-.09.3-.31.27,0,.17,0,.31-.38.28a.46.46,0,0,0,.08.19c-.07.08-.23.08-.39.09a.36.36,0,0,0,.07.19c-.15,0-.18.12-.38.08.09.27-.1.29-.32.27,0,.15.07.32-.31.28,0,.16,0,.31-.38.27.17.45-.57.17-.3.54-.26,0-.45.05-.31.27-.58-.08-.12.41-.7.29-.1.14,0,.09,0,.26-.21,0-.24.08-.38.09.27.35-.59.1-.31.47-.2,0-.19.11-.39.08a.33.33,0,0,0,.07.2c-.15,0-.19.11-.39.08-.08.5-.7.39-.68.81-.21,0-.19.12-.39.08a.3.3,0,0,0,.07.2c-.42.09-.65.3-.69.61-.24,0-.53,0-.38.28-.2,0-.19.12-.38.08a.31.31,0,0,0,.07.19c-.15,0-.18.12-.39.09.12.33-.22.26-.38.34a.27.27,0,0,0,.08.19c-.6,0-.51.59-1.15.71a.33.33,0,0,0,.07.19c-.15,0-.18.12-.39.08.07.29-.2.26-.38.34a.28.28,0,0,0,.07.19c-.53,0-.35.38-.82.49,0,0,.08.05.07.13s-.19.12-.39.08c0,.09,0,.18,0,.26-.2,0-.19.12-.39.08a.29.29,0,0,0,.08.19c-.2.09-.55.08-.38.34a.75.75,0,0,0-.69.62c-.21,0-.23.13-.45.09a.33.33,0,0,0,.06.19,2.09,2.09,0,0,1-.44.16.28.28,0,0,0,.07.19c-.2.08-.55.08-.38.34-1.09.53-1.31,1.33-2.27,1.73a.3.3,0,0,0,.07.19c-.17.12-.58.06-.38.34-.2.09-.55.08-.38.35-.2.09-.55.08-.38.34-.15,0-.19.11-.38.08-.11.14,0,.08,0,.27-.2,0-.19.11-.39.08-.1.13,0,.08,0,.26-.2,0-.19.12-.39.08-.1.14,0,.08,0,.26-.65.11-.53.63-1.14.77-.1.14,0,.08,0,.26-.19,0-.18.13-.38.09-.11.14,0,.08,0,.26-.76.28-.85.86-1.64,1.24.05,0,.07,0,.07.13-.52.06-.26.46-.83.49.23.35-.53.32-.36.61-.4.07-.44.48-.82.56.25.26-.61.18-.3.54-.24,0-.24.15-.45.15a.28.28,0,0,0,.08.19c-.39.13-.82.47-.82.75-.36.16-.82.46-.81.76-.19,0-.28.14-.45.15a.31.31,0,0,0,.07.19c-.77.41-1,1-1.69,1.44,0,0,.08.06.07.13-.2,0-.21.18-.45.15.07.33-.19.36-.43.42.2.29-.19.29-.38.4a.36.36,0,0,0,.08.2c-.21.1-.6.14-.44.41-.35.16-.84.5-.81.81-.19,0-.26.14-.45.16,0,.55-.89.61-.8,1.07-.35.17-.83.53-.81.82a1.18,1.18,0,0,0-.52.29c-.11.44-1.13.9-1.17,1.42-.23,0-.28.2-.51.22a.29.29,0,0,0,.07.19c-.17.16-.62.18-.44.48-.78.43-1,1.23-1.75,1.58a.26.26,0,0,0,.08.19c-.17.1-.34.2-.51.28a.33.33,0,0,0,.08.2c-.2.13-.61.18-.44.47-.89.55-1.29,1.57-2.18,2.12-.13.65-.84.71-.86,1.27-.69.33-.7.95-1.37,1.3a.28.28,0,0,0,.07.19c-.18.16-.6.25-.43.54-.2.12-.61.29-.43.55-.25,0-.24.28-.51.28a.36.36,0,0,0,.08.26c-.25,0-.27.25-.51.28-.06.66-.9.85-.85,1.41-.49.14-.45.75-.94.89a.27.27,0,0,0,.07.19c-.94.86-1.42,2.14-2.28,2.9,0,.13.08.14.08.26-.35,0-.4.57-.42.61s-.39.29-.51.48-.23.71-.41,1-.34.26-.44.41.06.25,0,.33c-.18.39-.7.79-.85,1.28-.25.74-.59,1.27-.82,1.86,0,0,.09.11.07.2s-.37.41-.42.73a5.85,5.85,0,0,0-.25,2.33q6.88-3.17,13.5-7a1.9,1.9,0,0,0,.13-.69c.54-.57.51-1.44,1.21-1.94,0-.19-.09-.17-.08-.33.19-.23.61-.28.43-.67a4.66,4.66,0,0,0,.43-.35.35.35,0,0,0-.07-.25c.22-.07.3-.28.5-.35,0-.12-.08-.14-.07-.26a3.28,3.28,0,0,0,.5-.35c0-.12-.08-.14-.08-.26.2-.06.26-.26.51-.28,0-.13-.07-.15-.07-.26.16-.08.23-.25.44-.28-.1-.42.24-.45.43-.61a.32.32,0,0,0-.08-.25c.25,0,.31-.23.51-.29a.4.4,0,0,0-.07-.26c.21,0,.3-.21.5-.28,0-.12-.08-.14-.08-.25.62-.1.32-.67.95-.76,0-.12-.08-.14-.08-.26.2-.17.63-.16.43-.54a1.42,1.42,0,0,0,.8-.94l.51-.29a.28.28,0,0,0-.07-.18c.21-.18.62-.16.43-.55.25-.13.6-.13.43-.47.21,0,.21-.18.45-.16,0-.11,0-.21,0-.32.19,0,.29-.16.45-.21a.3.3,0,0,0-.08-.19c.17-.16.63-.17.44-.48.18-.19.63-.1.44-.47.22-.1.51-.12.44-.48.21,0,.21-.19.44-.15,0-.13-.07-.14-.07-.26.22-.15.63-.11.44-.48.21,0,.21-.18.45-.15-.1-.38.25-.35.44-.47a.34.34,0,0,0-.08-.19c.32-.22.82-.57.8-.88a3.52,3.52,0,0,1,.52-.22c0-.12-.08-.14-.08-.26a1.07,1.07,0,0,0,.51-.22c-.09,0-.08-.14-.14-.19.27,0,.25-.18.52-.15,0-.12-.09-.14-.08-.26.19,0,.27-.13.44-.15-.18-.48.66-.29.36-.67.21,0,.21-.18.45-.15.11-.14,0-.08,0-.26a1.08,1.08,0,0,1,.45-.15.37.37,0,0,0-.08-.26,1.07,1.07,0,0,1,.45-.15c-.09-.34.16-.35.37-.41s0-.08,0-.26a4.39,4.39,0,0,1,.45-.22.32.32,0,0,0-.07-.19c.21-.15.62-.11.43-.47.24,0,.25-.15.45-.15,0-.13-.08-.14-.08-.25a.94.94,0,0,0,.45-.16.29.29,0,0,0-.08-.19c.15-.15.56-.08.44-.48.2,0,.19-.12.39-.08.1-.14,0-.08,0-.25.18-.12.57-.13.37-.41.19,0,.27-.13.46-.15,0-.12-.08-.14-.07-.26.29-.07.61-.06.43-.41.21,0,.19-.12.39-.08.1-.13,0-.08,0-.26a1.16,1.16,0,0,1,.45-.16c0-.12-.08-.14-.08-.25.21-.09.55-.08.38-.34a1,1,0,0,1,.44-.15c0-.12-.08-.14-.07-.26.23,0,.24-.15.45-.14a.35.35,0,0,0-.08-.2,1.29,1.29,0,0,1,.45-.15.36.36,0,0,0-.08-.26c.26-.11.63,0,.44-.4a.59.59,0,0,0,.45-.15c-.09,0-.08-.14-.14-.19.6,0,.38-.44.89-.56-.08,0-.07-.1-.07-.19a.85.85,0,0,0,.45-.15c-.08,0-.08-.1-.07-.19.19-.09.55-.08.37-.34.26-.1.54-.07.37-.41.31,0,.52,0,.38-.34.2,0,.22-.13.45-.08,0-.13-.08-.14-.08-.26.21,0,.19-.12.39-.08.1-.13,0-.08,0-.26.2-.09.55-.08.38-.35.62-.17.55-.64,1.14-.83a.31.31,0,0,0-.08-.19,2.84,2.84,0,0,1,.45-.15.27.27,0,0,0-.08-.19,1.9,1.9,0,0,1,.46-.15.36.36,0,0,0-.08-.2c.62-.21.61-.64,1.2-.9-.08,0-.11-.07-.14-.12a2,2,0,0,0,.44-.16c0-.11-.1-.16,0-.2.53,0,.17-.47.77-.42,0-.13-.08-.14-.08-.26a.92.92,0,0,0,.45-.15c-.09,0-.08-.14-.13-.19a.91.91,0,0,0,.51-.16.24.24,0,0,1-.14-.13,3.23,3.23,0,0,1,.45-.16.3.3,0,0,0-.07-.19.6.6,0,0,1,.39-.09c.1-.13,0-.08,0-.26s.37,0,.45-.15-.21-.21-.08-.2.24-.08.39-.08a.37.37,0,0,0-.07-.19c.15,0,.18-.12.38-.08.11-.13,0-.08,0-.26s.38,0,.45-.15c-.09,0-.08-.14-.14-.19.23,0,.25-.11.45-.09a.3.3,0,0,0-.07-.19c.07-.08.23-.09.39-.08s0-.09,0-.27c.21,0,.19-.12.39-.08a.27.27,0,0,0-.07-.19c.07-.08.22-.08.39-.08s0-.09,0-.26.38,0,.45-.15-.21-.21-.08-.19.45,0,.31-.27c.12-.09.38,0,.45-.16s-.21-.2-.08-.19.45,0,.32-.27c.11-.08.38,0,.45-.16s-.21-.2-.08-.19.45,0,.31-.28c.11-.09.38,0,.46-.15s-.2-.21-.08-.19l.32,0c.11-.14,0-.08,0-.26.21,0,.18-.12.39-.08-.17-.26.08-.29.38-.28.08-.17-.27-.2-.08-.26h.33c-.16-.41.59-.15.36-.6l.38,0c0-.12-.07-.14-.07-.25h.33c-.05-.31.18-.27.43-.41-.21-.12.12-.26.32-.21,0-.12-.09-.14-.08-.25s.44.06.45-.09-.21-.21-.07-.19c.3,0,.47-.11.25-.28.23,0,.25-.1.45-.08a.33.33,0,0,0-.07-.19.56.56,0,0,1,.38-.08c-.24-.33.24-.2.38-.34-.05,0-.22-.21-.08-.19l.32,0c.2-.12-.18-.19,0-.27h.33c.1-.13,0-.08,0-.26.2,0,.24-.07.39-.08a.32.32,0,0,0-.06-.19.78.78,0,0,0,.44-.15.18.18,0,0,1-.13-.12.9.9,0,0,0,.45-.15c-.07,0-.1-.07-.13-.13.55,0,.21-.38.76-.36,0-.12-.08-.14-.08-.27l.39,0c-.24-.32.24-.19.38-.33-.06,0-.29-.17-.14-.19s.43.06.45-.08-.11-.07-.14-.12.41,0,.45-.15a.19.19,0,0,1-.14-.19c.13,0,.44.07.45-.08a.18.18,0,0,1-.14-.19c.14,0,.43.06.45-.09a.17.17,0,0,1-.13-.19c.12,0,.43.06.44-.09a.17.17,0,0,1-.13-.19c.13-.05.43.06.45-.09,0,0-.2-.21-.07-.19s.39.06.39-.08c-.31-.27.55-.09.25-.4.1-.07.32,0,.38-.15s-.1-.07-.14-.12a.61.61,0,0,0,.45-.15c-.08,0-.11-.07-.13-.13.2,0,.39,0,.45-.15s-.11-.07-.14-.12a.58.58,0,0,0,.45-.15c-.07,0-.16-.1-.07-.12h.33c-.24-.4.22-.17.37-.35a.17.17,0,0,1-.14-.19c.13,0,.43.07.45-.09a.18.18,0,0,1-.14-.18l.39,0a.3.3,0,0,0-.07-.2c.17-.09.49,0,.31-.27.27,0,.46-.05.32-.28l.39,0c.08-.16-.27-.19-.08-.25s.39.06.39-.09-.2-.21-.07-.19.39.06.39-.09c-.29-.07,0-.26.24-.21-.16-.25.07-.19.32-.21.08-.17-.27-.19-.08-.26s.39.06.39-.08-.21-.2-.07-.19.39.06.38-.09-.1-.07-.14-.12c.16,0,.19-.12.4-.08-.13-.23,0-.2.25-.21s-.19-.2,0-.26.38.06.38-.08-.21-.2-.07-.19.39.06.39-.09-.1-.06-.13-.12c.38,0,.34-.16.31-.28s.39.06.39-.08-.2-.21-.07-.19.39.06.38-.08-.1-.07-.14-.13c.18-.09.5,0,.32-.27.11,0,.38.06.39-.08s-.21-.21-.08-.19l.33,0c0-.15.16-.23.11-.47.13,0,.13.17.27.19a.58.58,0,0,1,.11-.46.19.19,0,0,0,.14.19c.08-.11,0-.34.18-.4a.18.18,0,0,0,.14.19.58.58,0,0,1,.12-.46.18.18,0,0,0,.2.12c0-.19,0-.33.11-.4a.54.54,0,0,0,.14.19c0-.29.16-.52.32-.22a.82.82,0,0,1,.11-.52c.07.05,0,.24.2.19,0-.19,0-.33.11-.4,0,.14.11.13.2.06-.07-.37.15-.35.26-.14,0-.16,0-.36.11-.46a.34.34,0,0,0,.2.19.62.62,0,0,1,.1-.47.2.2,0,0,0,.21.13.51.51,0,0,1,.11-.4.43.43,0,0,0,.13.19c.1-.12,0-.4.17-.46a.18.18,0,0,0,.14.18c0-.16,0-.36.11-.46a.33.33,0,0,0,.2.19,1,1,0,0,1,.11-.46.34.34,0,0,0,.21.19.57.57,0,0,1,.11-.46.3.3,0,0,0,.2.18c0-.2,0-.39.11-.46a.17.17,0,0,0,.2.12c0-.19,0-.33.12-.39,0,.13.1.13.2,0-.06-.32.1-.36.25-.2.06-.12,0-.33.12-.4s.11.1.19.12,0-.32.12-.39.11.1.21.12a.87.87,0,0,1,.1-.46c.13,0,.05.21.2.19a.91.91,0,0,1,.11-.53.81.81,0,0,0,.21.25.66.66,0,0,1,.11-.53.35.35,0,0,0,.2.19.67.67,0,0,1,.11-.53c0,.16.11.2.21.25a.67.67,0,0,1,.1-.52.31.31,0,0,0,.2.18c0-.18-.07-.44.11-.46a.18.18,0,0,0,.2.12c0-.2,0-.39.11-.46s0,.24.2.19c0-.18-.08-.44.11-.46s.11.13.2.06,0-.34.11-.41c0,.14.11.14.2.06s-.05-.39.11-.4a.19.19,0,0,0,.14.19c.07-.12,0-.38.11-.47s.14.2.27.05-.1-.37,0-.39.11.1.19.13,0-.38.11-.47.08.18.21.19a1.42,1.42,0,0,1,.1-.59c.07.08.08.23.21.25-.06-.24.1-.28,0-.52.13,0,.13.18.27.19a.67.67,0,0,1,.1-.53.35.35,0,0,0,.2.19c0-.22,0-.46.11-.54a.31.31,0,0,0,.2.19h0c0-.22,0-.45.11-.53,0,.12.08.13.15.08l0-.07c0-.13-.08-.34,0-.35a.2.2,0,0,1,.12.07l.12-.2c0-.13,0-.28.06-.34a.33.33,0,0,1,.06.13l.19-.32a.33.33,0,0,0,0-.14.12.12,0,0,1,.08,0q3.39-5.69,6.46-11.63C409,385.55,409,385.44,408.85,385.43Zm-17.26,28.1a.17.17,0,0,1,.13.18c.07-.08.12-.17.19-.26C391.79,413.45,391.59,413.4,391.59,413.53Zm-.31.27c.06,0,.29.17.15.19l-.4,0c-.07.19.32.23.15.32s-.39-.06-.39.08.21.21.07.19-.39-.06-.39.08.29.16.14.19-.39-.06-.39.09.28.22.14.25-.38-.06-.38.09.21.21.07.19-.38-.06-.38.09a.17.17,0,0,1,.14.18c-.13,0-.43-.06-.45.09s.22.09.21.25-.43-.06-.46.09.3.16.14.18l-.4,0c-.07.17.28.19.08.26s-.38-.06-.39.08c.26.16,0,.25-.25.21-.11.21.25.25.08.33s-.39-.06-.39.08.21.21.07.19-.39-.06-.39.08a.17.17,0,0,1,.14.19c-.13,0-.43-.06-.45.09.13,0,.14.16.21.25-.13,0-.43-.06-.45.09s.21.21.07.19-.39-.07-.39.08a.18.18,0,0,1,.14.19c-.13,0-.43-.06-.45.09a.18.18,0,0,1,.14.18.58.58,0,0,0-.39.14c.05,0,.21.21.07.2l-.38,0c-.08.16.27.19.07.25h-.39c.29.34-.12.21-.31.41.06,0,.3.16.14.18s-.43-.06-.45.09a.18.18,0,0,1,.13.19c-.13,0-.42-.06-.45.08a.19.19,0,0,1,.14.19c-.2,0-.19.13-.39.08-.08.17.27.2.07.26l-.39,0c-.08.17.26.19.07.26s-.42-.06-.45.08a.34.34,0,0,1,.21.19.86.86,0,0,0-.45.15s.21.21.07.19l-.38,0c-.08.17.26.2.08.26l-.33,0c0,.16,0,.4-.37.34-.08.17.27.19.07.26l-.39,0c0,.12.08.13.08.25-.2,0-.23.08-.39.08-.08.17.27.2.08.25s-.44-.06-.45.09a.19.19,0,0,1,.14.19c-.14,0-.44-.06-.46.09s.08.13.14.18-.41,0-.45.16a.18.18,0,0,1,.14.19l-.46,0c0,.18.13.12.14.25s-.37,0-.44.16.2.21.08.2-.44-.06-.46.08a.18.18,0,0,1,.14.19c-.15,0-.19.12-.39.08-.08.17.27.19.08.26s-.44-.06-.45.09.08.14.14.19a.8.8,0,0,0-.44.14c.05,0,.21.21.07.19l-.4,0c0,.19.14.13.15.26a1.25,1.25,0,0,1-.45.09c-.08.16.27.19.08.25s-.43-.07-.45.09.08.14.14.19-.42,0-.45.15.21.21.08.2a.55.55,0,0,0-.39.08c-.08.17.27.19.08.26s-.44-.06-.46.09.08.14.14.18a.85.85,0,0,0-.45.16c.05,0,.2.2.07.19l-.39,0a.35.35,0,0,0,.07.26c-.05.14-.41,0-.45.15s.08.14.14.18c-.23,0-.25.11-.45.08-.09.17.26.2.07.27s-.42-.07-.44.09.08.14.13.19-.28.08-.45.08c0,.13.08.15.08.26-.17,0-.36,0-.45.15a.18.18,0,0,1,.14.19l-.39,0c-.18.1.18.26,0,.33s-.43-.07-.45.08.07.14.13.19a1,1,0,0,1-.45.09c0,.13.08.14.07.26a.87.87,0,0,0-.44.15c.09,0,.08.14.14.2-.23,0-.25.1-.46.08-.08.17.27.2.08.26l-.39,0c-.18.11.18.26,0,.33s-.43-.06-.45.08a.3.3,0,0,1,.14.26l-.46,0c0,.16.13.14.08.33-.14,0-.43-.07-.45.08s.08.14.14.19-.47,0-.52.15a.17.17,0,0,1,.14.19c-.08.09-.28.08-.45.09,0,.18.14.12.14.25s-.43,0-.52.15c.09,0,.08.14.14.19s-.47,0-.52.15a.17.17,0,0,1,.14.19,1.07,1.07,0,0,1-.45.08c0,.13.08.14.07.26s-.38,0-.45.15c.09,0,.08.14.14.19-.12.1-.43,0-.52.16.1,0,.08.14.14.19s-.28.08-.45.09c-.1.21.25.25.08.32s-.4,0-.45.16.2.21.07.19a.58.58,0,0,0-.45.15c.1,0,.08.14.14.19a.94.94,0,0,0-.52.16c.09,0,.08.14.14.19-.17.05-.41,0-.51.15a.29.29,0,0,1,.14.26c-.33,0-.51,0-.37.34a.58.58,0,0,0-.45.16c.09,0,.08.14.14.18-.21,0-.27.13-.52.09,0,.18.13.13.14.26s-.47,0-.51.22c.1,0,.08.13.14.19a.93.93,0,0,0-.52.15c.09,0,.08.14.14.19-.15,0-.24.12-.45.09,0,.19.09.16.08.33a.88.88,0,0,0-.52.15.17.17,0,0,1,.13.18c-.2,0-.22.13-.45.09,0,.19.1.16.08.32-.22,0-.3.06-.45.09s.07.14.07.26a2.28,2.28,0,0,0-.45.15c0,.12.08.14.08.26-.23,0-.24.1-.45.08a.4.4,0,0,0,.07.26,2.41,2.41,0,0,1-.45.15c0,.12.08.14.08.26s-.23.12-.45.09c0,.19.1.16.08.32-.23,0-.25.11-.45.09,0,.12.08.14.07.26a2.47,2.47,0,0,1-.45.15c0,.12.08.14.07.25a2.47,2.47,0,0,0-.45.16c0,.12.08.14.08.25-.21,0-.23.13-.45.09,0,.18.1.16.08.32-.21,0-.22.13-.45.09,0,.18.1.17.08.32-.21,0-.23.13-.45.09s.18.26,0,.33-.36,0-.44.15c.12,0,0,.21.14.25-.25,0-.27.12-.52.09,0,.15.11.19.14.32-.24,0-.27.13-.51.09,0,.16.11.19.14.32-.25,0-.28.12-.51.09,0,.19.09.17.08.33a1,1,0,0,0-.46.15c0,.13.07.14.07.26a1.57,1.57,0,0,0-.51.22c.09,0,.08.14.14.19-.18,0-.34.11-.52.15,0,.16.12.14.08.32-.2,0-.22.13-.45.08,0,.17.12.14.08.33a1.09,1.09,0,0,0-.45.15c0,.12.09.14.08.26a1.41,1.41,0,0,0-.51.22c.1,0,.08.14.15.19a1.08,1.08,0,0,1-.52.15c0,.16.11.2.14.32a1.43,1.43,0,0,0-.51.16c0,.12.08.13.08.25a3.33,3.33,0,0,0-.52.22.27.27,0,0,1,.14.25c-.24,0-.31.14-.51.16,0,.16.12.14.08.32a1.2,1.2,0,0,0-.45.15c0,.16.13.14.08.32a1.11,1.11,0,0,0-.45.15c0,.12.08.14.08.26-.17.1-.41.13-.52.28.09,0,.08.14.14.19-.13.13-.41.13-.5.29.1,0,.07.16.08.26-.19,0-.27.13-.45.15,0,.16.13.14.08.33-.18,0-.27.13-.44.15-.05.18.1.16.07.32-.29.13-.61.11-.43.54-.18,0-.26.14-.45.15,0,.16.11.2.15.32-.26,0-.26.19-.52.15,0,.13,0,.16.05.22q4.07-3,8-6.32a.28.28,0,0,1,0-.13c.1,0,.18-.06.28-.08l.19-.15a1,1,0,0,1-.1-.17,1.85,1.85,0,0,1,.46-.14l.05,0c0-.14-.1-.18-.14-.29.21,0,.27-.13.52-.09,0-.16-.11-.2-.15-.32.18,0,.33-.11.51-.15s-.13-.14-.08-.32c.21,0,.3-.06.45-.09s-.23-.27-.08-.32.25-.11.45-.08c0-.19-.09-.17-.08-.33.21,0,.23-.13.45-.08,0-.18-.1-.16-.08-.32.21,0,.23-.13.46-.09,0-.19-.1-.16-.08-.32s.24-.12.45-.09c0-.18-.1-.16-.08-.32s.43,0,.52-.15a.3.3,0,0,1-.14-.26c.21,0,.23-.12.46-.08,0-.19-.1-.16-.08-.32.17-.05.41,0,.52-.16-.1,0-.13-.13-.15-.25a.91.91,0,0,0,.51-.16.3.3,0,0,1-.14-.26.72.72,0,0,0,.52-.15.19.19,0,0,1-.14-.19c.08-.11.37,0,.45-.16s-.08-.14-.08-.25c.16,0,.24-.12.45-.09,0-.18-.09-.17-.07-.32.22,0,.25-.1.45-.09,0-.16-.12-.13-.08-.32.18,0,.37,0,.45-.09s-.08-.14-.08-.26.24-.11.45-.08c0-.16-.24-.28-.08-.32a.6.6,0,0,0,.45-.16c-.09,0-.08-.14-.14-.19.21,0,.27-.12.52-.09,0-.15-.24-.27-.08-.32a.6.6,0,0,0,.45-.15c-.09,0-.08-.14-.14-.19.11-.11.43,0,.52-.15a.3.3,0,0,1-.15-.26c.18,0,.38,0,.45-.08s-.08-.14-.07-.26c.21,0,.22-.13.45-.09,0-.12-.07-.14-.08-.26s.28-.08.46-.08-.24-.27-.08-.32a.57.57,0,0,0,.45-.16c-.09,0-.09-.13-.14-.18.17-.05.41-.05.52-.16a.27.27,0,0,1-.14-.25l.45,0c0-.19-.1-.16-.08-.32l.39,0c.18-.1-.18-.26,0-.32s.36-.05.45-.15c-.1,0-.08-.14-.14-.19.17-.05.41-.05.52-.15a.18.18,0,0,1-.13-.19c.07-.09.27-.08.45-.08,0-.16-.12-.14-.08-.32l.46,0c0-.2-.19-.11-.16-.32.16,0,.49.06.53-.08a.29.29,0,0,1-.15-.26l.46,0c0-.16-.25-.27-.08-.32l.39,0c.15-.16-.1-.12-.08-.32.21,0,.3-.06.45-.09s-.08-.14-.08-.26c.21,0,.4,0,.45-.15s-.08-.14-.14-.19c.23,0,.24-.11.45-.09,0-.12-.09-.14-.08-.26.2,0,.39,0,.45-.15s-.21-.2-.08-.19.4,0,.46-.16a.18.18,0,0,1-.14-.19c.21,0,.4,0,.45-.15s-.21-.2-.08-.19a.56.56,0,0,0,.39-.08c-.2-.29.09-.29.38-.28,0-.15-.24-.27-.08-.32l.39,0c.1-.21-.26-.26-.08-.33l.46,0c0-.2-.19-.12-.15-.32.16,0,.48.06.52-.09a.17.17,0,0,1-.14-.18c.05-.15.42,0,.45-.16s-.08-.14-.14-.18a.94.94,0,0,0,.45-.16c-.09,0-.07-.14-.14-.19.23,0,.24-.1.45-.08.08-.17-.26-.19-.08-.26l.46,0c0-.2-.19-.12-.14-.32l.46,0c0-.2-.19-.11-.15-.32l.46,0c0-.12-.09-.14-.08-.25a.91.91,0,0,0,.45-.15.18.18,0,0,1-.14-.19l.46,0c0-.2-.19-.12-.15-.32l.46,0c0-.2-.19-.11-.14-.31l.46,0c0-.13-.08-.15-.08-.26s.19-.12.39-.08c0-.13-.08-.14-.08-.26s.43.06.45-.08a.32.32,0,0,1-.14-.25c.14,0,.44.06.46-.09s-.28-.22-.14-.25.42.07.45-.09-.08-.13-.14-.19a.56.56,0,0,0,.45-.15c-.05,0-.2-.2-.07-.19l.39,0c0-.18-.14-.13-.14-.25s.28-.08.45-.09c.08-.17-.26-.19-.07-.26s.33,0,.38-.14-.21-.2-.07-.19h.39c0-.21-.18-.12-.15-.32.13,0,.43.06.45-.09s-.21-.2-.07-.19h.33c.15-.16-.1-.12-.08-.32.13,0,.43.06.45-.08s-.08-.14-.14-.19c.12-.09.38,0,.45-.15a.18.18,0,0,1-.14-.19c.13,0,.43.06.46-.09s-.28-.23-.15-.25.43.05.45-.09a.19.19,0,0,1-.14-.19c.19,0,.19-.11.37-.07l0,0c0-.14-.27-.17-.07-.23a.75.75,0,0,1,.27,0l.11-.12a.21.21,0,0,1-.14-.21,1.72,1.72,0,0,1,.31,0l.09-.12c-.06-.06-.12-.16,0-.15h.14l.16-.19c-.08,0-.15-.09-.06-.14a.56.56,0,0,1,.18,0l.13-.16s-.08-.09,0-.11h.08l.2-.25,0-.08h.11l.19-.24s0-.09,0-.09h.06c.24-.32.5-.63.74-.94h0c1.44-1.83,2.85-3.71,4.23-5.6C391.57,413.75,391.3,413.66,391.28,413.8ZM147.87,429.32a.58.58,0,0,1,.46.11.18.18,0,0,0-.13.2.54.54,0,0,1,.4.11c-.09,0-.07.15-.13.2a.91.91,0,0,1,.47.12.31.31,0,0,0-.19.2.84.84,0,0,1,.46.11.18.18,0,0,0-.12.2.55.55,0,0,1,.4.11c0,.09-.1.11-.12.2.2,0,.23.11.45,0,0,.12-.17.09-.12.27a.5.5,0,0,1,.4.11c-.09,0-.07.14-.12.2.15,0,.26.09.46,0,0,.13-.17.09-.12.26s.36,0,.4.11-.11.12-.12.21c.2,0,.23.11.45,0,0,.13-.17.09-.12.27s.36,0,.39.11-.1.12-.11.21c.19,0,.55.06.34.31.12.06.33,0,.39.11-.17.31.45.24.29.58.1,0,.34-.1.33,0-.21.4.55.1.29.57a.57.57,0,0,1,.39,0c0,.14-.19.14-.05.26s.33,0,.39.11a.18.18,0,0,0-.12.2c.16,0,.31,0,.39.05s-.07.14-.06.26c.36-.09.49.14.27.32.21,0,.39,0,.47.11-.09,0-.07.15-.12.21.2,0,.38,0,.46.1-.09,0-.07.15-.13.2a.59.59,0,0,1,.46.11c0,.09-.1.11-.13.2a.6.6,0,0,1,.46.1c-.09,0-.07.15-.12.2.21,0,.39,0,.46.11-.09,0-.06.15-.12.2a.63.63,0,0,1,.46.11c-.09,0-.07.15-.13.2a.61.61,0,0,1,.46.11c0,.1-.11.12-.13.21a.58.58,0,0,1,.47.1c0,.1-.11.12-.12.2.24,0,.58,0,.4.3.2,0,.24.11.46,0,0,.13-.18.09-.12.27a1,1,0,0,0,.45,0c0,.13-.17.09-.12.27a.91.91,0,0,1,.47.11c-.1,0-.07.14-.13.2a.83.83,0,0,1,.46.11c0,.1-.1.11-.13.2.25,0,.59,0,.41.31.12.07.39,0,.46.11-.08,0-.07.15-.12.2.17,0,.36,0,.46.1-.09,0-.06.15-.12.2.25,0,.59,0,.41.31.12.08.38,0,.46.11-.09,0-.06.15-.12.2.29,0,.57,0,.41.31a.86.86,0,0,1,.46.11c-.09,0-.06.15-.12.2a.82.82,0,0,1,.46.11c0,.09-.11.11-.13.2.21,0,.28.11.53,0,0,.1-.09.18-.12.27.25,0,.58,0,.41.31a.55.55,0,0,1,.45.11c-.08,0-.06.15-.12.2.24-.06.32.07.52,0,0,.13-.17.08-.12.26.35-.07.59.1.34.31a1.2,1.2,0,0,1,.53,0c0,.09-.09.13-.06.27a1,1,0,0,1,.46,0c0,.14-.18.14-.06.27l.4,0c0,.2-.11.2,0,.32.26-.07.53,0,.34.25.16,0,.25.09.46,0,0,.12-.06.15-.06.27.21.07.61,0,.41.3.25,0,.59,0,.41.31a.59.59,0,0,1,.46.11c-.09,0-.06.14-.13.21.25-.06.32.07.53,0,0,.09-.09.13-.05.27h.39c.12.1-.07.18.08.32l.39,0c0,.12-.07.14-.06.26.2.07.6,0,.4.31.25,0,.58,0,.41.3.31,0,.56,0,.4.31a1.22,1.22,0,0,1,.53,0c0,.09-.1.11-.12.2.24.06.67,0,.47.3.29,0,.56,0,.41.31l.39,0c0,.26.1.37.53.3,0,.13-.06.15-.05.26.24,0,.58,0,.4.31.25-.06.32.07.52,0a.17.17,0,0,0,0,.26l.39,0c0,.13-.07.15-.05.27.24-.06.28.1.52,0,0,.1-.09.13,0,.27l.45,0a.38.38,0,0,1-.05.27c.23.05.67,0,.47.3l.39,0c.15.13-.05.21.08.32l.45,0c0,.13-.06.15-.05.27.24-.06.31.06.52,0a.18.18,0,0,0,0,.26l.45,0a2.88,2.88,0,0,1-.12.27,1.27,1.27,0,0,1,.52,0c0,.18-.1.13,0,.26l.45,0c0,.13-.06.15,0,.27a1.16,1.16,0,0,1,.52,0c0,.09-.08.09,0,.2a1.2,1.2,0,0,0,.52,0c0,.09-.09.13,0,.27l.51,0c0,.12-.07.14-.05.26.24-.06.29.1.53,0,0,.08-.08.09-.06.2a1.3,1.3,0,0,0,.53,0c0,.1-.09.17-.12.26l.52,0c.12.12,0,.09,0,.26.24-.06.32.07.53,0,0,.08-.08.09-.06.19.21,0,.28.11.52,0a.18.18,0,0,0,0,.26l.45,0c0,.12-.06.14,0,.26l.51,0a.36.36,0,0,1-.05.26l.45,0a.18.18,0,0,1,0,.26c.26-.05.37,0,.59,0,0,.08-.08.09-.06.2.24-.06.28.1.52,0,0,.08-.08.09-.06.2.21,0,.28.1.53,0,0,.17-.1.12,0,.26l.52,0a.2.2,0,0,0,0,.26l.46,0c0,.18-.1.14,0,.26l.52,0a.19.19,0,0,0,0,.26l.46,0c-.12.42,1,.29.94.67.52-.13.45.36,1,.22a.18.18,0,0,1,0,.26l.58,0c0,.12-.07.14-.05.26l.59,0c0,.09-.08.1-.05.2.47-.06.51.34,1,.21a.35.35,0,0,1-.06.26l.59,0a.32.32,0,0,1-.06.2c.21,0,.33.1.59,0,0,.08-.08.09-.06.2l.59,0a.18.18,0,0,0,0,.27l.52,0c0,.08-.08.09-.06.2.59-.16.55.35,1.12.21,0,.08-.08.09-.05.2l.58,0c0,.08-.08.09-.06.2.67-.11.44.34,1.12.21,0,.09-.08.1-.06.2l.58,0a.29.29,0,0,1-.05.2l.59,0a.33.33,0,0,1-.06.19,1.36,1.36,0,0,1,.59,0,.31.31,0,0,1-.05.2c.58-.16.6.3,1.18.14,0,.08-.08.09-.06.2l.58,0a.27.27,0,0,1-.05.2l.65,0c0,.08-.08.1-.06.2l.59,0c0,.08-.08.09-.05.2,1,0,1.25.45,2.29.42,0,.08-.08.1-.05.19l.58,0a.29.29,0,0,1,0,.2c.93-.11,1.32.41,2.36.34a.33.33,0,0,1,0,.2c1.29,0,1.8.51,2.95.45,0,.08-.08.09-.06.19.27,0,.33-.11.59-.08,0,.1,0,.22.14.18,1.19,0,2.27.56,3.4.43,0,.11,0,.23.14.19.76-.16,1.48.38,2.29.16,0,.12-.09.09.07.12.63.14,2,.34,2.35,0-2.18-.07-3.88-.67-6-.84a.28.28,0,0,1,.05-.2c-.67.12-.57-.19-1.24-.07,0-.09.07-.11,0-.19-.67.06-1-.26-1.7-.19,0-.06,0-.13,0-.2-.75.11-.9-.3-1.71-.25a.35.35,0,0,1,.05-.2c-.8.12-.94-.29-1.77-.25a.29.29,0,0,1,.06-.2c-.58.16-.62-.27-1.18-.14a.28.28,0,0,1,.06-.19c-1.1.07-1.24-.51-2.3-.48,0-.09.08-.09.06-.2l-.58,0c0-.08.08-.09,0-.2-.58.16-.6-.29-1.18-.14,0-.08.08-.1.06-.2l-.59,0a.24.24,0,0,1,.05-.19c-.66.1-.43-.35-1.12-.22a.27.27,0,0,1,.05-.2c-1.3-.08-2-.86-3.24-1-.11-.5-1-.17-1.07-.67l-.52,0c0-.18.1-.14,0-.26l-.51,0a.32.32,0,0,1,0-.2c-.26.06-.33-.09-.58,0,0-.08.08-.09.05-.2-.74.09-.87-.5-1.59-.44a.36.36,0,0,1,.06-.2c-.25,0-.32-.11-.58,0,0-.09.08-.1.05-.2a1.11,1.11,0,0,1-.52,0,.27.27,0,0,1,.05-.2c-.27.07-.34-.08-.59,0,0-.08.08-.09.05-.2-.54.17-.44-.37-1-.21-.11-.12,0-.08,0-.26l-.45,0a.18.18,0,0,1,0-.27,1.42,1.42,0,0,1-.59,0c0-.08.08-.09.05-.2-.25,0-.65,0-.47-.24-.26.06-.34-.09-.59,0,0-.08.08-.1.06-.2-.24,0-.29-.1-.53,0,0-.08.08-.1.06-.2-.21,0-.28-.1-.52,0,.17-.31-.23-.25-.53-.24,0-.1.09-.17.12-.27l-.52,0c0-.08,0-.17,0-.26a1.25,1.25,0,0,1-.53,0c0-.09.08-.1.06-.2-.21,0-.28-.11-.52,0,.15-.29-.18-.26-.47-.24,0-.12.06-.15.05-.26l-.46,0c-.11-.12,0-.08,0-.26-.24.07-.31-.06-.53,0,.15-.28-.18-.26-.46-.24,0-.13.06-.15.05-.27l-.46,0c-.11-.12,0-.08,0-.26-.24.06-.31-.07-.52,0,0-.18.1-.14,0-.26l-.46,0c0-.13.07-.16.06-.27-.24.06-.29-.1-.53,0,0-.08.08-.09.06-.19a1.07,1.07,0,0,0-.52,0c0-.1.09-.17.12-.27a1.27,1.27,0,0,1-.53,0c.15-.28-.18-.25-.46-.24,0-.12.06-.15.06-.26-.25.06-.32-.07-.53,0,0-.09.08-.09.05-.2-.18,0-.64,0-.41-.31-.28,0-.65,0-.47-.3a1,1,0,0,1-.52,0c0-.08.08-.09.06-.2-.21-.07-.6,0-.4-.3-.25.06-.32-.07-.53,0,.3-.41-.64-.1-.35-.51-.21,0-.28-.1-.53,0,0-.1.09-.17.12-.27-.24.06-.31-.06-.52,0,0-.09.09-.13.05-.26-.26.06-.59,0-.4-.24-.2,0-.28-.1-.52,0,0-.1.09-.17.12-.27-.24.05-.29-.1-.52,0,0-.09.09-.13.05-.26-.4.08-.46-.11-.47-.3-.26.07-.51,0-.34-.25-.2,0-.28-.11-.52,0,0-.1.09-.16.12-.26a.89.89,0,0,1-.53-.11c.09,0,.07-.15.13-.21-.24.07-.31-.06-.52,0,0-.08.08-.12,0-.26-.21.05-.3,0-.46,0,.3-.4-.64-.1-.35-.5-.2-.08-.6,0-.4-.31a.83.83,0,0,1-.46-.11c0-.09.1-.12.12-.2a.86.86,0,0,1-.52-.1c.09,0,.06-.15.12-.2a.87.87,0,0,1-.53-.1c.09,0,.07-.15.13-.2a.68.68,0,0,1-.53-.11c.08,0,.06-.15.12-.2-.72,0-.6-.59-1.27-.66,0-.09.09-.13.05-.27s-.36,0-.46,0,.09-.12.06-.27c-.59.12-.16-.45-.8-.29,0-.13.07-.15.06-.27a2.12,2.12,0,0,1-.46-.11c0-.09.1-.12.13-.2-.18-.05-.65,0-.41-.31a2.45,2.45,0,0,1-.46-.11c0-.09.1-.11.12-.2-.22,0-.62,0-.41-.31-.12-.07-.38,0-.46-.1s.1-.11.12-.2c-.16,0-.25-.1-.46-.05,0-.16.11-.2,0-.32-.26.09-.43-.07-.27-.25-.55,0-.3-.4-.8-.42,0-.18.1-.13,0-.26a.56.56,0,0,1-.39,0c0-.13.19-.13.05-.26-.74-.15-.77-.81-1.48-1a.19.19,0,0,0,.12-.2,1,1,0,0,1-.46,0c0-.13.18-.09.12-.26-.2,0-.39,0-.46-.11.09,0,.07-.15.13-.2-.23.06-.26-.08-.46,0,0-.09.09-.13.06-.27-.19,0-.34,0-.4-.11.09,0,.07-.14.13-.2a.57.57,0,0,1-.46-.11c.08,0,.06-.14.12-.2a.58.58,0,0,1-.46-.11c.09,0,.07-.14.13-.2a.6.6,0,0,1-.46-.11c.09,0,.06-.15.12-.2a.87.87,0,0,1-.46-.11c.09,0,.07-.15.12-.2a1,1,0,0,1-.46-.11c.1,0,.07-.14.13-.2-.34,0-.42-.16-.41-.37-.3.05-.38,0-.27-.25-.5,0-.23-.41-.74-.42.39-.34-.5-.17-.21-.58-.34.06-.5-.14-.28-.32a.56.56,0,0,1-.46-.11c.09,0,.07-.14.12-.2-.22.07-.25-.08-.46,0,0-.13.17-.09.12-.27a.53.53,0,0,1-.4-.11c0-.09.11-.12.12-.2a.82.82,0,0,1-.46-.11c.09,0,.06-.15.12-.2-.12-.05-.32,0-.4-.11s.1-.11.12-.2a1,1,0,0,0-.45,0c0-.1.09-.17.11-.26-.65-.25-.7-.79-1.29-1.12,0-.09.11-.11.12-.2-.2,0-.3,0-.45,0s.17-.09.12-.27c-.19,0-.33,0-.4-.11.09,0,.06-.15.12-.2-.29,0-.47-.06-.34-.31a.56.56,0,0,1-.4-.11.18.18,0,0,0,.12-.2.51.51,0,0,1-.4-.12c.09,0,.07-.14.12-.2-.12-.06-.32,0-.4-.11s.11-.11.12-.2a.54.54,0,0,1-.39-.12c.24-.31-.49-.14-.22-.51a1,1,0,0,1-.61-.69c-.27.1-.34-.12-.21-.25-.29-.07-.48-.07-.28-.38-.19.06-.23-.05-.39,0,.3-.26-.13-.22-.28-.38a.17.17,0,0,0,.12-.2c-.19,0-.33,0-.4-.11a.18.18,0,0,0,.12-.2c-.19,0-.33,0-.4-.12a.17.17,0,0,0,.12-.2.56.56,0,0,1-.4-.11.18.18,0,0,0,.13-.2c-.48,0-.19-.37-.61-.43,0-.09.1-.11.13-.2-.19,0-.33,0-.4-.12.09,0,.07-.15.13-.2a.51.51,0,0,1-.4-.12c.08,0,.13-.08.12-.2a.52.52,0,0,1-.4-.12.17.17,0,0,0,.12-.2.52.52,0,0,1-.39-.11.37.37,0,0,0,.18-.21c-.55.09-.21-.39-.67-.42A.19.19,0,0,0,144,422a.51.51,0,0,1-.4-.11.33.33,0,0,0,.18-.2c-.19,0-.34,0-.4-.12s.07-.15.12-.2c-.19,0-.33,0-.4-.12a.16.16,0,0,0,.12-.2c-.27,0-.38-.08-.27-.31-.18.06-.17-.08-.33,0,.37-.31-.43-.19-.16-.58-.42.1-.34-.35-.48-.57a.18.18,0,0,1-.13.2c0-.58-.32-.31-.36-.83a.42.42,0,0,1-.12.2c0-.58-.32-.31-.36-.83,0,.07-.11.16-.13.07,0-.46-.11-.3-.27-.31s.06-.38-.09-.39-.09.16-.12.07c0-.49-.31-.27-.36-.76a.5.5,0,0,1-.13.2.66.66,0,0,0-.15-.52c0,.08,0,.16-.13.14s.06-.43-.08-.45-.1.16-.12.07c0-.48-.33-.26-.37-.77,0,.08-.07.11-.12.14,0-.41-.15-.43-.28-.38,0-.12.06-.43-.08-.45s-.1.16-.13.08c0-.46-.3-.3-.36-.77,0,.08-.07.11-.13.13,0-.52-.3-.34-.36-.83,0,.07-.1.16-.13.07,0-.5-.32-.31-.37-.83a.18.18,0,0,1-.12.2c0-.27-.06-.7-.21-.39-.05-.17,0-.4-.15-.51,0,.06-.1.16-.13.06s0-.26,0-.39c-.34.2-.22-.56-.48-.3,0-.15.07-.47-.09-.52s-.1.16-.13.07c-.06-.44-.32-.32-.36-.83a.44.44,0,0,1-.13.19c0-.55-.28-.45-.36-1a.46.46,0,0,1-.12.2c0-.63-.32-.41-.38-1a.17.17,0,0,1-.12.2c0-.17,0-.34,0-.52-.33.18-.19-.66-.47-.37,0-.16.06-.48-.09-.52a.43.43,0,0,1-.12.2c0-.63-.34-.39-.37-1,0,.08-.09.16-.12.07s0-.31,0-.45c-.31.22-.18-.31-.34-.45a.19.19,0,0,1-.13.2c0-.18.05-.52-.09-.59s-.1.17-.13.07c0-.55-.33-.35-.37-.89,0,.07-.1.16-.12.07s0-.3,0-.46c-.35.2-.21-.65-.48-.37,0-.15.06-.48-.09-.52s-.1.16-.13.07c0-.53-.29-.39-.36-.89,0,.07-.1.16-.13.08s.06-.53-.09-.59a.18.18,0,0,1-.12.2c0-.63-.3-.49-.37-1,0,.08-.1.17-.13.08s.06-.48-.09-.52-.1.16-.12.07c0-.52-.29-.44-.37-1,0,.08,0,.16-.12.14,0-.18.06-.52-.09-.58s-.11.16-.13.07,0-.3,0-.45c-.36.32-.16-.8-.42-.37-.09-.3-.06-.68-.28-.51-.05-.17.06-.52-.09-.58a.2.2,0,0,1-.12.2c0-.2,0-.39,0-.58-.39,0-.38-1-.69-.89,0-.17.07-.52-.09-.59s-.1.17-.13.08c-.25-1-.73-1.43-1-2.43,0,.07-.1.16-.13.06s.06-.52-.09-.58-.11.16-.12.07.06-.52-.1-.58-.1.16-.13.07c0-.47-.28-.59-.31-1,0,.06-.11.08-.13,0a5.8,5.8,0,0,0-.23-.84c0-.06-.21-.13-.2-.12s0-.27,0-.39-.17-.07-.2-.13c-.2-.39-.07-.59-.24-1,0,0-.19,0-.2-.06a3.08,3.08,0,0,1-.24-1c-.3.23-.17-.27-.22-.51-.33.23-.16-.32-.22-.58-.37.28-.08-.48-.29-.57,0,.07-.09.16-.12.07s.06-.52-.09-.58-.1.16-.13.07c-.09-1-.52-1.29-.68-2.25,0,.07-.1.16-.13.08,0-.8-.38-1-.47-1.74,0,.07-.1.16-.12.07-.05-.79-.37-1-.47-1.74,0,.07-.1.16-.13.07a5.82,5.82,0,0,0-.25-1.23c0,.07-.1.16-.13.07-.09-1.24-.64-1.75-.72-2.91-.1-.13-.15.1-.19-.05a6.8,6.8,0,0,0-.7-2.38c-.24-1.78-.89-2.94-1.07-5-.26-.19-.19-1.16-.44-1.35,0-.24.09-.32,0-.59a5.38,5.38,0,0,1-.29-.7,11.42,11.42,0,0,0-.12-1.23s-.27-.44-.09-.71c-.35-.4-.18-1.6-.49-2.07.11-.86-.3-1.24-.15-2,0-.12-.11,0-.14-.06-.06-1.84-.47-3.41-.45-5.59a9.8,9.8,0,0,1-.16-2.27c-.11-1.29-.1-3.29-.07-4.49,0-1.55.12-4.6.3-6.41.06-.57.36-1.44.13-1.44.3-1.33.49-2.92.66-4.27.35-1,.34-2.16.71-3,.16-1.45.66-2.44.81-3.69a75.68,75.68,0,0,1,5.23-13,85.24,85.24,0,0,1,5-8.44,68.17,68.17,0,0,1,14-15.3A84.15,84.15,0,0,1,161,281a86,86,0,0,1,35.14-7.39,96.55,96.55,0,0,1,15.25,1.4c37.88,6.11,68.49,34.8,80,69.11a82.47,82.47,0,0,1,4,17,84.31,84.31,0,0,1-1.7,29.16c-6.16,25.74-22.19,45.86-47.44,54a78.81,78.81,0,0,1-28.07,3.61,11.73,11.73,0,0,0-2.29-.15c0-.12.08-.1-.07-.13-1.54-.3-3.68-.15-4.92-.63a21.88,21.88,0,0,1-3.75-.67l-.46,0s.06-.14.06-.13a12,12,0,0,0-2.1-.36c-.28-.41-1.43-.2-1.52-.58l-.52,0a11.66,11.66,0,0,0-2.58-.8c.2-.27-.51,0-.47-.3-.23,0-.63,0-.46-.17-.38,0-1-.12-1-.34-1.9-.41-3.13-1.3-4.83-1.74a.3.3,0,0,1,.05-.2c-1.24-.21-1.76-.91-2.86-1.11,0-.08.08-.09.06-.19-1.18-.24-1.57-.92-2.73-1.19,0-.08.08-.09.06-.19-.46.07-.45-.37-.93-.28a.29.29,0,0,1,.06-.2c-1.11-.32-1.53-1-2.61-1.32a.35.35,0,0,1,.05-.2c-.62,0-.71-.58-1.33-.59,0-.08.08-.1.06-.2-.66-.06-.6-.53-1.27-.59a.3.3,0,0,1,.05-.21c-.91-.27-1.18-.91-2.08-1.2,0-.09.08-.09.05-.2-.34-.06-.77-.32-.74-.56a3.42,3.42,0,0,1-1.21-.72s.08-.11.06-.14c-.6,0-.55-.58-1.2-.66.28-.32-.57-.17-.28-.51-.25.05-.26-.13-.47-.11,0-.08.08-.09.06-.19a6.68,6.68,0,0,1-1.48-1s.08-.12.06-.13-.54-.08-.34-.31c-.24.06-.26-.13-.46-.1,0-.4-.65-.42-.62-.82-.22,0-.48,0-.34-.31-.26,0-.46-.07-.34-.31a.79.79,0,0,1-.68-.63.81.81,0,0,1-.68-.62c-1-.59-1.42-1.45-2.31-2.05-.24-.57-1.06-.86-1.17-1.45-.19,0-.21-.13-.4-.11-.26-.78-1.46-1.31-1.72-2.07-.19,0-.21-.14-.4-.12.25-.33-.44-.2-.22-.51-.58-.22-.54-.79-1.21-1.05-.14-.61-.91-.9-1-1.52-.78-.43-.92-1.24-1.64-1.75a3.52,3.52,0,0,0-1-1.25c-.09-.58-.84-.94-.92-1.53-.16,0-.24-.11-.33-.18a.19.19,0,0,0,.12-.13c-.65-.34-.73-1.13-1.3-1.51a.19.19,0,0,0,.12-.13c-1-1.06-1.38-2.12-2.29-3.15.07,0,.09-.08.12-.14-.34,0-.36-.51-.48-.7-.26-.39-.48-.58-.63-.82,0,0,.08-.09.06-.13-.17-.3-.55-.63-.69-.89-.24-.43-.53-1.14-.86-1.72-.17-.09-.42-1-.63-1-.05-.25-.23-.82-.35-.57,0-.34-.24-.93-.36-.71-.06-.67-.5-1.06-.72-1.53-.14-.31-.32-1.22-.5-1a5.93,5.93,0,0,0-.45-1.22c-.09-.24-.33-.74-.51-1.15a61.37,61.37,0,0,1-3.7-11.31c-.19,0-.19-.61-.24-1-.23-.13-.25-1-.33-1.48,0-.12-.11,0-.13-.06a70.84,70.84,0,0,1-1.18-16,67.11,67.11,0,0,1,3.67-20,57.86,57.86,0,0,1,37.63-36.06c6.44-1.94,14.31-2.66,22.05-2.55a50,50,0,0,1,8.18.61,40.62,40.62,0,0,1,4.89,1.28c10.1,3.19,20.63,9.14,27.64,16a74.37,74.37,0,0,1,8.65,9.72A61.83,61.83,0,0,1,267,359.68a72.1,72.1,0,0,1,1.61,15.58,59.19,59.19,0,0,1-1.66,12.34c-3.54,15.6-11.52,28.36-25.44,34.46a43.15,43.15,0,0,1-11.19,3.44,67.77,67.77,0,0,1-22.33-.7c.2-.22-.28-.08-.46-.11-3.2-.82-6.32-1.73-9.32-2.78.13-.06-.27-.25-.41-.31-1-.35-2-.79-2.92-1.1.12-.23-.54-.26-.73-.36s-.25-.31-.41-.37a17.63,17.63,0,0,1-2-.89s.07-.12.06-.13c-.25-.18-.91-.27-1.2-.53,0,0,.09-.13.06-.13a9.63,9.63,0,0,0-1.2-.53,5.82,5.82,0,0,0-1.75-1.16c0-.06,0-.13,0-.19-.48,0-.23-.31-.66-.29-.09-.4-1-.66-1.41-1,0,0,0-.17,0-.2-.29-.22-.72-.36-1-.61,0,0,0-.16,0-.19-.37-.36-1-.64-1.29-1.12,0-.06-.27,0-.33-.11s-.29-.58-.61-.56c-.28-.59-1.19-1.08-1.51-1.69a43.38,43.38,0,0,1-10.76-18.82,57.52,57.52,0,0,1-2-10.27c-.88-10.25,1.6-18.63,6.65-24.56a26.5,26.5,0,0,1,8.13-6.43,35.28,35.28,0,0,1,7.47-2,35.17,35.17,0,0,1,3.88-.63c7.8-.77,15.36.34,21.07,3.23,7.18,3.63,12.31,9.57,15.71,17.28a33,33,0,0,1,1.79,7.94,37.89,37.89,0,0,1,.48,6.18c-.12,8.59-3.77,14-11.4,14.79a29.07,29.07,0,0,1-3.91,0c-5.73-.09-9.16-3.74-10.62-8.52a7.48,7.48,0,0,1,.95-6.49c2.29-3,7.42-3.25,8.63-6.78.76-2.21-1.21-3.79-2.17-4.85a33.9,33.9,0,0,0-10-2c-10.17-.24-16.59,6.71-16,17.21.58,10.14,7.13,16,14.27,20.16a5.38,5.38,0,0,0,2.2,1.07,36.89,36.89,0,0,0,15.2,1.53c11.86-1.5,19-9.54,22.42-20.44a25.86,25.86,0,0,0,1-6.24,75.64,75.64,0,0,0-.53-14.71c-3.23-20.27-16.26-32.19-37.3-33.53-6.24-.4-13.7,0-19.23,1.51-8.13,2.23-14.11,6.15-18.65,11.66-4.85,5.9-7.17,13.84-7.91,22.66a80.69,80.69,0,0,0,.07,13.1,67,67,0,0,0,2.31,10.79,58,58,0,0,0,5.19,11.11,2.42,2.42,0,0,1,.37.83c.16,0,.16.14.27.18a62.53,62.53,0,0,0,7.26,9.33c.53.19.66.82,1.23,1-.05.08.24.47.22.44a7.06,7.06,0,0,0,.67.49,4.6,4.6,0,0,1,.35.44c.05.05.22,0,.27.05s0,.2.07.26.21,0,.26.05,0,.21.07.26.48.2.61.37.31.57.67.56a7.16,7.16,0,0,0,2,1.66c.33.59,1.37,1,1.77,1.55.18-.06.17.08.33.05.49.7,1.26.78,1.82,1.48.37.07.74.28.8.49.2-.06.2.1.39,0,0,.09-.07.12,0,.2.63.11.9.6,1.54.71a19.38,19.38,0,0,0,4.14,2.1c-.2.2.5.22.73.36a3.14,3.14,0,0,0,1.4.59c0,.28.87.37,1.26.53,0,0,0,.17.07.2a11.43,11.43,0,0,0,1.72.51c-.15.18.27.15.46.17,0,.34,1.38.41,1.8.65,0,0-.07.13-.07.13s.28-.06.4,0,.13.19.14.19.32-.05.46,0c.59.14,1.16.64,1.85.56a2.82,2.82,0,0,0,.94.42,31.73,31.73,0,0,0,3.35.7c0,.12-.08.09.07.12a39.78,39.78,0,0,0,3.95.73c2.12.36,4.19.34,6.42.63.09,0,.1.05.2.06a71.68,71.68,0,0,0,12.68-.63c10.26-1.51,19.48-6,27.22-11.07a23.93,23.93,0,0,0,2.72-1.88,53.28,53.28,0,0,0,6.45-7.33,65.57,65.57,0,0,0,13.29-51,79.14,79.14,0,0,0-4.81-17.13A104,104,0,0,0,261,319.85a44.74,44.74,0,0,0-2.9-3.58,80.71,80.71,0,0,0-18.42-13.78,78.17,78.17,0,0,0-31.17-10.33A75,75,0,0,0,176.3,296a76.45,76.45,0,0,0-16,8,58.28,58.28,0,0,0-12.94,10.82A68.18,68.18,0,0,0,132.92,342c-.16.07-.07.39-.24.47-.09,1.08-.69,2.35-.69,3.48a67.06,67.06,0,0,0-1.2,19.87s.05-.08.07,0c0,2.87.62,5.09,1,8.49.24.19.25,1.17.34,1.75.4,1.52.77,2.91,1,4.45.8,2,1.31,5,2.19,6.75.07.36.14,1.17.3.9.36,1.06.53,1.92,1,3,.1.22.23.66.37,1a3.67,3.67,0,0,0,.28.37,3.84,3.84,0,0,0,.08.52,2.75,2.75,0,0,1,.29.45c0,.15,0,.28,0,.39s.15,0,.2.12,0,.18.08.39.23.58.37.89.16.43.3.84c0,.14.33.4.35.44a.81.81,0,0,0,.22.45c.06.14,0,.21.08.45a3,3,0,0,1,.21.45,1.07,1.07,0,0,0,.28.38c.1.22.16,1.07.35.76a12.45,12.45,0,0,0,.95,2.18s0-.14.06-.13c0,.24.08.67.21.38a8.76,8.76,0,0,0,.95,2.11s0-.15.06-.14c.27,1,.83,1.34,1.08,2.3.11,0,.16-.11.2,0,0,.36.41.73.43.77s.08.56.22.7.16,0,.2.06,0,.24,0,.33.16,0,.2.05,0,.21.08.32c.19.3.49.8.64,1.08s.19.28.34.32-.06.38.08.38c.19-.29.07.32.21.32a.06.06,0,0,1,.13,0c0,.43.4.52.5,1,0-.07.1-.16.13-.07s0,.22,0,.33c.36.06.3.58.62.69a9.93,9.93,0,0,0,1.47,2.22c-.08,0-.1.08-.13.14.44,0,.2.41.61.49-.39.2.47.2.08.45.1.08.27.07.34.18-.22.27.4.17.14.52.26.15.57.39.43.63a1.4,1.4,0,0,1,.61.49s-.1.14-.06.2.23.05.27.12,0,.1.21.32.17.46.22.51.5.07.22.32a1.41,1.41,0,0,1,.76,1c.29.11.63.37.49.63a.61.61,0,0,1,.4.18c-.13.19.27.44.49.63-.23.29.53.23.16.51.33,0,.29.2.34.32s.33.18.33.18-.15.11-.13.14c.15.19.46.3.61.49s-.06.19-.05.2.26,0,.33.18,0,.27.34.25c-.25.39.56.43.43.89.29,0,.49.13.27.32.24,0,.51.11.28.31a.76.76,0,0,1,.62.69c.27,0,.38.09.27.31.45,0,.25.41.67.49-.07,0-.09.08-.12.13.77.37.9,1.07,1.63,1.49-.07,0-.1.08-.12.13.57.16.54.63,1,.81,0,.08-.08.09-.06.2.25,0,.52.1.27.31.61.12.52.63,1.08.8-.25.29.51.15.22.51.82.3.93,1,1.76,1.35,0,.14-.19.14-.05.27.53.13.48.57,1,.74a.26.26,0,0,1-.05.19c.74.23.76.84,1.48,1.11-.07,0-.09.07-.12.14,1.11.51,1.5,1.46,2.62,2-.19.34.51.23.35.56.2-.05.2.1.4,0,0,.32.32.51.74.62.07.55,1,.58,1,1.12.25,0,.56,0,.41.32.25,0,.55,0,.41.3.21,0,.46,0,.4.31.21,0,.24.11.46,0,0,.09-.1.11-.12.2.17,0,.59.07.4.31.31-.13.48.35.41.31.15.1.58,0,.41.31.25,0,.58,0,.41.31.22-.07.26.08.46,0,0,.44.77.38.75.82.22-.07.26.09.45,0,0,.45.82.35.77.81.4,0,.85.28.87.54.16,0,.24.1.45,0,.16.51.8.36.82.81.28-.19.51.3.4.25.18.1.61,0,.47.3.22,0,.58,0,.4.24.21.09.67,0,.47.3,1.14.32,1.59,1.05,2.74,1.38,0,.08-.08.09-.06.2.24-.06.28.1.53,0,0,.08-.08.09-.06.2.71.07.75.56,1.4.59,0,.09-.08.09-.05.19.24,0,.65,0,.47.24.21,0,.66,0,.47.24.21,0,.28.1.53,0a.32.32,0,0,1-.06.2c.22,0,.28.1.53,0a.32.32,0,0,1-.06.2c.21,0,.28.1.53,0a.32.32,0,0,1-.06.2c.21,0,.28.1.52,0a.27.27,0,0,1-.05.2c.22,0,.33.1.59,0,0,.24.51.47.93.48,0,.08-.08.09-.05.19.22,0,.66,0,.47.24,1.06.15,1.41.77,2.52.93a.3.3,0,0,1-.06.2c.54-.14.52.35,1.06.21a.33.33,0,0,1-.06.2c.67,0,.9.47,1.58.45,0,.09-.08.09-.05.2.55-.15.53.33,1,.22,0,.06,0,.13,0,.19,1.21.17,2.16.93,3.64,1.14a1.56,1.56,0,0,0,0,.2l.52,0a.27.27,0,0,1-.06.2.6.6,0,0,1,.66.17c.39.08.83.12.93.35.55-.14.57.28,1.12.14,0,.07,0,.13,0,.2.19,0,.61-.17.53.18,1,0,1.22.46,2.17.42,0,.07,0,.13,0,.2a10.92,10.92,0,0,1,2.31.55c1.07.24,2.23.55,3.36.76.32.06.73,0,1,.09a13.13,13.13,0,0,0,1.26.39c.67.1,1.42.13,2.09.23.35.05,1.28.33,1.33.33,2.08.27,4,.48,5.9.71a40,40,0,0,0,5.1.22,87.39,87.39,0,0,0,10.59-.73,90.66,90.66,0,0,0,42.18-17.61,73.61,73.61,0,0,0,11.06-10.4,85.22,85.22,0,0,0,17.76-34.25c.23-.89.35-1.64.47-2.43,1.94-12.24,1.3-26.8-1-39.14a125.28,125.28,0,0,0-6.67-23.63c-13.8-34.77-42.74-59.29-79.07-67.71a108.72,108.72,0,0,0-24.06-3,96,96,0,0,0-37,7,88.91,88.91,0,0,0-27.69,17.87,73.94,73.94,0,0,0-10.61,11.89,80.77,80.77,0,0,0-11.74,27.52c-.32,2-.7,3.89-1,6.11-.15,1.05-.51,3.83-.66,5.58,0,.28.07.68,0,1,0,.58-.28,1.51-.06,1.5a83.63,83.63,0,0,0,0,10.75c0,.12.1,0,.13.07,0,2.62.48,4.39.55,6.49.28-.09,0,.66.16.77a39.38,39.38,0,0,0,.71,4.21c.28,1.3.75,3.2,1,4.72,0-.08.07-.11.12-.14a1,1,0,0,0,0,.78.21.21,0,0,1,.13-.13,1,1,0,0,0,0,.78c0-.07.11-.16.13-.07.11,1.21.55,1.92.67,3.23.11,0,.16-.1.19,0,.14,1.5.72,2.22.88,3.68.1.13.16-.09.2.06,0,.88.44.9.4,1.81.11,0,.16-.11.19,0,0,.77.38,1.14.47,1.8,0-.06.11-.08.13,0,.07,1,.57,1.27.62,2.32.38-.28.08.48.29.58.24-.27,0,.54.22.57,0-.07.1-.16.13-.07s-.06.57.1.65c0-.07.1-.16.13-.07s0,.39,0,.58c.38-.28.07.48.29.58.25-.27,0,.54.22.58,0-.07.1-.16.13-.07,0,.65.27.55.31,1.16,0-.07.1-.16.13-.07s0,.39,0,.58c.38-.27.08.48.29.58,0-.07.1-.16.13-.07s-.06.56.09.65c0-.07.1-.16.12-.07s-.05.52.1.59.1-.16.13-.08c.06.8.47.81.53,1.6.38-.27.08.48.29.58,0-.08.1-.17.13-.07s-.06.52.09.58.1-.16.12-.07c0,.55.36.61.38,1.09,0-.07.1-.16.13-.07s-.07.52.09.59.1-.16.12-.07-.05.52.1.58.1-.17.12-.07c0,.6.39.34.31,1,.37-.27.07.47.28.57,0-.07.1-.16.13-.07,0,.56.3.49.37,1,0-.07.1-.16.12-.07,0,.62.32.46.37,1,0-.07.1-.16.13-.07s-.06.52.09.58.1-.16.13-.07c.19.87.62,1.08.87,1.92,0-.07.1-.16.12-.07s-.05.51.09.58c.17-.37.15.36.28.44,0-.07.1-.16.13-.07s-.06.47.09.51.1-.16.13-.06c0,.44.14.52.28.45,0,.17-.06.51.09.58s.1-.16.12-.07c.05.51.33.39.37,1,0-.08.11-.16.12-.07,0,.54.35.38.38,1,0-.07.09-.16.12-.08.05.52.34.39.37,1,0-.07.1-.16.13-.07,0,.44.16.42.28.38,0,.15-.06.48.09.52.17-.37.14.36.28.44,0-.07.1-.16.12-.06s-.06.47.1.51c.15-.37.16.28.27.38,0-.08.1-.16.13-.07s-.07.48.08.52c.17-.38.16.35.29.45a.38.38,0,0,1,.12-.2c0,.18,0,.35,0,.51.29-.1.23.28.35.51,0-.08.1-.16.13-.07s0,.26,0,.39.18-.19.26,0-.06.47.09.52c.16-.38.1.34.28.38,0-.07.09-.16.12-.07s-.06.48.09.52c.16-.37.15.29.27.38a.49.49,0,0,1,.13-.2c0,.2,0,.39,0,.59.41-.28.18.6.47.31,0,.54.35.33.37.89,0-.08.06-.11.12-.14a.88.88,0,0,0,.16.51c0-.06.1-.15.13-.07s0,.27,0,.39c.32-.24.18.3.34.44,0-.08.07-.1.13-.14a.84.84,0,0,0,.16.51.41.41,0,0,1,.12-.19c0,.17-.06.52.09.58.16-.36.16.29.28.38,0-.08.07-.11.13-.14,0,.44.16.42.28.38,0,.15-.06.48.09.52a.45.45,0,0,1,.12-.2c0,.38.13.54.28.44,0,.36.05.54.28.31,0,.16-.07.48.08.52s.07-.11.13-.13c0,.36.13.45.28.38,0,.13-.06.43.09.45,0-.14.09-.14.19-.07s-.05.43.09.45a.44.44,0,0,1,.12-.2.9.9,0,0,0,.16.52c0-.08.1-.17.13-.08s0,.26,0,.39c.32-.24.2.24.34.38,0-.07.07-.11.13-.14,0,.43.16.42.27.37.06.14-.06.43.09.45,0-.14.09-.14.19-.07s-.06.44.09.45a.18.18,0,0,1,.12-.2.63.63,0,0,0,.16.52.18.18,0,0,1,.12-.2c.05.18-.06.52.09.59a.18.18,0,0,1,.13-.2c.1.11,0,.43.15.51a.19.19,0,0,1,.12-.2c0,.13,0,.26,0,.39s.2-.18.26,0-.07.43.09.46.07-.1.12-.14a.88.88,0,0,0,.16.45.42.42,0,0,1,.12-.2c0,.36,0,.64.28.38,0,.13-.06.44.09.45s.07-.1.12-.13c0,.4.15.43.28.38,0,.13,0,.27,0,.39s.13-.1.19-.14,0,.38.15.45.1-.16.13-.07c0,.48.33.26.36.76a.18.18,0,0,1,.13-.2c0,.24.12.27.09.52a.54.54,0,0,1,.4.11c-.09,0-.07.15-.12.2a.58.58,0,0,1,.4.11.18.18,0,0,0-.13.2c.37-.07.34.13.22.32a.51.51,0,0,1,.39,0c0,.14-.19.14,0,.27.47-.07.17.16.27.31.42-.07.09.39.53.37,0,.1-.1.11-.12.2.25,0,.52.11.28.32.11.06.32,0,.39.12-.09,0-.07.14-.12.2.15,0,.19.1.39,0,0,.13-.18.09-.12.27.15,0,.19.1.4,0,0,.13-.18.09-.12.27s.32,0,.39.11a.34.34,0,0,0-.19.21.89.89,0,0,1,.46.11.32.32,0,0,0-.18.21.5.5,0,0,1,.39.12c0,.09-.1.11-.12.2a.55.55,0,0,1,.4.11c0,.1-.1.12-.12.2a.53.53,0,0,1,.39.11c0,.09-.1.12-.12.2a.55.55,0,0,1,.4.11c0,.1-.1.12-.12.2.18,0,.33,0,.39.11s-.1.12-.12.2c.34-.06.49.14.27.32a.6.6,0,0,1,.46.1.33.33,0,0,0-.19.21.57.57,0,0,1,.46.11.17.17,0,0,0-.12.2.55.55,0,0,1,.39.11.18.18,0,0,0-.12.2.54.54,0,0,1,.4.11c-.09,0-.07.15-.12.2a.51.51,0,0,1,.39.11c0,.09-.1.11-.13.2a.85.85,0,0,1,.46.11A.36.36,0,0,0,147.87,429.32Zm-68.58-152c.89,0,1.82-1.16,2.33-1.92a17.45,17.45,0,0,0,1.49-2.75c2.54-5.58,3.73-13.88,3.06-21.57-.69-8-1.41-15.51-3.52-21.61a16.45,16.45,0,0,0-2-4.37c-.23,1.67-.45,3.35-.65,5a2.41,2.41,0,0,1,.28.58,38.55,38.55,0,0,1,2.64,9.62c1.38,8.52,1.71,19.39-1.3,26.19-.5,1.12-1.47,3.45-2.67,3.41-.62,0-1.05-.73-1.35-1.46q0,3.36,0,6.75C78,276.27,78.49,277.31,79.29,277.34ZM392.84,412.16l.08-.11,0,0A.14.14,0,0,0,392.84,412.16ZM219.9,481.31c0,.17.78.21.78,0-.62.16-.69-.29-1.31-.14a.29.29,0,0,1,0-.2l-.65,0c0-.09,0-.17,0-.26l-.65,0a.36.36,0,0,1,.06-.2l-.72,0c0-.08.08-.09.06-.2l-.65,0a.39.39,0,0,1,.05-.26c-.62.16-.68-.3-1.31-.14,0-.12.07-.15.05-.26-.62.15-.69-.3-1.31-.14,0-.13.07-.15.06-.27-.61.17-.66-.28-1.24-.13a1.83,1.83,0,0,1,0-.26l-.65,0c0-.11.07-.14.05-.26l-.65,0c0-.13.07-.15.06-.27a3.38,3.38,0,0,0-1.54.53c1.29.4,2.51.84,3.83,1.26l.86.29,2.52.73A7,7,0,0,0,219.9,481.31Zm-140-230.06a31.56,31.56,0,0,0-1.12-8.73q-.73,8.89-1,18C79.62,258.73,79.86,254.93,79.87,251.25ZM307.12,478.69l.07,0a1.38,1.38,0,0,0-.37-.22C306.78,478.58,307,478.66,307.12,478.69Zm-58.5,7.52s.06-.14.06-.14c-1.22-.3-2.1-.38-3.23-.64-.09,0-.11-.16-.2-.18-1.54-.37-3.12-.65-4.68-1-.06,0-.14-.17-.2-.18s-.32.05-.46,0-.08-.17-.13-.19-.34.06-.46,0-.13-.19-.14-.18c-1.06-.27-2.19-.49-3.29-.71v-.19c-1,0-1.6-.52-2.64-.54.25-.38-.69.05-.6-.36-1.26-.05-2-.65-3.29-.7,0-.09.08-.11,0-.2-1.78-.19-2.72-.88-4.48-1a.31.31,0,0,1,.06-.2c-.22-.05-.72.2-.66-.16l-.59,0c0-.36-.81-.08-.67-.37-.79.05-1.14-.39-1.91-.37,0-.06,0-.13,0-.19-.61.16-.69-.25-1.24-.14a1.84,1.84,0,0,1,0-.19c-.63.16-.69-.29-1.31-.14,0-.08.08-.09.05-.19-1.24,0-1.92-.63-3.16-.65a.31.31,0,0,1,.06-.2c-.62.15-.68-.29-1.31-.13,0-.08.08-.1.05-.2-.84.11-1.07-.41-1.91-.3a.26.26,0,0,1,.06-.2c-.84.12-1.08-.42-1.91-.31,0-.08.08-.09.05-.2l-.65,0a.28.28,0,0,1,.06-.2c-.83.12-1.08-.42-1.91-.31,0-.08.08-.09.06-.2l-.65,0c0-.08.08-.09.05-.2l-.65,0c-.07-.12.18-.23,0-.27-.06.16-.41,0-.58.09a.36.36,0,0,1,.05-.26,2.25,2.25,0,0,1-.65.09.37.37,0,0,1,.05-.26c-.29,0-.38.11-.64.09a.34.34,0,0,1,.05-.27c-.23,0-.53,0-.65.1,0-.09,0-.17,0-.26-1,0-1.4-.51-2.37-.48a.39.39,0,0,1,.05-.27,2.28,2.28,0,0,0-.65.1.41.41,0,0,1,0-.27c-.22,0-.61.1-.65,0a.39.39,0,0,1,.06-.19l-.65,0c0-.13.06-.15.05-.27a1.71,1.71,0,0,1-.65.09c0-.12.06-.14.05-.26a2.31,2.31,0,0,0-.64.09c0-.13.06-.15,0-.26l-.58,0a.35.35,0,0,1,0-.27,2.62,2.62,0,0,0-.65.1.4.4,0,0,1,0-.26l-.64,0c0-.13.07-.15.05-.27a1.64,1.64,0,0,0-.65.1c0-.09.09-.13,0-.26l-.58,0a.39.39,0,0,1,.05-.27l-.65,0c0-.09.09-.13.06-.26l-.59,0a.39.39,0,0,1,.05-.27c-.28,0-.36.13-.65.1,0-.16.11-.15.05-.33a1.53,1.53,0,0,0-.58.09c-.07-.18.08-.17,0-.32a1.63,1.63,0,0,0-.65.1c.06-.09.06-.24.12-.33l-.65,0c0-.09.09-.13.06-.26l-.59,0c0-.16.11-.15,0-.33-.75.08-.9.72-1.32,1.1,2.7,1.32,5.37,2.68,8.25,3.8.49-.24.6-.82,1.4-.78,0,.16-.11.15-.05.33l.59,0a.35.35,0,0,1-.06.26l.65,0c0,.13-.06.15-.05.27l.65,0c0,.09-.08.13-.05.26l.65,0c0,.09-.08.13-.06.27l.59,0c0,.1,0,.24.08.26.06-.15.4,0,.58-.09,0,.08-.09.13-.05.27l.59,0c0,.08,0,.17,0,.26.23,0,.61-.09.65,0-.26.26.33.18.53.17,0,.09,0,.18,0,.26.58-.15.63.3,1.24.14,0,.09-.09.13-.05.26a1.67,1.67,0,0,0,.65-.1c0,.12-.07.16-.06.27l.65,0c0,.13-.07.15-.06.27a1.55,1.55,0,0,1,.65-.09.38.38,0,0,1-.05.26c.83-.11,1.07.43,1.9.31,0,.13-.07.15-.06.27a1.58,1.58,0,0,0,.65-.1.32.32,0,0,1-.05.27c.63-.16.69.29,1.31.14a.3.3,0,0,1-.05.2l.65,0a.36.36,0,0,1-.05.26c.62-.15.68.3,1.31.14,0,.09-.08.1-.06.2.63-.16.69.29,1.31.14,0,.08-.08.09-.05.2.63-.16.69.29,1.31.13,0,.08-.08.09-.05.2.27,0,.67-.09.67.22l.64,0c0,.08-.07.1,0,.2.62-.15.68.29,1.3.14,0,.08-.07.09-.05.2.63-.17.69.29,1.31.13,0,.09,0,.17,0,.26,1,0,1.54.5,2.57.48,0,.08-.08.09-.05.2.62-.15.68.3,1.31.14.3.47.93.15,1.26.6.22.05.72-.2.66.17.52,0,1.16.12,1.25.33.66-.16.73.34,1.38.19,0,.07-.05.08-.06.14a2.74,2.74,0,0,1,1.46.39c2.33.33,4.19,1.14,6.52,1.47,0,.06,0,.08-.06.13.27,0,.79,0,.66.17,2.14.37,4.15.88,6.26,1.29,2.56.25,5.14.43,7.73.55C250.68,486.62,249.65,486.44,248.62,486.22Zm2.19-3.36q-6.13-1.87-12.6-3.35a2.28,2.28,0,0,0-1.32-.33c.18-.24-.43-.13-.6-.17a13.65,13.65,0,0,0-2.63-.66s.06-.13.05-.14c-.73-.23-1.63-.3-2.49-.47-.08-.06,0-.24-.21-.19-1.33-.14-2.3-.67-3.68-.75,0-.07,0-.13,0-.2-1.14,0-1.4-.46-2.56-.4a.31.31,0,0,1,.06-.2c-1.46,0-2.36-.65-3.81-.68a.37.37,0,0,1,.05-.2c-1,.1-1.52-.42-2.56-.34a.34.34,0,0,1,.06-.2c-1.1,0-1.41-.41-2.56-.34,0-.09.08-.09.05-.2-1.33,0-2-.59-3.15-.45,0-.08.08-.1.06-.2-.67.12-.57-.19-1.24-.08a.28.28,0,0,1,.06-.2c-.57.12-.75-.18-1.31-.07,0-.08.08-.1.06-.2a1.86,1.86,0,0,1-.65.1.29.29,0,0,1,.06-.2c-.52,0-1.05,0-1.32-.27-.06.15-.41,0-.59.09,0-.08.08-.09.06-.2a2,2,0,0,0-.64.1.29.29,0,0,1,.05-.2c-.85.13-1.17-.37-1.9-.18,0-.08.08-.09.06-.2a2.28,2.28,0,0,0-.64.09.3.3,0,0,1,0-.2c-.22,0-.53,0-.64.1.05-.42-.71,0-.67-.36-.47.24-.62-.26-1.17,0,0-.08.08-.09,0-.2a1.2,1.2,0,0,0-.71.16c0,.06,0,.12,0,.19a1.56,1.56,0,0,1,.64-.1c0,.08-.08.09-.06.2l.65,0c0,.09-.08.1-.06.21a2.31,2.31,0,0,1,.65-.1.28.28,0,0,1-.05.2l.65,0c0,.08-.08.1-.06.2.29,0,.36-.13.65-.1-.11.47.72-.09.6.37.25,0,.32-.14.58-.09-.06.36.44.11.66.16,0,.09-.08.1-.06.2a2.26,2.26,0,0,0,.65-.1.35.35,0,0,1-.05.2l.65,0a.31.31,0,0,1-.06.2,1.66,1.66,0,0,0,.65-.1c-.11.47.72-.09.61.36a1.59,1.59,0,0,0,.64-.1s-.15.26,0,.26.41,0,.59-.09c0,.08-.09.09-.06.2.83-.13,1.12.33,1.9.24,0,.08-.11.16,0,.2.06-.15.4,0,.58-.09,0,.07,0,.13,0,.2.74-.06,1,.36,1.84.24,0,.07,0,.13,0,.2.84,0,1,.36,1.84.24,0,.06,0,.13,0,.19.78-.1,1.07.32,1.84.25,0,.06,0,.13,0,.19l.66,0c0,.35,1.25.16,1.32.46.2,0,.6-.16.53.17l.59,0c.18.38,1.26.11,1.26.47.61-.16.68.29,1.3.14,0,.08-.08.09-.05.2a34.44,34.44,0,0,1,5.2,1.26c.36-.1.48.07.66.17.53-.12.56.3,1.11.15.16.09-.11.21.14.18.92,0,1.42.49,2.37.48.05.12.2,0,.08.2,1.24.07,2.06.61,3.29.7.72.44,1.84.44,2.58.86a15.22,15.22,0,0,1,3.3.89c.55-.06.75.26,1.31.2a6.64,6.64,0,0,0,2,.56c2.85,1,6,1.65,8.91,2.6,2.69.54,5.17,1.31,7.91,1.8l2.4-.09h.22l1.25-.07C261.11,485.77,256.13,484.13,250.81,482.86ZM378.1,104.75c0-.07.1-.16.13-.07s-.05.61.09.51a1.28,1.28,0,0,0,0,.66c0-.08.06-.11.12-.14-.16.63,0,.81,0,1.37,0,0,.05-.08.07,0s-.17.64-.1.72-.26.86,0,.72c-.17.21-.07.56-.09.78,0,0-.13-.05-.13-.05-.07.34-.13.58-.22.92a6.52,6.52,0,0,1-.46,1.52c-.84,1.4-3.89,2.85-5.77,3.58a17.16,17.16,0,0,1-5.58.64c-.3.26-1.11-.19-1.44.07-.28-.3-.46.06-.79-.23,0,.05,0,.13-.06.13a26.4,26.4,0,0,1-5.15-1.4c0,.31-.2-.13-.33-.12s0,.13-.06.13a4.16,4.16,0,0,0-1.53-.65c.18-.19-.16-.11-.33-.12.13-.2-.68-.2-.54-.43-.49.08-.51-.36-1-.28.12-.25-.66-.34-.87-.48,0,0,.08-.13.06-.13a5.26,5.26,0,0,0-1-.35c.26-.24-.19-.07-.27-.18s.06-.12.06-.13c-.19-.11-.51-.08-.67-.23s.08-.12.06-.14-.31,0-.33-.05.07-.12.06-.13-.5-.06-.66-.23.08-.12.06-.13c-.3-.21-.32-.11-.67-.23.25-.2-.23-.14-.26-.19s.07-.12.05-.13c-.17-.11-.47-.11-.59-.23s0-.17,0-.2-.31,0-.33,0c-.12-.24-.52-.38-.88-.61,0,0,.08-.13.06-.14s-.23,0-.33-.05-.31-.45-.22-.38c-.19-.14-.48-.16-.66-.3s.08-.12.06-.13c-.31-.26-.27-.15-.6-.3a8.89,8.89,0,0,0-2-1.67c-.42-.7-1.81-1.55-2.26-2.25-.65-.32-1.11-1.15-1.64-1.75-.19-.22-.66-.45-.48-.63-.27.12-.31-.34-.28-.31-.69-.76-1.75-2-2.49-3-.13-.36-.27-.42-.55-.76s-.52-1-.84-1.33a5.42,5.42,0,0,1-.76-.94,7.63,7.63,0,0,0-.56-.82c-.31-.5-.76-1.28-1.06-1.72a9.54,9.54,0,0,1-.72-1.53,11.66,11.66,0,0,1-1.61-3.91c-.93-1.85-.46-5.19,1.23-6.12,0,.07-.09.1,0,.13a2.47,2.47,0,0,1,.69-.55c0,.07-.09.11,0,.13.14-.17.67-.53.64-.29.32-.34.78-.19,1.15-.51-.13.3.39-.09.58-.09,0,.08-.09.1,0,.13s.66-.32.45-.08c.34-.06.73-.34.58,0a.9.9,0,0,1,.52-.15c0,.07-.09.11,0,.13.08-.13.39-.05.51-.15,0,.17.63.15,1,.08-.19.23.28.09.46.11-.2.23.28.09.46.11,0,0-.06.13-.06.13.62.14.4,0,1,.08,0,.09-.08.09-.05.2l.46,0c0,.15.49.35.86.35,0,.08-.08.09-.06.2l.39,0c0,.29.25.23.46.24,0,.09-.08.09-.05.2.34.06.78.22.74.49.22-.06.25.09.45,0,0,.08-.08.1-.06.2.38.09.64.27.68.56a.88.88,0,0,1,.74.62c.23,0,.39,0,.35.31.18,0,.4,0,.34.31.41.19.9.58,1,.94a.8.8,0,0,1,.62.69,1.77,1.77,0,0,1,.9,1.13,1.33,1.33,0,0,1,.55.63c.06.14.23.31.27.44s-.15.09-.12.14c.13.25.64.6.44,1,1.48,3-2.68,4.26-1.77,7.25a10.63,10.63,0,0,0,1,1.45s-.08.11-.06.13.72.42.94.67c0,0-.08.12-.06.13s.29,0,.33.05,0,.17,0,.2.28,0,.32,0,0,.17,0,.19.45-.1.27.18c.59,0,.43.44,1.12.34-.26.29.41,0,.34.25a1,1,0,0,1,.45-.09c-.1.22.51.15.79.16,0,.07-.09.11,0,.13.42-.19.29.13.84,0-.16.27.17,0,.39,0-.2.28.51-.11.41.18.07-.12.33-.07.44-.16-.18.32.42-.14.47.18.09-.11.28-.12.45-.15-.06.19.65.05.92,0,0,.06-.06.08-.07.13.19,0,.34-.11.52-.15,0,.07-.08.1,0,.13.46-.1,1.33-.37,1.5-.27.09-.16.37-.15.51-.28,0,.07-.09.1,0,.13a4.61,4.61,0,0,0,3-4.76.48.48,0,0,1,0-.59c-.38-.94-.27-1.9-.91-2.83.32-.26-.36-.32-.1-.71-.23,0-.33-.22-.15-.38-.13-.06-.28-.11-.33-.25s.06-.14.12-.2c-.37-.19-.36-.43-.43-.83-.48-.14-.08-.44-.55-.62.09,0,.06-.15.11-.21-.27,0-.37-.14-.28-.44-.46-.21-.32-.71-.82-.94a.18.18,0,0,0,.13-.2c-.44,0-.18-.47-.61-.56.09,0,.06-.15.12-.2-.24,0-.4-.14-.28-.38-.25,0-.4-.13-.28-.38-.28,0-.35-.1-.27-.38-.44,0-.2-.4-.61-.5,0-.09.1-.12.13-.2-.25-.07-.45-.06-.35-.37-.22,0-.39-.08-.28-.32-.1-.09-.3-.07-.41-.18a.17.17,0,0,0,.13-.2c-.24,0-.51-.1-.27-.31-.23,0-.5-.1-.34-.38-.2,0-.46-.1-.28-.31-.25-.07-.45-.06-.34-.38a.55.55,0,0,1-.4-.11c.09,0,.07-.15.12-.2-.26,0-.48,0-.34-.31-.25,0-.52-.1-.27-.31a.6.6,0,0,1-.47-.17c.08,0,.1-.08.12-.14-.33,0-.41-.18-.41-.37-.25.07-.42-.09-.27-.25-.34,0-.41-.17-.41-.37-.28,0-.37,0-.27-.25-.22,0-.51,0-.34-.31a.85.85,0,0,1-.46-.11c.09,0,.07-.14.12-.2-.31,0-.52,0-.4-.31-.27,0-.46,0-.34-.25-.22-.05-.51,0-.34-.31-.22.06-.25-.09-.46,0,0-.09.09-.13.06-.27-.29,0-.46,0-.34-.24-.23.06-.25-.09-.46,0,0-.09.08-.1.06-.2-.22,0-.51,0-.34-.3-.28,0-.54,0-.41-.25-.19,0-.51,0-.33-.24-.16,0-.25-.09-.46-.05,0-.17.11-.14,0-.26-.3,0-.48,0-.34-.24-.14,0-.43.1-.46,0s.1-.11.11-.2c-.26.06-.59,0-.4-.24-.26.06-.59,0-.4-.24l-.45,0c0-.09,0-.18,0-.26l-.46,0c0-.18.1-.14,0-.26l-.39,0c.27-.38-.61-.1-.35-.44-.25,0-.58,0-.4-.25l-.52,0c0-.08.08-.1.05-.2-.2,0-.23-.1-.46,0,0-.09.08-.1.05-.2l-.51,0c0-.08.08-.1.06-.2-.2,0-.24-.11-.46,0,0-.09.08-.1.06-.2-.38,0-.88-.15-.86-.35-.3,0-.67,0-.41-.24l-.52,0a.26.26,0,0,1,.06-.2l-.52,0a.3.3,0,0,1,.06-.2l-.52,0c0-.08.07-.09,0-.2l-.52,0c0-.08.08-.09.06-.19-.24,0-.27.12-.52.08a.29.29,0,0,1,.05-.2c-.24,0-.27.12-.51.09a.32.32,0,0,1,.05-.2c-.21,0-.32.13-.58.09,0-.17-.69-.27-1-.14,0-.12.09-.18,0-.2s-.7.15-.46,0c-.62.19-1-.22-1.62.07,0-.08.08-.09.05-.2-.18.06-.4.1-.58.16.23-.36-.69.19-.46-.17-.69.23-1-.05-1.69.2,0-.07,0-.08.06-.13-.18,0-.75.35-.58.08a7.13,7.13,0,0,1-1.81.28c-.16.13-.61.4-.58.16a12.2,12.2,0,0,0-3.31,1.78c0-.07.09-.1,0-.13-2.59,1.91-3.82,6.08-3.32,10.25a24,24,0,0,0,1.06,4.78c1.16,4.73,3.59,8.34,5.89,12.13a80.25,80.25,0,0,0,6.4,9c.26.32.44.71.7,1s.63.46.81.74a3.31,3.31,0,0,0,1,1.14,20.92,20.92,0,0,0,3,3.19c.63.57.9,1.09,1.56,1.36.35.67,1.18,1,1.76,1.55,0,0-.08.11-.06.13a18.55,18.55,0,0,0,1.88,1.29,2,2,0,0,0,1,.74,7,7,0,0,0,2.08,1.4c.15.32,1.12.7,1.4.85.45.23.82.58,1.35.85,1,.52,2.19,1,3.06,1.43a19.34,19.34,0,0,1,2.39.87c0-.18.57.13.73.23,0-.22.47.11.66.16.68.18,1.34.35,2,.5l.33.05c.68,0,1.14.17,1.83.24a18.08,18.08,0,0,0,4.18.07,20.14,20.14,0,0,0,5.65-.58c4-.92,8.07-2.73,9.77-5.92.3-.56.69-1.48.52-1.46a5.32,5.32,0,0,0,.57-1.91s0,.08-.07,0c.05-.26.34-.88.09-.85.07-.22.28-.76,0-.72a6.93,6.93,0,0,0,0-2.16q-3.68-5.72-7.56-11.12A10.88,10.88,0,0,1,378.1,104.75ZM223.26,482l-.71,0C222.55,482.27,223.27,482.2,223.26,482Zm-1.36,0,.71,0C222.6,481.74,221.89,481.82,221.9,482Zm2,.17-.71,0C223.21,482.44,223.93,482.35,223.92,482.18Zm.6.3s0-.09,0-.13l-.65,0C223.87,482.64,224.32,482.42,224.52,482.47Zm-2.58-.8c-.87,0-.61.22,0,0Zm3.18,1c0,.28.5,0,.72.1C225.82,482.54,225.34,482.77,225.12,482.71Zm-.65,0,.71,0C225.18,482.4,224.46,482.5,224.47,482.67Zm2.64.66.52,0c.34,0-.13-.09-.26-.05s-.77-.35-.91,0C226.65,483.29,227.1,483.07,227.1,483.34Zm1.31.07c-.88,0-.61.22,0,0ZM419.22,363v0A.14.14,0,0,0,419.22,363Zm-9.46,21.28,0-.07,0,0S409.76,384.21,409.76,384.24Zm9.12-20.84c0,.26-.11.39-.1.66-.13,0-.09-.18-.26-.12s-.07.47-.23.6a.35.35,0,0,0-.2-.18.86.86,0,0,1-.24.6c0-.09-.15-.06-.2-.12a1.15,1.15,0,0,1-.24.6.17.17,0,0,0-.19-.12,2.78,2.78,0,0,1-.24.53c-.1,0-.12-.1-.19-.12-.12.17-.13.44-.31.54a.19.19,0,0,0-.21-.12,1.19,1.19,0,0,1-.23.53c-.1,0-.12-.1-.21-.12-.14.26-.16.69-.5.42-.1.26-.13.56-.5.42a.63.63,0,0,1-.25.46c-.09,0-.11-.1-.2-.12-.13.2-.17.59-.51.42-.09.16-.12.39-.3.46,0-.07-.08-.09-.14-.12a3.16,3.16,0,0,1-.3.47c-.09,0-.11-.11-.2-.12a3.63,3.63,0,0,1-.29.53.34.34,0,0,0-.2-.19c-.09.3-.19.65-.51.41,0,.21-.19.54-.44.35-.13.13-.12.37-.31.47a.17.17,0,0,0-.2-.12c-.09.16-.14.36-.3.46a.2.2,0,0,0-.14-.12,3.44,3.44,0,0,1-.3.46.17.17,0,0,0-.2-.12,2,2,0,0,1-.31.47.19.19,0,0,0-.2-.13c0,.21-.17.27-.24.41-.09,0-.12-.11-.2-.13-.07.24-.19.57-.51.41a1.08,1.08,0,0,1-.24.4c-.1,0-.11-.1-.21-.12-.14.25-.19.59-.51.35-.06.23-.15.49-.43.35-.11.13-.14.34-.31.41,0-.07-.08-.09-.13-.12a3.4,3.4,0,0,1-.3.46.19.19,0,0,0-.21-.12c0,.2-.17.27-.24.4s-.11-.1-.2-.12c-.07.23-.16.49-.44.35-.09.2-.25.52-.45.28a1.74,1.74,0,0,1-.3.47c-.14-.3-.31.18-.45.28,0-.07-.08-.1-.13-.13-.13.18-.2.52-.51.35,0,.21-.17.26-.24.41-.14-.3-.31.18-.44.28,0-.07-.08-.1-.15-.13-.12.18-.22.55-.44.28-.07.18-.21.51-.44.34-.12.17-.22.55-.44.28-.05.24-.26.51-.45.28-.14.35-.56.65-.82.56-.51.79-1.39.84-2,1.58,0-.07-.07-.09-.14-.12a1.05,1.05,0,0,1-.82.55c0,.2-.21.42-.38.28-.11.17-.16.44-.44.28,0,.22-.13.4-.38.27-.18.27-.48.62-.76.49,0,.2-.17.26-.25.4,0-.07-.08-.1-.13-.13a1,1,0,0,1-.25.4c0-.07-.07-.09-.13-.12-.06.16-.18.44-.39.27a1.06,1.06,0,0,1-.82.56c0,.16-.11.24-.18.34,0-.08-.08-.1-.14-.13-.06.15-.17.44-.38.28-.1.11-.13.3-.24.4,0-.07-.07-.1-.13-.13-.2.26-.49.62-.76.49,0,.46-.45.21-.56.61,0-.08-.08-.1-.14-.13,0,.2-.17.26-.24.4,0-.07-.08-.1-.13-.13-.09.19-.14.41-.38.28,0,.17-.11.23-.18.33,0-.07-.08-.1-.14-.12a.76.76,0,0,1-.7.49c0,.2-.17.26-.24.4,0-.07,0-.15-.13-.12s-.11.24-.19.33c0-.07-.07-.09-.13-.13-.08.42-.42.24-.56.61-.66.22-1.14.92-1.84,1.13,0,.16-.11.23-.19.33,0,0,0-.13-.07-.13a2.8,2.8,0,0,1-.25.34.18.18,0,0,0-.13-.12c0,.25-.15.41-.32.21,0,.45-.48.35-.64.48s-.13.27-.23.34,0-.17-.08-.13c-.22.16-.25.56-.63.49-.07.1-.07.26-.18.33a.19.19,0,0,0-.14-.12,8.75,8.75,0,0,1-1.12,1,5.22,5.22,0,0,1-1,.56c-.07.1-.07.27-.18.34s0-.16-.14-.12a.66.66,0,0,1-.56.41c-.08.29-.41.53-.57.42a53.37,53.37,0,0,1-4.48,3.39,13.25,13.25,0,0,1-1.71,1.25c.05,0,.08,0,.07.12-1.6.92-2.88,2.23-4.42,3.2.05,0,.07.06.07.13-1.91,1.16-3.53,2.78-5.48,4.09a3.05,3.05,0,0,1-1.2.9,6.07,6.07,0,0,1-1.57,1.31c-.91.81-2.07,1.76-3.52,2.83-2.92,2.46-6.28,5.21-9.43,7.79-2,1.69-4,3.49-6.09,5.23.05,0,.08,0,.07.12a.62.62,0,0,0-.45.22c-1.47,1.44-2.65,2.54-4.45,4.11a10,10,0,0,1-1.82,1.71c-.09.38-.68.6-.8.95-1.17.94-1.87,1.94-3.06,2.88a1.82,1.82,0,0,1-.81.82,17.27,17.27,0,0,1-2.37,2.46c-.13.42-.53.59-.87.95-1.32,1.42-2.66,2.87-4.1,4.49-2.76,3.13-5.56,6.71-8.1,9.81,0,.36-.28.41-.43.6-1.79,2.67-3.57,5.35-5.25,8.13.05.53-.46.53-.41,1.07-1.52,2.82-4,7.71-3.36,12.27a6,6,0,0,0,2.32,3.88c.33-.17.66.47.93.35,0,0-.07,0,0-.07.23,0,.54.36.72.23-1.73-.82-2.22-3.22-1.89-5.59.43-3,2.08-6,3.14-8.55a11,11,0,0,0,1.33-2.34c.43-.29.48-.94.92-1.21,0-.09,0-.18,0-.27.18-.09.24-.32.44-.41,0-.08,0-.17,0-.26,1-1,1.66-2.7,2.71-3.64,0-.09,0-.17,0-.26,1.81-2.09,3.28-4.36,5.31-6.49,0,0-.07-.05-.07-.13,2.6-2.7,4.76-5.42,7.28-7.83,0,0-.07,0-.07-.12,1.19-.83,1.81-2,2.94-2.75a.32.32,0,0,0-.07-.19c.35-.18.8-.52.8-.82,1.54-1.15,2.57-2.59,4.07-3.77a.12.12,0,0,1-.07-.14c.84-.47,1.16-1.17,2-1.71-.05,0-.08-.05-.07-.13,1.42-1,2.62-2.52,4.26-3.71-.05,0-.08-.05-.07-.12.16-.06.36-.08.44-.22a41.05,41.05,0,0,1,4.09-3.44.34.34,0,0,0-.07-.2c1.73-1.11,2.94-2.52,4.78-3.8,0,0-.07,0-.07-.12.89-.38,1.19-1.12,2.15-1.53a.38.38,0,0,0-.08-.19c.33,0,.36-.19.44-.28.74-.7,1.72-1.3,2.4-1.86a21.7,21.7,0,0,1,3-2.36.31.31,0,0,0-.08-.19c.21-.07.56,0,.38-.28.22,0,.46,0,.31-.27.6-.05.42-.51,1-.57a.34.34,0,0,0-.07-.19.9.9,0,0,0,.45-.15c-.08,0-.1-.07-.13-.13.95-.34,1.33-1.11,2.4-1.67-.05,0-.08-.06-.07-.13.5-.06.5-.47,1-.63-.05,0-.08-.05-.08-.13.52,0,.19-.33.71-.29,0-.12-.11-.17,0-.2.67-.32.91-.77,1.58-1.12,0,0-.07,0-.07-.13.37-.09.6-.21.64-.48.37-.09.59-.22.63-.48.29-.1.71-.25.63-.49.8-.3.95-.79,1.58-1.05-.05,0-.08-.05-.07-.13.5,0,.44-.51,1-.5,0-.11-.11-.16,0-.19.48-.09.39-.42.89-.49,0-.12-.1-.16,0-.2.51-.1.44-.41.95-.56,0,0-.08,0-.07-.12.6-.18.67-.55,1.27-.77-.08,0-.11-.06-.14-.13l.39,0c0-.11-.1-.16,0-.19.47-.1.39-.42.89-.5-.29-.37.53,0,.25-.4a3.19,3.19,0,0,0,.94-.56c.13-.09.64-.41.51-.54.25,0,.47,0,.32-.21.25,0,.38,0,.25-.21h.32c0-.12-.1-.16,0-.19a8.66,8.66,0,0,0,2-1.46.19.19,0,0,0,.13.13c0-.21.14-.44.26-.21a.69.69,0,0,1,.63-.49.58.58,0,0,1,.57-.41.57.57,0,0,1,.57-.42c.07-.29.41-.54.56-.42.21-.25.32-.48.63-.49,0-.17.11-.23.18-.33,0,.05,0,.13.07.13a2.76,2.76,0,0,1,.25-.33s0,.12.07.12.17-.48.31-.21a1.47,1.47,0,0,1,1-.7c.07-.1.07-.27.18-.33s.08.1.14.12a.65.65,0,0,1,.63-.48c.08-.1.07-.27.18-.33a.18.18,0,0,0,.13.12.63.63,0,0,1,.63-.47c.09-.19.11-.43.39-.29,0-.15.05-.28.18-.33s0,.12.07.12c.24-.46.65-.39.94-.82,0,0,0,.13.07.13.08-.19.14-.4.38-.27,0-.26.14-.41.32-.21.12-.33.46-.6.7-.49a.65.65,0,0,1,.17-.4c0,.08.08.1.14.13.09-.19.11-.43.38-.28.08-.1.07-.26.18-.32s.08.1.13.12c.08-.19.13-.4.38-.28,0-.16.11-.23.18-.34a.19.19,0,0,0,.13.13c0-.2.17-.26.25-.4,0,.07.07.1.13.13.14-.3.44-.62.69-.49.06-.23.18-.52.38-.28,0-.23.13-.4.38-.28,0-.23.19-.46.32-.21.09-.19.16-.54.38-.28.1-.19.16-.54.38-.28.09-.18.14-.4.38-.28.09-.18.11-.43.39-.28.08-.18.1-.43.37-.28.16-.3.5-.62.76-.5.06-.22.18-.51.39-.27.06-.23.18-.52.37-.28,0-.2.17-.26.25-.4,0,.07.08.1.13.12a1.22,1.22,0,0,1,.24-.4c0,.07.08.1.14.13s.13-.3.24-.4c.21.35.25-.43.58-.16.06-.23.18-.52.38-.28a1.25,1.25,0,0,1,.24-.4c0,.07.08.1.14.13.11-.23.2-.5.43-.28.06-.23.19-.52.38-.28.17-.36.56-.65.82-.56.1-.2.13-.52.44-.35a.63.63,0,0,1,.24-.4c0,.07.08.1.14.13.12-.18.22-.55.44-.28.1-.2.13-.51.44-.35a1.29,1.29,0,0,1,.24-.4.18.18,0,0,0,.2.12c0-.25.19-.51.38-.27a1.3,1.3,0,0,1,.24-.41c.09,0,.11.11.2.12a1.31,1.31,0,0,1,.24-.46.18.18,0,0,0,.2.12c.08-.25.12-.45.45-.35a1.1,1.1,0,0,1,.24-.4c0,.07.08.1.14.13.12-.17.22-.54.44-.29.13-.13.13-.38.3-.46,0,.07.08.1.14.12.14-.2.15-.47.5-.34a.58.58,0,0,1,.25-.41.17.17,0,0,0,.2.12.83.83,0,0,1,.24-.47.17.17,0,0,0,.2.12c0-.28.25-.52.45-.28a.83.83,0,0,1,.24-.47.17.17,0,0,0,.2.13c.06-.23.16-.49.44-.34.12-.24.15-.49.51-.36,0-.26.16-.48.44-.35a1.29,1.29,0,0,1,.24-.46.3.3,0,0,0,.21.18c0-.19.08-.37.24-.46s.12.1.2.12a1.32,1.32,0,0,1,.24-.47c.09,0,.11.1.2.12.11-.21.17-.59.5-.41.09-.15.11-.36.24-.48a.19.19,0,0,0,.2.12c.08-.15.11-.36.24-.47s.12.1.21.12c.13-.23.1-.58.5-.41,0-.19.08-.38.24-.47a.17.17,0,0,0,.2.12,1.2,1.2,0,0,1,.24-.53.34.34,0,0,0,.2.19,1.28,1.28,0,0,1,.24-.53c.09,0,.12.11.21.12.07-.18.06-.43.24-.52,0,.09.14.07.2.11.12-.14,0-.46.24-.53,0,.09.14.06.2.12a1.54,1.54,0,0,1,.17-.54c.09,0,.12.09.26.06a1.05,1.05,0,0,1,.17-.53.18.18,0,0,0,.21.13,4.42,4.42,0,0,0,.1-.6c.07,0,.09.05.12.08.9-2.12,1.76-4.26,2.6-6.42C419,363.47,418.95,363.41,418.88,363.39ZM235.59,485a6.19,6.19,0,0,1-2-.43,7,7,0,0,1-2-.43,7.14,7.14,0,0,1-2-.49c-.49.17-.87-.44-1.17,0h.38a2.79,2.79,0,0,0,.63.45c2.46.48,4.93.91,7.41,1.27C236.48,485.2,235.86,485.32,235.59,485Zm173.72-99.91a.32.32,0,0,0-.15-.11c0,.23,0,.32,0,.49ZM217.71,465.7a2.32,2.32,0,0,1,.72,0C219.57,465.72,217.66,465.51,217.71,465.7Zm191.85-81.06a.13.13,0,0,0-.09,0,1.47,1.47,0,0,0,0,.19ZM199,470.64c-.07-.06-.63,0-.65.16C198.56,470.73,199,470.92,199,470.64Zm-.58,0c0-.26-.66-.08-.65.09A2.27,2.27,0,0,1,198.43,470.6Zm-.6-.23c-.27,0-.54,0-.65.16C197.44,470.51,197.76,470.56,197.83,470.37Zm-1.24.06c.12-.16.64,0,.65-.23C197.09,470.34,196.63,470.19,196.59,470.43Zm20.46-4.77c.23,0,.51,0,.58-.16C217.39,465.52,217.11,465.49,217.05,465.67Zm-1.84-.31c0,.23.66.14.65,0Zm1.7.18c.26-.12-.38,0-.46,0s-.58-.31-.65.09C216.3,465.45,216.6,465.69,216.91,465.53Zm-15.46,5.52c-.16.17-.75-.05-.7.29C201,471.32,201.51,471.43,201.45,471.05Zm-1.84-.37c-.1.2-.73-.08-.64.29C199.23,471,199.77,470.88,199.61,470.68ZM225.78,483c.2,0,.57.06.65-.09C226.24,483,225.86,482.85,225.78,483Zm-4.49-1.49c-.88,0-.62.22,0,0ZM202,471.22c-.32,0-.74,0-.7.3C201.68,471.52,202,471.51,202,471.22Zm-1.19-.27c-.24.09-.71,0-.7.29C200.49,471.24,200.81,471.23,200.86,471Zm-.59-.11c-.28,0-.64,0-.71.23C199.61,471.08,200.32,471.15,200.27,470.85Z"/>
   <g class="cls-6">
    <path class="cls-7" d="M157.76,290.3c-17.93-5.47-32.25-20.81-40.32-43.19-10.23-28.33-9.48-64.65,2-99.62,11.89-36.13,31.21-67.49,54.38-88.31,21.44-19.25,43.68-27.26,61-22,33.7,10.27,56.38,72.81,34.37,156-9,34.19-28.34,64.35-52.94,82.75-19.74,14.76-40.5,19.88-58.46,14.4Z"/>
   </g>
  </g>
 </g>
</svg>
