<svg xmlns="http://www.w3.org/2000/svg" viewBox="0 0 512 512" xmlns:xlink="http://www.w3.org/1999/xlink">
 <defs>
  <style>.cls-1{mask:url(#mask);filter:url(#luminosity-noclip-2);}.cls-2,.cls-8{mix-blend-mode:multiply;}.cls-2{fill:url(#linear-gradient);}.cls-3{isolation:isolate;}.cls-4{fill:#ec5a55;}.cls-5{fill:#fff;}.cls-6{mask:url(#mask-2);}.cls-7{opacity:0.4;mix-blend-mode:lighten;fill:url(#linear-gradient-2);}.cls-8{fill:#e6e6e6;opacity:0.83;}.cls-9{filter:url(#luminosity-noclip);}</style>
  <filter x="100.6" filterUnits="userSpaceOnUse" height="32766" y="-7841.94" id="luminosity-noclip" color-interpolation-filters="sRGB" width="169.28">
   <feFlood result="bg" flood-color="#fff"/>
   <feBlend in="SourceGraphic" in2="bg"/>
  </filter>
  <mask x="100.6" height="32766" y="-7841.94" id="mask" width="169.28" maskUnits="userSpaceOnUse">
   <g class="cls-9"/>
  </mask>
  <linearGradient x1="-582" y2="-959.58" gradientTransform="matrix(0.49, 0.1, -0.14, 0.67, 305.43, 1021.3)" gradientUnits="userSpaceOnUse" y1="-1365.65" x2="-582" id="linear-gradient">
   <stop offset="0" stop-color="#fff"/>
   <stop offset="0.15" stop-color="#d0d0d0"/>
   <stop offset="0.38" stop-color="#939393"/>
   <stop offset="0.58" stop-color="#626262"/>
   <stop offset="0.76" stop-color="#3e3e3e"/>
   <stop offset="0.91" stop-color="#292929"/>
   <stop offset="1" stop-color="#212121"/>
  </linearGradient>
  <filter x="100.6" filterUnits="userSpaceOnUse" height="271.93" y="47.89" id="luminosity-noclip-2" color-interpolation-filters="sRGB" width="169.28">
   <feFlood result="bg" flood-color="#fff"/>
   <feBlend in="SourceGraphic" in2="bg"/>
  </filter>
  <mask x="100.6" height="271.93" y="47.89" id="mask-2" width="169.28" maskUnits="userSpaceOnUse">
   <g class="cls-1">
    <path d="M158.33,318.68c-19.12-4.09-35.37-18.77-45.75-41.32C99.43,248.81,97,211,105.85,173.61,115,135,132.31,100.68,154.55,77c20.58-21.92,43-32.21,61.5-28.26,36,7.69,65.06,70.69,49.58,159.09-6.38,36.35-23.76,69.41-47.71,90.72-19.21,17.11-40.34,24.26-59.49,20.17Z" class="cls-2"/>
   </g>
  </mask>
  <linearGradient x1="-582" y2="-959.58" gradientTransform="matrix(0.49, 0.1, -0.14, 0.67, 305.43, 1021.3)" gradientUnits="userSpaceOnUse" y1="-1365.65" x2="-582" id="linear-gradient-2">
   <stop offset="0" stop-color="#fff"/>
   <stop offset="1" stop-color="#fff"/>
  </linearGradient>
 </defs>
 <title>Dotted Egg</title>
 <g class="cls-3">
  <g id="Layer_1" data-name="Layer 1">
   <g id="Eggs">
    <path d="M263.32,488.84c100-3.45,181.46-110,171.78-227.11C423.24,118.4,333.54,20.15,247.3,23.13h-.22C163.74,26,75.34,130.26,76.13,274.07c.65,122.32,86.9,218.22,187,214.78Z" class="cls-4"/>
    <path d="M345,358.52a16.19,16.19,0,0,1,1.63,8.17c-.43,10-9.61,17.38-18.22,17.66-8.33.27-14.93-5.17-15.84-13.36-1.09-9.7,5.55-16.93,12.48-19.39a19.24,19.24,0,0,1,3.71-.73C337.19,349.75,342.72,354.07,345,358.52ZM340.41,202c-3.09-4.68-8.9-9.29-17.46-8.07a16.61,16.61,0,0,0-13.51,10.91c-5.45,15,9.2,28.36,22.34,24.19a17.31,17.31,0,0,0,11.81-17.29A19.13,19.13,0,0,0,340.41,202ZM317.33,82.64c8.2.45,16.83-5,13.1-14.34-1.3-3.26-5.53-7.33-8.38-9a22.09,22.09,0,0,0-13.69-2.81c-6.33,1-11.21,6.26-8.63,13.88C302,77.1,310,82.24,317.33,82.64ZM236.88,28.45a30.86,30.86,0,0,0,18.5-.63c2.16-.81,5.45-2.1,5.82-4.3a111.35,111.35,0,0,0-13.89-.4h-.22a107.71,107.71,0,0,0-16.1,1.8C231.86,26.72,235,27.87,236.88,28.45Zm-.48,268.22c1.21,9.88,10.35,16.88,20.71,15.73a18.27,18.27,0,0,0,16.09-18.63A18.77,18.77,0,0,0,264,278.1a20,20,0,0,0-11.27-2.15,19,19,0,0,0-12.32,6.54A19.17,19.17,0,0,0,236.39,296.68ZM84.45,240.49c4.64.36,7.91-3.29,9.92-6.91a23.63,23.63,0,0,0,2.71-12.64c-.47-6.82-4.59-13.66-10.59-12.64a8.31,8.31,0,0,0-4.81,2.84q-2.12,11.42-3.48,23.33C79.32,237.75,81.32,240.26,84.45,240.49Zm42,38.74c-8.88,1.27-13.76,10.44-12,19.53,1.54,8.13,8.09,16.12,17.84,14.93,5.81-.72,10-5.2,11.62-9.66,2.68-7.24-.11-15.81-4.28-20A15.63,15.63,0,0,0,126.43,279.24Zm21.38,160.7c2.5,1.32,5.91,2.78,8.74,1.68a5.31,5.31,0,0,0,3.22-5.15c.11-6.48-6.32-13.08-12.65-16.3-4.16-2.11-11.39-4.65-13.71.92a11.15,11.15,0,0,0,1.16,5.28,22.15,22.15,0,0,0,3.53,5.1,51.38,51.38,0,0,0,3.68,4A27.44,27.44,0,0,0,147.81,439.93ZM129.25,131.24a16.5,16.5,0,0,0-6.49,2.46,23.08,23.08,0,0,0-8.8,13.15c-1.56,6.8,1,13.27,6.2,15.48,5.51,2.3,12.39-.62,15.87-3.83a20.46,20.46,0,0,0,6.44-12.33C143.66,136.67,137.82,130,129.25,131.24ZM93.78,346.54c-7.5-1.68-2.44,11.42-1.3,14.25.3.75,1.06,2.17,1.28,2.64.76,1.51,1.41,3.09,2.21,4.56a19.32,19.32,0,0,0,4.26,5.68,6.1,6.1,0,0,0,2.9,1.54c4.36.23,5.18-5.47,4.6-9.72C106.67,357.94,100.33,348,93.78,346.54ZM254.89,152.32a17.38,17.38,0,0,0,12.36-14.17A16.06,16.06,0,0,0,264.77,127c-3.34-5.17-9.44-9.08-18.19-7.88a17.76,17.76,0,0,0-5.63,1.54,17.07,17.07,0,0,0-9.73,16.77C232,148.81,244.3,155.51,254.89,152.32Zm120.65,2.28c6.55-.55,10.23-5.88,10.19-11.71,0-5.66-3.06-10.89-6-14.14s-8.19-6.49-13.94-5.64c-5.95.88-9.72,6.12-9.58,12.27C356.44,146.32,365.87,155.4,375.54,154.59ZM381.72,421a35.36,35.36,0,0,0,2-3.46,9.34,9.34,0,0,0,.73-5c-.61-3-4.19-3.49-7-3a19.71,19.71,0,0,0-6.77,2.78c-5.37,3.15-11,9.37-11.41,15.92-.14,2.52.81,5.06,3.28,6.07,5.1,2.07,11.33-3.88,14.47-7.25A42.14,42.14,0,0,0,381.72,421Zm38.76-219.73c-4.73,7.22-1.31,21.57,4.33,26.46,1.52,1.31,4.09,2.54,6,.76-1.78-10.24-4-20.21-6.54-29.86a.06.06,0,0,1,0,0C422.91,198.3,421,200.5,420.47,201.29ZM378.63,305.23a13.77,13.77,0,0,0,9.3-3,19.33,19.33,0,0,0,7.14-14.13c.52-10.46-6.09-18.93-16.29-17.52a14.59,14.59,0,0,0-9,4.64,17.87,17.87,0,0,0-4.8,8.23C362.12,294.17,368.89,304.94,378.63,305.23Zm50.45,28.22c-.79-.14-2.6,1.94-3.35,3a46.85,46.85,0,0,0-3.23,5.37,37,37,0,0,0-4,13.08c-.16,1.62,0,6.85,1.87,6.51.71-.45.78-.89,1.13-1.83a3.28,3.28,0,0,1,.48-.09c.51-.1,1.74-5,2-5.67q1-3,1.91-6c1.22-4,2.37-8.12,3.35-12.21C429.59,334.11,429.46,333.51,429.08,333.45Zm-96,134.24c-.22.43-.46,0-.89.19.08,0,.18.12,0,.15-2.7-.08-6.31.91-9.93,2.28-.6,0-.88.33-1.48.36a44.16,44.16,0,0,0-10.7,6c-1.39,1.16-3,2.1-3.32,3.85H307a159.79,159.79,0,0,0,26.41-12A.72.72,0,0,0,333.11,467.69Zm-57.23-22.08a13,13,0,0,0-.36-10.74c-2.89-5.33-9.8-8.8-17.76-7.9-6.85.76-12.12,4.41-14.19,9.15-4.75,10.92,6.66,18.9,16.79,18.54C266.51,454.45,273.4,451,275.88,445.61ZM196.82,58.1c-7.24.66-13.36,4.83-16,8.91A23.81,23.81,0,0,0,179,70.66c-3.15,10.29,6.75,15.48,15.31,14.57,7.68-.83,15.94-6.76,17-14.47C212.53,61.57,204.31,57.4,196.82,58.1Zm2.59,175.45a18.28,18.28,0,0,0,14.15-19,18.73,18.73,0,0,0-5.19-11.78,17.48,17.48,0,0,0-15-4.86,18,18,0,0,0-11.16,5.92,19.51,19.51,0,0,0-4.61,13.6A17.48,17.48,0,0,0,199.41,233.56Zm28.16,249.27a32.51,32.51,0,0,0-13-5.37c-5.22-1-10.54-1.24-13.29.57a157,157,0,0,0,28.39,8.24C230,484.84,228.66,483.68,227.57,482.83Zm-19.22-93.75a15.76,15.76,0,0,0,11.09-11.74,17.43,17.43,0,0,0-1.92-12.18,18.72,18.72,0,0,0-19.13-9.06c-6.31.89-10.31,4.44-12.27,8.49a21.11,21.11,0,0,0-1.3,9.91C186.29,383.94,196.89,392.24,208.35,389.08Z" class="cls-5"/>
   </g>
   <g class="cls-6">
    <path d="M158.33,318.68c-19.12-4.09-35.37-18.77-45.75-41.32C99.43,248.81,97,211,105.85,173.61,115,135,132.31,100.68,154.55,77c20.58-21.92,43-32.21,61.5-28.26,36,7.69,65.06,70.69,49.58,159.09-6.38,36.35-23.76,69.41-47.71,90.72-19.21,17.11-40.34,24.26-59.49,20.17Z" class="cls-7"/>
   </g>
   <path d="M211.59,447.62l.24,0c115.75-22.39,182.8-152.14,154.12-310a593.3,593.3,0,0,0-15-64.34h0l.08.09c38.7,46.79,69.53,118.22,75.23,198.79,8.3,117.07-57.59,207-162.34,209.37h-.22c-38.53.89-72-9.68-98.78-29.43C179.31,452.75,197,450.44,211.59,447.62Z" class="cls-8"/>
  </g>
 </g>
</svg>
