<svg xmlns="http://www.w3.org/2000/svg" viewBox="0 0 1000 1000" height="1000" width="1000">
 <defs>
  <style>
      .cls-1 {
        fill: #fff;
        fill-rule: evenodd;
      }
    </style>
 </defs>
 <path d="M477,72l-5-1V69c-2.817-2.489-3.521-5.982-7-8-3.914-4-15.153-1.267-21-1,3.841,24.051,7.176,48.88,12,72l3,1c1.593,1.485,5.892,1.092,9,1v3l-41,7v-4l6-1v-1c5.431-1.313,4.279-6.539,4-13-2.381-2.761-.746-6.805-2-11h-1v-6c-2.989-10.084-3.044-22.967-6-33V69h-1c-0.709-2.3-.226-3.976-1-6-8.893,1.29-19.994,2.952-22,11-1.957,1.892-2.047,5.046-2,9h-4c0.085-5.489-.446-16.876-2-21a74.064,74.064,0,0,0,14-3l61-9v1h1Q474.5,61.5,477,72Zm22-22,72,4c0.073,6.545-.051,13.918-1,19h-3V72c-3.293-3.511-.6-7.33-7-9-4.6-5.216-21.8-4.088-32-4-0.368,2.1-.988,1.962-1,2v5h-1V85h-1v4l23,2V90l6-1c1.363-3.09,3.186-5.345,4-9h3q-0.5,15.5-1,31c-5.64-1.643-2.088-1.652-4-6h-1c-1.658-3.207-2.18-4.957-6-6-2.435-2.287-17.549-3.046-23-3-1.511,4.05-1.049,11.386-1,17-2.192,2.4-1.1,11.713-1,16,1.8,0.945,1.574,1.385,4,2,3.269,3.292,6.969.632,12,2v1c4.218,1.146,19.964-2.634,22-4q0.5-1,1-2l7-6c2.012-2.778,1.146-3.892,5-5,0.094,9.772-4.285,15-6,23l-73-3-1-3c4.389-1.414,8.641-.108,10-5,3.742-4.038.222-11.593,2-18,1.431-5.157-.607-14.208,1-20h1V78c0.014-7.749,1.263-13.024,0-20-1.8-.944-1.574-1.385-4-2V55h-6V50ZM611,63c3.968,0.691,6.857,2.741,10,4l9,2v1l18,5v1h2v1h3v1l4,1v1l4,1,1,2,4,1,5,6,2,1c1.154,1.688.042,2.252,2,4v7c0.207,1.4,1.031-.414,1,1h-1v7h-1v2h-1q-0.5,2-1,4l-2,1c-5.4,5.64-11.418,7.221-23,7q6,20,12,40l2,1q0.5,1.5,1,3h1v1c2.25,1.891,1.725-1.046,3,3-9.632.2-17-4.02-24-7-0.415-5.766-3.359-10.462-5-15v-4h-1q-4-13-8-26a7.49,7.49,0,0,1-3-2c-2.01.574-.865-0.12-2,1-2.617,2.294-1.64,4.527-3,8h-1q-0.5,3-1,6h-1v2h-1v3h-1v2h-1q-0.5,4-1,8c1.118,2.974,6.139,4.728,9,6v3c-7.963-.574-14.124-4.44-20-7h-3v-1h-3v-1h-3v-1h-3c-2.8-1.238-2.486-2.411-7-3v-3c5.528,0.178,7.135.876,12,0q0.5-1.5,1-3h1v-2h1q0.5-3,1-6h1q0.5-3,1-6h1v-2h1q1-4.5,2-9h1v-2h1q1-4.5,2-9h1v-2h1q0.5-3,1-6c3.479-7.959,6.7-11.1,7-23l-9-5ZM410,144l-6,2v1h-2v1l-9,2c-5.919,2.582-10.867,6.429-19,7v-3h2c3.3-3.875,4.042-1.033,4-9-3.132-1.77-9.2-7.879-11-11l-29,12c0.32,2.123,1,1.985,1,2v13h1c0.8,3.506,1.772,3.9,6,4v-1h4v1c1.139,1.139.4,0,1,2l-6,2v1l-9,2v1h-2c-3.751,1.934-2.793,2.72-9,3v-4h2c1.212-2.128,2.252-2.177,3-5h1v-8h1q-0.5-8.5-1-17V124h1q-0.5-22-1-44l5-1v1h2l9,10,2,1v2l3,2,5,6,26,25,11,12h2l1,2,6,1v1c1.128,0.2,1.908-2.076,4-1v1C410.139,143.139,409.4,142,410,144ZM636,80q-4,12-8,24h-1v3h-1q-1,3-2,6h1c2.991,3.095,12.3,3.54,17,2h4v-1l6-2,2-3h1v-2l2-1q0.5-6.5,1-13h-1q-0.5-2.5-1-5l-5-4V83h-2l-1-2h-3V80C641.291,78.745,639.13,79.817,636,80ZM208,159v4h-1l-3,5h1c1.849,6.6,7.028,5.854,12,9q0.5,1,1,2h2q0.5,1,1,2h2q0.5,1,1,2h2q0.5,1,1,2h2v1h2q0.5,1,1,2h2q0.5,1,1,2l4,1q0.5,1,1,2h2q0.5,1,1,2h2c2.353,1.333,3.935,3.205,7,4l-4-17h-1v-3h-1v-4h-1v-3l-3-8c-1.244-.633-1.439-1.646-2-2h-2v-1h-2v-1h-2v-1c-2.975-1.689-5.95-2.474-8-5l-6-1v1h-2v1l-5,1q-0.5-1.5-1-3h2c2.684-4.732,7.62-6.9,12-10l2-3h2l2-3,3-1,3-4h2v-1l3-1v1c1.139,1.139.4,0,1,2-2.7,1.561-3.731,4.129-6,6l3,6h2q0.5,1,1,2h2v1l4,1q0.5,1,1,2h2v1l4,1,1,2h2v1h2l1,2,4,1,1,2,4,1,1,2,4,1,1,2,4,1,1,2h2v1l3,1c-1.1-2.991-3-6.271-4-9q-1-5-2-10h-1l-3-13h-1q-0.5-3.5-1-7h-1v-2h-1v-3h-1c-2.43-5.909-1.62-9.945-10-10-1.451,1.859-4.329,3.235-6,2-1.139-1.139-.4,0-1-2l4-3v-1h2l1-2h2l2-3,3-1,2-3h2c0.558-.378,1.731-3.6,3-3v1c1.885,2.063,2.121,4.224,1,7h-1v4h-1q1,6,2,12h1q0.5,3,1,6h1v2h1v3h1v3h1v3h1v3h1v3h1v3h1v3h1v3h1v3h1v3h1v2h1v3h1v3h1v3h1v3c2.116,5.331,5.245,11.427,6,18-2.612,1.382-1.693,1.769-6,2-2.141-3.119-3.985-2.1-7-4l-1-2h-2v-1h-2v-1h-2l-1-2h-2v-1h-2l-1-2-4-1-1-2-4-1-1-2-4-1-1-2-4-1-1-2h-2v-1l-3-1v3h1q0.5,3,1,6h1v4h1v3h1v3h1q0.5,3.5,1,7h1v3h1q1,5,2,10h1v4c1.21,3.363,2.679,5.065,3,10a6.719,6.719,0,0,0-3,3c-1.245-.639-1.428-1.635-2-2h-2v-1h-2l-1-2h-2q-0.5-1-1-2l-4-1q-0.5-1-1-2h-2q-0.5-1-1-2l-4-1q-0.5-1-1-2l-4-1q-0.5-1-1-2h-2q-0.5-1-1-2l-4-1q-0.5-1-1-2h-2q-0.5-1-1-2l-4-1v-1l-3-1q-0.5-1-1-2l-4-1v-1l-3-1q-0.5-1-1-2h-2q-0.5-1-1-2h-2q-0.5-1-1-2h-2q-0.5-1-1-2h-2q-0.5-1-1-2c-2.245-1.385-5.245-1.046-8-2v-1l-7,1v-1c-1.139-1.139-.4,0-1-2l4-3v-1h2l2-3h2l2-3h2l3-4h2q0.5-1,1-2l3-1v-1C204.767,159.61,204.992,159.419,208,159Zm133-21c4.628-.741,21.191-7.193,23-10-3.008-1.987-.446-0.911-2-3l-6-5v-2l-10-9-4-5h-2v1c1.5,1.686,1,5.819,1,9v24Zm428,23c-7.736-2.284-.853-4.383-3-11h-1v-3l-2-1v-2h-1l-3-4h-2q-0.5-1-1-2h-2q-0.5-1-1-2h-2c-4.712-3.148-6.209-7.547-14-8l-3,4h-1v2l-2,1q-0.5,2-1,4l-2,1c-2.4,3.606-3.735,8.336-7,11,0.574,2.01-.12.865,1,2,1.7,2.081,3.724,2.394,6,4l2,3h2q0.5,1,1,2c4.159,2.762,8.03,3.977,15,4,1.606-2.63,3.8-3.839,8-4a15.557,15.557,0,0,1-3,8l-2,1v2l-2,1v2c-2.5,3.75-6.649,7.014-8,12h-3v-1c-1.139-1.139-.4,0-1-2,3.54-3.345.915-7.922,0-12-2.464-1.369-3.268-3.771-5-5h-2q-0.5-1-1-2h-2v-1c-3.208-1.872-7.03-2.93-9-6-1.135.844-.145-0.127-1,1-3.036,1.812-3.061,4.071-5,7l-2,1v2h-1v2l-2,1v2l-2,1v2l-3,2v2l-2,1q-0.5,4-1,8h1v2l3,1v1c2.076,1.85,2.461,1.267,3,5-5.894-1.175-9.771-5.2-14-8h-2q-0.5-1-1-2l-4-1q-0.5-1-1-2h-2l-2-3h-2q-0.5-1-1-2h-2v-1a8.267,8.267,0,0,0-4-2q0.5-1.5,1-3c3.2,0.748,6.7,3.63,9,2,6.944-1.936,8.428-9.588,12-15l2-1q0.5-2,1-4l2-1v-2l2-1v-2l2-1v-2l2-1q0.5-2,1-4l2-1v-2l2-1v-2l2-1v-2c4.468-6.7,9.788-9.631,10-21-1.281-.97-1.033-2.194-2-3h-2q-0.5-1.5-1-3h1v-1c2.01,0.574.865-.12,2,1l4,1q0.5,1,1,2l4,1q0.5,1,1,2l4,1q0.5,1,1,2l4,1q0.5,1,1,2h2q0.5,1,1,2h2v1h2q0.5,1,1,2h2q0.5,1,1,2h2q0.5,1,1,2l4,1q0.5,1,1,2h2q0.5,1,1,2h2q0.5,1,1,2h2q0.5,1,1,2l11,6v2c-2.433,1.6-.646.786-2,3h-1v2l-2,1v2C771.563,156.487,769.776,157.467,769,161Zm-184-6a234.586,234.586,0,0,1,3,37c3.809,1.422,10.65,1.048,16,1,3.56-3.1,12.725.465,18-1v-1h13v-1h14v-1l20-1v1h2c0.875,2.316,1.017,4.407,1,8-2.461,1.524-.624,1.215-2,3l-2,1v1h-2l-2,3h-2v1l-4,1v1h-3v1h-4v1l-28,3-18,5v1h-2v1h-3v1c-3.667,1.265-5.474-.541-8,2l27,48h10c3.851-3.336,17.987.676,24-1,5.9-1.644,15.937.69,22-1v-1h29v-1h9c0.6,5.511.963,6.258-1,11-1.946,1.013-4.077,3.154-6,4l-12,2v1H684v1h-6v1h-4v1l-4,1-2,3-4,1q-0.5,1-1,2h-2v1h-3c-6.029,2.273-13.8,2.875-22,3,0.524,5.615,3.847,9.016,6,13q0.5,2,1,4l2,1v2h1v2h1v2h1v2l2,1v2h1v2l2,1v2l7,11h79c1.705-1.583,6.727-1.1,10-1v1h1q2,13,4,26h1v5c1.3,4.115,2.378,10.115,4,14l3,2v1l6,2q0.5,1,1,2h2v1l18,4h6l9,3,13,32h10v9H811c-2.058-4.971-4.927-10.317-7-15v-3h-1v-2h-1v-3h-1v-2h-1v-3h-1v-3h-1q-0.5-1.5-1-3c-3.62-.1-5.637-1.243-8-2h-5v-1l-10-1v-1h-3v-1l-4-1v-1l-4-1v-1h-2q-0.5-1-1-2h-2c-2.5-1.445-3.486-3.153-7-4,0.055-6.326-1.534-11.309-3-16q-2.5-13-5-26H666c0.64,3.5,2.575,5.485,4,8v2l2,1v2h1v2h1v2h1v2h1v2l2,1q1,3,2,6l2,1v2h1l4,8h6c2.277-2.027,9.959-1,14-1,11.442,0,22.572-1.962,33,0-0.021,2.884-.613,6.593-2,8-2.628,9.59-24.795,13.909-37,15,1.734,9.61,7.894,8.412,19,8,2.562-2.264,8.043.09,12-1,5.787-1.6,15.578-1.073,23-1a40.116,40.116,0,0,1-1,9l-3,2v1h-2v1h-2q-0.5,1-1,2l-4,1v1c-6.213,2.729-17.584,2.613-25,4,1.018,5.385,4.7,9.759,7,14q0.5,2,1,4l2,1v2h1v2h1v2h1v2h1v2l2,1q0.5,2,1,4l2,1v2h1c1.726,2.955,2.46,5.948,5,8,2.2-1.934,5.812-.958,9-2v-1h5v-1h5c5.406-1.721,9.768-3.857,17-4,1.643,3.1,1.9,1.8,2,7h-1v3l-3,2c-5.46,5.589-13.137,13.015-23,14l4,11,2,1q1,3,2,6l2,1q0.5,2,1,4l2,1v2h1q0.5,1.5,1,3l2,1v2l3,2v2l2,1q0.5,1.5,1,3h1v2l2,1q0.5,2,1,4l2,1q0.5,2,1,4l2,1q0.5,2,1,4l2,1v2l2,1v2l3,2v2l6,5v2l5,4q0.5,1.5,1,3h3l2-3h1v-2h1c2.272-2.652,3.016-3.83,8-4a6.719,6.719,0,0,0,3,3c-0.574,2.01.12,0.865-1,2a18.55,18.55,0,0,1-3,7l-3,2v2l-4,3v2l-3,2v2l-3,2v2l-4,3v2l-3,2v2l-3,2v2l-3,2v2l-4,3v2l-3,2v2l-3,2v2l-3,2v2l-3,2v2l-3,2v2l-3,2v2l-3,2v2l-2,1v2l-3,2v2l-2,1a12.414,12.414,0,0,0-3,7c4.481,2.486,4.94,5.45,2,10l-2,1v2h-1v2h-1q-1,3-2,6c-3.925,8.078-6.08,18.977-9,28q-1,6.5-2,13h-1v3h-1v4h-1v2h-1q-0.5,3-1,6h-1v2h-1v3h-1a40.149,40.149,0,0,0-3,8,148.558,148.558,0,0,0-16,4h-6v1h-7v1h-7v1h-9v1H677v1H666v1H653v1H639v1H626v1H612v1H597v1H580v1H557c-10.865,3.05-33.714.987-47,1h-9v1H427c-9.5,0-22.227,1.192-30-1H373v-1H363l-18-1v-1h-9v-1h-9v-1h-7v-1h-5v-1c-2.238-2.033-1.655-4.173-3-7h-1v-3h-1l-2-6h-1v-2h-1v-2h-1l-2-6-2-1v-2l-2-1v-2l-5-4v-2l-2-1v-1h-2l-4-5h-2l-1-2-3-1q-1-6-2-12a37.206,37.206,0,0,0,11-2h7v-1c2.6-.776,4.666-0.1,7-1q2-7.5,4-15c-7.089.237-23.883,1.272-26-3v-4h1v-3l27-1,1-3h1q0.5-3,1-6h1v-3h1v-4h1v-3h1v-3h1q0.5-3.5,1-7h1v-4c4.039-11.187,6.98-24.748,11-36v-4h1v-4h1v-4h1v-4h1v-3h1v-4h1v-4h1v-4h1l4-17-14-3v-1l-4-1v-1h-2v-1h-2l-1-2-4-1-1-2h-2v-1h-3v-1h-2v-1l-12-2v-1h-4v-1h-4v-1l-6-2a35.344,35.344,0,0,1,0-14,45.406,45.406,0,0,1,13,2l13,1a130.632,130.632,0,0,0,27,5c-0.316-3.9-1.892-6.251-3-9v-3c-3.106-7.136-6.731-12.671-7-23,2.523-1.339,3.5-1.99,8-2,1.071,2.521,2.9,4.891,4,7v2h1v3h1q0.5,3,1,6h1v2h1v3h1q0.5,3,1,6c1.271,3.169,3.157,6.052,4,10l3-1q5.5-22.5,11-45h1q1-5.5,2-11c-1.084-.527-1.727-1.853-2-2l-5-1v-1h-3v-1h-2v-1h-4v-1h-3v-1h-3v-1h-3v-1l-6-1v-1l-4-1v-1h-3v-1h-3v-1h-3v-1h-3v-1h-3v-1h-2v-1h-3v-1h-2v-1h-2v-1h-2v-1c-3.622-2.06-6.838-2.447-8-7h-1c-1.416-2.363,1.3-8.352,2-9v-1h7l64,15V442a55.849,55.849,0,0,1-12-2l-19-1v-1h-5v-1l-6-1v-1l-4-1v-1h-2v-1l-3-1-1-2h-2l-1-2-4-3-1-4h-1v-2h-1v-9c2.652-1,6.944-1.041,11-1,2.216,1.932,5.805.952,9,2v1h5v1h5v1h5v1h4v1h5a54.531,54.531,0,0,0,15,3c0.406-2.658,1.28-12.369,0-17h-1v-9h-1c-0.882-3.3.736-7.716,2-9v-1h6l1,3c2.053,2.4.9,9.86,1,14q0.5,6.5,1,13h1c0.889,3.133.2,6.828,1,9l29,6q4-17,8-34h1l3-18c2.065-6.382,4.472-14.241,5-22-9.507,0-22.213,1.175-30-1l-33,1H279a61.189,61.189,0,0,1-2,10q-2,24-4,48l-4,2-1,2h-2l-2,3h-2l-1,2-3,1v1h-2l-1,2h-2l-1,2-3,1v1l-4,1v1l-3,1-1,2-4,1v1l-3,1-1,2-4,1-1,2h-2l-2,3h-2l-1,2c-2.991,1.885-6.179,1.9-11,2-1.425-1.438-5.583-2.546-8-3V434c3.976,0.53,8.671,4.554,13,3l49-32v-9c2.952-3.436.478-14.588,2-20h1V366h1v-9h1q0.5-7,1-14H424l1-5h1q2.5-11.5,5-23c-6.18-1.209-10.893-5.709-16-8h-3v-1h-2v-1h-4v-1h-4v-1h-5v-1H386v-1l-13-1c-2.226-.769-4.208-2.36-7-3q-0.5-5.5-1-11a77.63,77.63,0,0,1,19,3l51,7q6-25,12-50l-11-4v-1h-2l-1-2-4-1-1-2h-2v-1l-4-1v-1h-3v-1l-15-1v-1h-8v-1h-4v-1h-4c-11.46-3.929-23.255-5-23-21h1c2.866,2.441,7.748.732,12,2v1h6v1h6v1h5v1h6v1h6v1h5v1h6v1l11,1a84.261,84.261,0,0,0,23,4q-1-19.5-2-39h1q0.5-2.5,1-5c2.986-1.335,5.05-2.008,10-2,0.844,1.135-.127.145,1,1a50.72,50.72,0,0,0,2,9v11h1v15h1q0.5,6.5,1,13c4.144,0.3,7.819,1.923,11,3h4v1h5v1h5v1h6v1h5v1h6l41,9c-0.424,4.432-2.657,8.607-6,10h-4c-1.893.6-7.6,1.973-11,1-3.908-1.117-19.284-3.608-25-2v1h-5v1h-1c-10.488,1.846-19.156-2.723-29-3q0.5,13.5,1,27c32.62,0.139,63.165-2.122,94-3,0.951-5.415,3.437-11.139,5-16q1-6.5,2-13c2.315-6.468,4.722-13.189,5-22-2-.323-2-1-2-1H562v-1h-3v-1h-3v-1h-3v-1H539v1h-7v1l-14,1v-1H508v-1h-4v-1h-3v-1h-3v-1c-3.5-1.81-5.839-1.713-7-6-2.181-1.864-2.1-4.8-2-9l87-6q-0.5-11.5-1-23h-1q-0.5-6-1-12h1q0.5-2.5,1-5A21.057,21.057,0,0,1,585,155Zm181,95c-2.739-.644-2.276-1.309-5-2v-2l-19-18v-2h-1c-1.954-2.337-3.492-3.064-4-7,5.191,0.542,5.2,2.553,10,4v1c0.626,0.051,2.015-.926,4-1,1.333-2.011,3.345-2.39,5-4l11-13h2l16-17h2l14-15c1.606-4.806-4.3-7.1-5-12,1.135-.844.145,0.127,1-1h2c2.809,5.115,7.07,8.07,11,12a139.729,139.729,0,0,1,15,17l8,7v2l2,1v2l2,1v2h1v2h1v3h1c2.033,6.358-1.191,13.867-2,18l-6,5v1h-2v1h-2v1h-3v1c-3.366,1.087-14.89-.107-17-1v-1h-2v-1h-2v-1c-1.348-.429-0.154.36-1,1h-1v8h-1v7h-1v7h-1v6h-1v5h-1v11h1c0.443,0.75,2.4,3.852,2,5h-1v1c-2.01-.574-0.865.12-2-1-5.7-1.5-11.607-11.355-16-15-0.174-17.31,5.656-31.9,6-49a6.719,6.719,0,0,1-3-3c-1.135.844-.145-0.127-1,1-5.323,2.4-6.748,5.641-10,10h-1q-0.5,1-1,2h-2q-0.5,1-1,2l-4,3v2l-2,1v5C764.9,243.63,765.873,245.488,766,250Zm47-62c-2,3.465-5.278,4.362-8,7l-8,9-4,3v2l-4,3v1h1c4.281,7.552,12.618,11.143,25,11,3.272-3.661,8.525-4.4,10-10,2.022-1.884.021-.522,1-3,3.218-8.146-2.523-20.432-9-22v-1h-4ZM595,272l16-1q-0.5-2.5-1-5h-1v-2l-2-1v-2h-1v-2h-1v-2h-1v-2h-1q-0.5-2-1-4l-2-1q-1-3-2-6l-2-1v-2h-1v-2h-1q-0.5-1.5-1-3h-1v9c1.737,2,.915,7.416,1,11Q594,264,595,272ZM456,299c0-11.437-5.675-10.98-6-22h4a12.71,12.71,0,0,0,1-5c-3.343-3.949.716-18.792-3-23l-10,48a19.168,19.168,0,0,0,7,1v1h7ZM333,276c-0.573,2.843-2.2,5.517-3,8v5h-1v8h1c0.93,3.432-.571,6.675-1,9-2.911,1.284-5,2.594-9,3v-1l-5-1a60.584,60.584,0,0,1-1-11c-1.23-.663-1.392-1.6-2-2h-2l-1-2-5-1v-1h-2v-1l-6-1v-1h-3v-1h-3v-1h-3v-1c-5.015-1.564-11.217,2.028-14,3h-4c-7.427,2.383-8.734,1.374-16,0l-1-3,27-18h10c1.764,1.986,1.95.845,4,2v1h2v1l3,1,1,2h2l2,3h2l2,3h2l2,3,9,7c-0.259-11.945,1.377-21.18,5-29,12.847-.992,22.611-7.585,36-8,0.844,1.135-.127.145,1,1-0.574,2.01.12,0.865-1,2v3l-2,1v2l-2,1-4,5-4,1-1,2h-2v1h-2v1h-3v1h-2v1Zm245-4c0.176-6.3,1.158-16.715-2-20-0.271,7.988-3.665,12.706-4,21h1v-1h5Zm279-5c12.718-.184,23.668,1.811,31,7l4,5,4,3v2l2,1v2l2,1v2h1q0.5,2,1,4h1v3h1c1.7,4.806,1.48,16.4,0,21q-0.5,3.5-1,7h-1q-1,3-2,6h-1v2l-4,3q-0.5,1.5-1,3l-3,1-3,4h-2q-0.5,1-1,2h-2v1h-2v1h-2v1h-2v1h-2v1h-3v1h-3v1c-3.1,1.084-17.692,2.305-22,1-11.225-3.4-17.115-8.259-23-17l-2-1q-1-3-2-6h-1v-2h-1q-0.5-3-1-6h-1c-1.546-4.415-1.579-19.6,0-24h1v-3h1v-2h1v-2l2-1v-2l14-13,4-1q0.5-1,1-2h3v-1h2v-1l6-1v-1h6v-1ZM207,278c-0.183,8.353-8.625,16.819-12,23v2h-1l-4,8h-3c-0.844-1.135.127-.145-1-1,1.169-2.422,3.515-5.95,2-8l-1-3-17-3-15,27c5.779,3.87,6.04,12.047,15,13a15.012,15.012,0,0,1,6-6v1h1v3c-1.959,1.792-.842,1.942-2,4h-1v2l-2,1v2h-1v2h-1v2l-2,1c-2.237,3.363-1.323,5.75-6,7V343h-1l-1-3-4-3v-2l-4-3v-2l-3-2v-2l-4-3v-2l-3-2v-2l-3-2v-2l-4-3v-2l-2-1-1-3-4-3v-2l-3-2v-2l-4-3v-2l-3-2v-2l-4-3v-2c-1.857-2.581-3.8-1.672-5-6h1c0.936-3.586,2.61-3.156,7-3,2.879,2.482,9.623.744,14,2v1h8l60,9v-1h2v-1C203.1,280.354,204.005,278.808,207,278Zm664,3c-2.641,2.293-5.338.736-9,2v1h-3v1h-3v1l-4,1v1h-2v1h-2v1h-2v1h-2v1h-2q-0.5,1-1,2h-2q-0.5,1-1,2h-2l-7,8-3,2q-0.5,2-1,4h-1c-2.546,5.923-.552,16.978,2,21l2,1v2l2,1v1h2q0.5,1,1,2l5,1v1h4v1h7v-1h5v-1l9-2v-1l6-2v-1l6-2q0.5-1,1-2l4-1q0.5-1,1-2h2l2-3h2q0.5-1,1-2l5-4v-2l2-1v-2h1v-3h1v-3h1v-6h-1q-0.5-3.5-1-7l-2-1v-2l-2-1-4-5-4-1v-1Zm-742,9,5,7,2,1v2l4,3v2l5,4v2c1.25,1.732,3.577,2.579,5,5,1.135-.844.145,0.127,1-1,2-1.753.828-2.177,2-4l2-1q0.5-2,1-4l2-1v-2c1.44-2.559,3.23-4.5,4-8-1.135-.844-0.145.127-1-1C149.307,294,141.138,290.194,129,290Zm343,6v6c1.135,0.844.145-.127,1,1,7.28,0.058,16.942,2.226,23,4l58,8,3-17h-3v1H538v1H522v-1h-9v-1h-3v-1h-3v-1c-4.457-1.412-17.9.14-21,1Zm93,2a34.651,34.651,0,0,0-1,7l15-1v-7A118.546,118.546,0,0,0,565,298Zm31,0v4c1.135,0.844.145-.127,1,1a91.215,91.215,0,0,1,15-1q-0.5,4.5-1,9l-4,3v1l-9,3,3,8,3,2q0.5,1.5,1,3h1v2l2,1v2l3,2v2l3,2v1h38c-0.8-4.139-3.311-6.878-5-10q-0.5-2-1-4l-2-1v-2h-1v-2h-1v-2h-1v-2l-2-1q-1-3-2-6l-2-1q-0.5-2-1-4h-1l-5-9h-9ZM437,317c-1.5,8.777-5.38,16.149-6,26h26v-3h1q-0.5-10-1-20C449.069,320.014,444.193,317.452,437,317Zm126,5c-0.679,2.6-1.576,3.252-3,5h-1v2l-2,1c-1.511,2.451-2.784,10.218-3,14h17c1.214-7.117,3.711-12.987,4-21A60.687,60.687,0,0,1,563,322Zm-82,22h48q1,5,2,10h2q1-5,2-10h11c0.7-3.875,1.855-6.195,2-11-1.135-.844-0.145.127-1-1l-52-3-19-4v1Q478.5,335,481,344Zm99,0c0.11-3.1.47-7.411-1-9-0.362,3.27-1.983,6.658-1,8C579.139,344.139,578,343.4,580,344Zm-48,28h-2q-0.5-2-1-4h-1q-2-7.5-4-15H484l3,12h1v4h1v3h1v3h1q0.5,3.5,1,7h1q0.5,3.5,1,7h1v4h1q0.5,3.5,1,7h1v1h5c2.494-2.231,23.538-1.084,29-1q1-5,2-10h1q0.5-4,1-8c3.173-8.834,6.809-19.452,8-30h-4c-1.107,2.133-3.137,4.626-4,7q-0.5,3.5-1,7h-1Q533,369,532,372Zm19-20q-5.5,23.5-11,47c5.487-.239,11.295-0.977,18-1,2.512-15.472,8.212-29.61,10-46H551Zm32,44c0.086-15.667-1.74-29.584-2-44h-5v1h-1c-0.143,6.058-2.477,11.275-4,16q-0.5,4.5-1,9h-1v5h-1v4l-3,10h14v-1h4Zm18-44q1.5,21.5,3,43a196.213,196.213,0,0,0,20-1l-4-11h-1v-2h-1l-3-9h-1v-2h-1v-2h-1q-1-3-2-6h-1v-3h-1v-2h-1C604.825,353.008,607.326,352.291,601,352Zm38,42q-1-3-2-6l-2-1q-0.5-2-1-4l-2-1v-2l-2-1v-2l-3-2v-2l-2-1v-2l-2-1v-2h-1q-0.5-1.5-1-3l-2-1c-2.77-4.134-3.563-8.447-8-11v1l19,41h9Zm-19-42a18.62,18.62,0,0,0,3,7l2,1v2l2,1v2l3,2v2l2,1v2h1q0.5,1.5,1,3l2,1v2l3,2v2l2,1v2l3,2v2l2,1q0.5,1.5,1,3h17c2.285-2.089,10.884-1.1,15-1-0.678-3.5-2.57-5.471-4-8v-2l-2-1q-1-3-2-6l-2-1q-1-3-2-6l-2-1q-1-3-2-6l-2-1v-2c-0.39-.686-3.533-5.767-4-6H620ZM412,429c4.667,0.438,21.152,5.378,23,4,1.9-1.875,1.762-7.371,3-10h-1c-1.855-2.132-4.623-2.316-7-4l-6-7a29.413,29.413,0,0,0-1-7c4.783-1.779,13.585-1.05,20-1q6-25.5,12-51H429c-0.844,1.135.127,0.145-1,1-0.195,6.954-3.1,14.386-5,20v4h-1v4h-1v5h-1v4h-1v4h-1v5h-1Q414.5,414.5,412,429Zm67-28c5.369,0.169,6.427.8,11,0-0.092-4.677-1.83-7.6-3-11v-4h-1v-3h-1q-0.5-3.5-1-7h-1q-1-5.5-2-11h-1v-4h-1q-0.5-3.5-1-7h-1c-0.844-1.135.127-.145-1-1v1c2.819,3.228-.34,11.165,1,16h1Q478.5,385.5,479,401Zm446-44h4c0.682,8.219,4.437,15.129,5,24-2.683,1.79-3.17,4.3-5,7l-2,1v2l-3,2v2l-3,2v2l-3,2v2l-3,2q-0.5,1.5-1,3l-2,1v2l-2,1v2l-3,2v2l-3,2q-0.5,1.5-1,3l-2,1v2l-2,1v2l-3,2v2l-2,1v2l-3,2v2c-0.426.628-1.324,0.776-2,2h3v-1l13-2v-1h4v-1h4v-1l9-1v-1h4v-1h3v-1h3v-1h3l5-6v-7h3v1c2.018,2.235.935,4.764,2,8a174.859,174.859,0,0,1,5,21h-4v-2c-1.936-1.6-2.681-3.644-5-5-4.408-4.483-16.217.463-21,2h-5c-12.029,3.9-26.838,5.992-39,10h-4c-0.926.307-10.3,3.25-11,3v-1h-1v-3h1v-3l2-1v-2l4-3v-2l2-1v-2l2-1q0.5-1.5,1-3l3-2v-2l2-1v-2l3-2v-2l3-2v-2l3-2v-2l2-1v-2l3-2v-2l3-2v-2l3-2v-2l3-2v-2l2-1v-2l3-2v-2l3-2v-2l2-1q1-2,2-4h-3c-2.3,2-4.738.91-8,2v1h-5v1h-4v1h-5v1h-5v1l-9,1v1h-5v1c-5.316,1.969-10.455,1.17-12,7-1.8,1.741-2,4.394-2,8l-3-1c-0.763-9.758-5.311-18.191-6-29h3v1c2,1.718.847,2.341,2,4h1l2,3h1c1.179,0.782.107-.1,1,1,9.186,0.158,17.066-2.647,24-5h4v-1h4v-1h4v-1h4v-1h5v-1h4v-1h4v-1h4v-1h5v-1l4-1q0.5-1.5,1-3h1Q924,361.5,925,357Zm-815,3c0.9,11.305,5.912,16.013,12,22l2,3h2l6,7c5.427-2.363,8.206-3.989,12-8l2-1c1.155-1.68.025-2.263,2-4v-9h-1v-2h-1q-0.5-2.5-1-5h4c2.482,4.134,5.425,7.665,7,13,3.485,11.808-7.3,28.274-14,30q0.5,3.5,1,7h1v6h1c2.372,8.415-3.179,23.027-6,27h-1l-3,4h-2v1c-2.037,1.158-2.239.009-4,2-6.607.088-13.87,0.549-18-2l-1-2h-2v-1l-3-2v-2l-2-1v-2l-2-1v-2h-1v-3H99v-2H98l-2-10c-21.261.552-36.106-3.041-36-24l1-9h1l1-4,7-6H83v1h2v1l3,1a8.009,8.009,0,0,0,2,4h1c2.089,3.218,3.821,10.841,4,16,9.068,0.188,16.586-3.389,23-6h3v-1l5-1v-1h-1l-1-3-3-2c-4.05-4.107-5.529-6.937-14-7-1.5,2.63-3.189,3.378-4,7h-3c-0.146-10.323,3.783-21.375,7-29h3Zm341,43h4c1.079-2.874,1.044-7.691,1-12,0.608-.614,2.074-10.3,1-12h-1C455.946,388.226,451.964,394.441,451,403ZM90,407v-5H89c-0.37-1.968-2.82-7.071-4-8H83l-2-3c-3.374-1.821-8.744-.665-12,0-1.4,2.4-4.865,6.467-3,9,0.346,3.9,1.636,5.188,5,6C74.771,409.873,84.536,407.38,90,407Zm12,14c0.357,5.09,4.672,11.935,9,13,1.409,1.475,9.158,3.259,13,2v-1l5-1,5-6h1c1.156-1.667-.015-2.291,2-4,0.273-6.62,1.177-8.469-1-14-3.523.7-5.421,2.661-8,4h-2v1l-6,1C114.754,418.087,109.033,420.53,102,421Zm594,1c-0.72-3.6-2.6-5.075-4-8-7.582-.857-25.319-2.723-30,2,2.393,1.657.619,0.772,2,3h1v2h1c3.1,3.661,4.337,3.1,11,3C679.289,421.942,691.142,421.927,696,422Zm-54-4q0.5,3,1,6c1.135,0.844.145-.127,1,1h3v1h1v-1h12q-0.5-2.5-1-5c-3.851-2.24-3.142-3.039-10-3v1h-7Zm-4,8q-0.5-2.5-1-5h-1v-1h-4v1h-5c-6.127,1.973-14.99,2.663-21,5v1h1c1.664,1.512,5.836,1,9,1ZM443,436l10,1q0.5-5.5,1-11c-2.753-.56-6.732-1.952-8-1C443.6,427.08,443.024,431.59,443,436Zm114-7v3l23-1a9.375,9.375,0,0,1,2-2c0.274-.509.7-3.279,1-4h-7v1h-7C565.615,426.989,560.627,428.324,557,429Zm-75-2v2h-1c-0.287,1.674.944,1.747,1,2v6c2.437,0.918,6.193,1.037,10,1v-1h7v-1h1l-3-9H482Zm-22,12h3q-1-5-2-10h-1v10Zm47-3,16-1q0.5-2.5,1-5l-19-1v1h1Q506.5,433,507,436Zm25-6q-0.5,2-1,4l19-1q0.5-1.5,1-3h-2C547.545,428.7,536.576,429.878,532,430Zm175,12v1l-10,2v1h-4v1h-4v1h-4v1c3.757,3.272,5.169,8.755,8,13h1q0.5,1.5,1,3l2,1v2l3,2v2h1q0.5,1.5,1,3l2,1v2l3,2v2l2,1v2l3,2v2h1c1.563,1.673.82,1.6,4,2v-1h4l12-4v-1h-1c-0.7-3.086-2.728-4.643-4-7v-2h-1q-0.5-2-1-4l-2-1v-2h-1v-2h-1v-2h-1v-2h-1v-2l-2-1q-1-3-2-6h-1q-0.5-1.5-1-3l-2-1v-2A39.858,39.858,0,0,0,707,442Zm-331,2a34.58,34.58,0,0,0,2,12c4.386,0.433,15.739,4.652,18,3h1v-7C388.978,450.59,383.833,445.679,376,444Zm282,7q0.5,3,1,6h1q0.5,2.5,1,5h1v2h1v3h1v2h1q1,3,2,6h1v3h1q0.5,2,1,4h1l3,9h1v2h1c1.249,2.358,1.947,4.755,3,7,9.861-1.586,19.065-5.1,28-7v-1c-2.672-1.815-3.165-4.288-5-7l-2-1v-2l-2-1v-2l-3-2v-2l-2-1v-2h-1q-0.5-1.5-1-3l-2-1v-2l-3-2v-2h-1v-2l-2-1v-2h-1v-2l-2-1v-2h-1c-1.559-1.681-.823-1.593-4-2C672.478,452.3,662.458,451.1,658,451Zm-49,10a40.116,40.116,0,0,0,1,9c4.147,0.264,7.817,1.971,11,3l10,1v1c3.663,1.156,6.7-.225,9,2h1v6c-6.871,3.937-9.927,8.41-21,9,0.879,5.034,4.753,10.075,7,14v2l2,1q0.5,1.5,1,3h5c2.3-2.014,4.756-.891,8-2v-1l9-1v-1h4v-1h4v-1h3v-1h3v-1l6-1v-1h-1q-0.5-2-1-4h-1v-2h-1v-2h-1v-3h-1v-2h-1q-0.5-2-1-4h-1q-2-6-4-12h-1q-0.5-2-1-4h-1v-3h-1c-0.992-2.012-4.913-12.408-6-13h-5c-2.239,1.943-5.81.922-9,2A199.273,199.273,0,0,1,609,461Zm-204-6q-0.5,3.5-1,7c1.135,0.844.145-.127,1,1,8.4,0.058,14.2,3.15,22,4q0.5-4,1-8Zm173,4q-0.5,1.5-1,3h1c1.746,2.049,4.051,2.062,8,2v-6A34.218,34.218,0,0,0,578,459Zm-13,0v2a14.809,14.809,0,0,0,6-1v-1h-6Zm-129,2q-0.5,4-1,8l15,3v-8Zm22,6v7c1.135,0.844.145-.127,1,1l5,1v-1h1v-6ZM50,472c4.947,1.266,2.762,2.724,5,6h1l3,4h2l1,2,5,1v1h3v1h3v1h3v1h3v1h2v1h3v1h3v1h3v1h3v1h3v1h3v1h3v1h3v1l6,1v1h2v1h3v1l6,1v1h3v1h3v1h3v1l7,1v1h1c0.535,0.862.475,3.992,1,5h-1q-0.5,1-1,2h-3v1h-2v1h-2v1l-6,2v1h-3v1h-2v1h-2v1l-6,2v1h-3v1l-4,1v1l-6,2v1H97v1H94v1H92v1H90v1H88v1l-6,2v1H79v1l-6,2v1H71v1H69v1H67v1H64l-1,2H61c-1.619,1.185-3.5,5.548-4,8H54l-1-20H52V523h3l2,8a10.6,10.6,0,0,0,4,1l16-5v-1l6-2v-1h2v-1h2v-1h2v-1l4-1v-1h3v-1h2v-1h2v-1h2v-1l11-4v-2l-11-3v-1h-2v-1H97v-1H94v-1H91v-1H88v-1H86v-1l-6-1c-7.009-2.793-12.229-5.723-22-6-0.6,1.155-1.717,1.533-2,2v2H55v4H54v1H51Zm435,2v6c1.135,0.844.145-.127,1,1l24,5q0.5-5,1-10c-3.809-1.422-10.65-1.048-16-1C493.3,473.417,488.273,473.9,485,474Zm35,3c-0.011,5.6,1.476,7.356,2,12,4.626,0.824,8.125,1.938,14,2q0.5-4.5,1-9C530.882,480.984,525.5,478.258,520,477Zm408,0,23,2v10h-1v65a136.049,136.049,0,0,1-23,2v-3c6.028-2.914,14.124-3.786,15-12,2.205-2.37,2.087-10.145,2-15-8.126-2.99-32.107-1.047-43-1-1.744-1.647-6.692-1-10-1-8.737-.007-20.149-2.226-22,5h-1q-0.5,3.5-1,7h-3V503h1v-8h3q0.5,4.5,1,9l2,1c3.168,3.112,6.215.658,11,2,5.524,1.549,14.857,1,22,1h40c0.31-4.914,1.449-7.535,0-12v-4c-0.952-2.359-3.145-3.8-4-7-3.1-.722-4.552-3-7-4h-4v-1h-1v-3Zm-639,7c-2.2,7.544-12.628,8.555-20,11l-7,1-1,2c-4.791,4.416-4.109,3.924-4,13h-1v3a39.688,39.688,0,0,1-8,1c-0.243-1.68-1-6.93-2-8v-2l-3-2v-2l-6-5v-1h-3v-1l-13-1v-1h-3v-1l-3-1c-0.4-4.264-2.069-4.521-3-8,2.165,0.362,3.953,1.787,7,1,2.814-.727,15.888-2.449,20-1v1l4,1c2.278,4.206,6.677,7.118,8,12h2l6-10h2c2.761-2.507,5.906-.8,10-2v-1l12-1c3.49-1.11,6.275-2.736,11-3v1c-1.139,1.139-.4,0-1,2C291.2,482.945,291.426,483.385,289,484Zm254,10,14,3v-1c2.063-2.078,2.839-6.987,4-10h-5c-1.754-1.643-7.389-2.03-11-2v1h-1Q543.5,489.5,543,494Zm-163-9c-0.148,5.978,1.506,25.545,4,28,0.034-8.222,3.43-17.042,5-25Zm-7,56c0.161-19.28-3.725-36.8-4-55h-1v2c-2.031,2.236-.914,4.78-2,8h-1v4c-2.819,8.383-5.17,18.537-8,27q-1,5.5-2,11h1C358.274,540.083,368.313,541.023,373,541Zm196-53-3,11,5,1c0.83-4.462,2.683-6.761,3-12h-5Zm13,2c-0.843,4.55-2.685,7.6-3,13l8,1V490h-5ZM387,543l19,3c2.77-16.386,9.221-31.007,10-50-7.489.021-13.461-2.658-19-5-0.537,6.661-3.2,13.376-5,19v5h-1v4h-1v5h-1v4h-1v4h-1C385.729,536,386.5,539.842,387,543Zm39-39q-3,14-6,28c-1.693,4.985-3.578,10.587-4,17h7c0.3-3.9,1.907-6.253,3-9q0.5-3,1-6h1v-2h1v-3h1v-2h1v-3h1v-3c2.186-5,5.207-10.446,6-17H426Zm4,47,14,2c1.248-3.334,1.047-9.175,1-14,2.123-2.4-.032-7.259,1-11h1V513h1q-0.5-4.5-1-9h-1v1c-2.436,2.27-.8,2.077-2,5h-1v3h-1v3h-1v3h-1Zm28,4c0.892-4.2,3.306-6.824,5-10v-2h1l2-6h1v-2h1v-3h1q-1-13.5-2-27c-3.8-.083-7.565.093-10-1v1c-2.194,2.471-1.881,11.956-2,17v4h-1v28h1v1h3Zm165-41c-0.7-3.62-2.6-6-4-9h-1v3h1q0.5,2.5,1,5Zm105-3q0.5,1.5,1,3h1v2l2,1v2l2,1v2l2,1v2l2,1v2l2,1q0.5,2,1,4l2,1v2l2,1v2l3,2v2h1q0.5,1.5,1,3l2,1v2l3,2v2l4,3v2l4,3v2l16,15v-2h-1q-0.5-3-1-6h-1v-3h-1q-0.5-3-1-6h-1v-2h-1v-3h-1q-0.5-2-1-4h-1v-3h-1q-1-3-2-6h-1v-2h-1v-2h-1v-2h-1v-2h-1v-2h-1v-2l-2-1v-2h-1v-2h-1v-2h-1v-2h-1v-2l-2-1q-0.5-2-1-4h-1c-1.693-2.984-3.165-5.414-4-9l-11,1C732.567,508.068,731.151,510.146,728,511ZM496,534h2c0.244-4.784,4.461-16.045,3-18l-12-4v1c-1.139,1.139-.4,0-1,2,1.759,2,.86,5.384,2,8h1l1,4C493.278,529.4,495.186,530.871,496,534Zm225-20c-3.911.233-6.246,2-9,3h-4v1h-4v1h-3v1h-4v1h-2v1c-3.6,1.947-4.361-.375-5,5h1v3h1q0.5,2,1,4h1v3h1v2h1v2h1v2h1v3h1v2h1v2h1q1,3,2,6h1v3h1q1,3,2,6h1v2h1v2h1v2h1v2h1v2h1v2h1v2l2,1v2h1v2h1v2h1v2l2,1v2h1v2l2,1v2h1q0.5,1.5,1,3l2,1v2l2,1v2l3,2v2l3,2c3.408,4.863,2.656,8.677,11,9v-1l5-1q0.5-1,1-2l4-1v-1h2q0.5-1,1-2h2v-1l6-5v-3h-1q-1-5-2-10h-1v-3h-1q-0.5-2.5-1-5h-1v-2h-1v-3h-1q-0.5-2-1-4h-1v-3h-1q-1-3-2-6h-1v-2h-1q-1-3-2-6l-2-1q-1-3-2-6l-2-1q-0.5-2-1-4l-2-1q-0.5-2-1-4l-2-1v-2h-1q-0.5-1.5-1-3l-2-1v-2l-2-1v-2h-1q-0.5-1.5-1-3l-2-1v-2l-2-1v-2l-2-1q-0.5-1.5-1-3h-1Q721.5,515.5,721,514Zm-211,4q-3,12.5-6,25h6v-1h4v-1l10-2v-1c1.91-1.624,2-3.345,2-7h-1v-4h-1q-0.5-3.5-1-7h-1v-1h-7v-1h-5Zm25,5c-0.292,5.2-.892,7.132,0,12l10-1q0.5-1.5,1-3h1c0.535-.862.475-3.992,1-5h-1v-1Zm19,8,7-2v-1l-5-1C555.055,528.8,554.615,528.574,554,531Zm138,66c-0.18,4.5-1.465,5.359-3,8v2h-1q-0.5,1-1,2c-2.324,1.838-1.734-1.049-3,3,3.192,2,3.89,4.88,6,8l2,1v2l2,1v2l2,1v2h1q0.5,1.5,1,3l2,1v2h1l5,6h8c1.139-1.139,0-.4,2-1,1.212-2.128,2.252-2.177,3-5h1v-6h-1v-4h-1v-3h-1q-0.5-4-1-8h-1v-4h-1v-5h-1q-0.5-3.5-1-7h-1v-3h-1v-3h-1q-0.5-3-1-6h-1v-2h-1q-0.5-3-1-6h-1v-2h-1q-0.5-3-1-6l-20-42c-11.6,4.939-23.045,11.171-37,14v1c3.108,2.175,2.093,3.973,4,7l2,1v2h1v2h1v2h1v2l2,1q1,3,2,6l2,1v2h1v2h1v2h1v2l2,1v2h1v2h1v2h1v2h1v2h1v2l2,1q0.5,1.5,1,3h2ZM490,540a18.223,18.223,0,0,0,1,7h1v-1h1v-3C491.7,541.952,491.511,540.957,490,540ZM266,563l-5-1-1-2-4-1v-1h-6l-5,6-2,1v2l-3,2v2l-2,1v2h-1l-1,3c2.049,1.746,2.062,4.051,2,8-3.256,1.895-3.633,3.731-9,4-0.5-1.3-.379-2.343-1-4h-1c-0.865-2.5.294-5-1-7l-7-6c-11.783-.134-13.89,4.764-25,5l-1-3,6-5v-1h2q0.5-1,1-2h2l3-4h2q0.5-1,1-2h7l10,9v1h3c1.67-9.661,14.357-27.627,25-28,1.139,1.139,0,.4,2,1C259.855,549.282,265.459,554.665,266,563Zm375,23,21,3v-1c-1.943-1.8-.85-1.9-2-4h-1v-2h-1v-2h-1v-2h-1v-2h-1v-2h-1v-2h-1v-2h-1v-2l-2-1q-0.5-2-1-4h-1v-2h-1v-2h-1v-2h-1v-2h-1c-2.79-5.2-2.834-12.149-10-13-2.045,2.42-3.466,1.635-4,6h1q1,5,2,10h1v4C636.412,568.752,640.493,577.785,641,586Zm-21-37,7,35,6,1-10-36h-3Zm-39,5c-1.665,1.89-3.5,1.7-5,4-1.3,1.437-3.861,12.812-4,16a15.682,15.682,0,0,0,6,1v-1h1C579.17,568.918,583.145,556.6,581,554Zm8,5-3,18a10.6,10.6,0,0,0,4,1c1.248-3.334,1.047-9.175,1-14h-1v-5h-1Zm-23,1-7,2q-1,5-2,10a15.682,15.682,0,0,0,6,1v-1h1Q565,566,566,560Zm-18,4v1h-3v1h-1l2,5h1v-1h1q0.5-3,1-6h-1Zm-189,4c0.347,4.2,2.524,7.534,4,11,1.139-1.139.4,0,1-2,1.8-1.741,2-4.394,2-8A29.413,29.413,0,0,1,359,568ZM318,678a60.687,60.687,0,0,0,12-1c1.118-5.975,3.971-11.865,6-17q0.5-3,1-6h1v-2h1q0.5-3,1-6h1v-3h1v-3h1v-3h1v-2h1q1-4.5,2-9h1v-2h1q0.5-3,1-6c1.476-3.7,8.681-17.5,7-23h-1v-3h-1l-1-4h-1v-3h-1l-1-4h-1v-3h-1l-3-8h-1q-1,5.5-2,11h-1v4h-1v4h-1v4h-1v4h-1v3h-1q-0.5,4-1,8c-2.888,8.444-5.153,18.623-8,27q-0.5,4-1,8c-1.612,4.713-3.391,11.287-5,16v4h-1Zm74-103-3-1v15h1c1.894,3.456-1.473,10.282,2,14,0.337-5.675,5.7-12.531,4-18C394.918,581.521,392.512,579.533,392,575Zm15,4-3,15h1v-1c2.652-2.278,4.8-9.19,5-14h-3Zm-40,2v2h1C367.426,580.99,368.12,582.135,367,581Zm52,0-3,10h-1l-3,13h-1v3h-1c-0.621,2.569,2.382,7.429,3,9v3h1v3h1v3h1v3c0.735,1.864,2.154,4.921,3,7,1.139-1.139.4,0,1-2,3.1-2.763,3.923-8.105,6-12h1v-2h1v-2h1v-2h1v-2h1v-2h1l1-4h1v-2h1v-3h1v-2h1v-2h1l4-12h-1C438.519,583.555,424.533,581.051,419,581Zm-43,2c-0.49,5.558-2.761,7.72-3,14,1.614,1.328,2.069,2.849,4,4,0.844,1.135-.127.145,1,1V591h-1v-8h-1Zm75,5q-3,51-6,102a12.71,12.71,0,0,0,5,1c0.844-1.135-.127-0.145,1-1q5.5-50.495,11-101Zm17,4c0.016,7.6-.34,15.084-2,21v11h-1v11h-1v12h-1v12h-1v8c-0.036,4.5-2.7,13.857,0,17q2.5-11.5,5-23h1v-4h1v-3h1v-3h1q0.5-3.5,1-7h1v-4h1v-6h1V619h-1q-1-13.5-2-27h-4Zm39,16h2q0.5-4.5,1-9a14.809,14.809,0,0,1-6-1v3C505.278,602.248,506.562,605.867,507,608Zm-12-6c-0.113,16.17,2.787,31.752,3,47h1v-1c1.963-2.029.979-4.8,2-8h1v-5h1q1-6,2-12h-1v-3h-1l-1-4h-1v-3h-1v-2h-1C497.361,607.308,497.876,604.449,495,602Zm23,0c-1.362,7.661-3.891,11.157-4,21h1q1-4.5,2-9h1v-2h1v-3h1q0.5-2,1-4h-1C519.393,602.607,519.682,603.142,518,602Zm13,0a12.71,12.71,0,0,0-1,5c1.4,1.2,2.207,3.241,3,5,1.139-1.139.4,0,1-2,1.634-1.5,1.954-4.978,3-7h-1v-1h-5ZM336,677h8c0.844-1.135-.127-0.145,1-1,0.4-5.374,2.524-10.633,4-15q0.5-4.5,1-9h1v-4h1v-4h1v-5h1q0.5-4,1-8c2.635-7.731,4.767-13.451,5-24h-1v-1h-1q-2.5,9.5-5,19h-1l-7,25h-1q-1,4.5-2,9C339.862,664.36,336.806,670.4,336,677Zm245-71q-4,24.5-8,49c7.6,0.042,14.433-1.722,21-3V638h-1v-9c-0.007-7.752.149-16.76-1-23H581Zm-35,1c-0.819,2.1-2.261,5.13-3,7v3c-1.245,3.15-2.715,5.357-3,10,2.224,1.942,3.743,6.207,5,9h1q1-5,2-10c0.806-2.1,3.342-5.77,2-10h-1v-3h-1q-0.5-3-1-6h-1Zm26,0h-9v1h-1q-1,4.5-2,9h-1l3,12h1v4c0.694,2.014,2.136,5.081,3,7h1C567.119,628.2,571.667,619.158,572,607Zm59,57q-2-15-4-30h-1v-6c-1.822-5.947-2.685-14.437-5-20h-1v13c2.519,2.939-.239,9.584,1,14,2.38,8.484.054,21.925,3,30A34.651,34.651,0,0,1,631,664Zm18-55q1,5,2,10h1v4h1v3h1v4h1l3,11c3.57,1.335,9.913,1.048,15,1l2,3h1v2h1c1.645,4.311-1.663,10.991,1,14v-1h4v-1h2v-1h1v-1h1v-2h1c1.01-2.994-3.239-11.078-4-13q-0.5-3.5-1-7h-1v-3h-1v-3h-1v-3h-1v-3h-1v-2h-1v-3h-1a40.126,40.126,0,0,1-3-8Zm-273,3,2,6h1v-3C377.7,613.952,377.511,612.957,376,612ZM97,639l-1-3H95v-2H94V621h1l1-3,2-1v-1h2c2.269-1.3,6.229-4.48,11-3v1h4v1c4.333,1.108,5.114,4.586,8,7q0.5,4.5,1,9h-1v4h-1l-1,3-2,1v1h-2c-2.308,1.321-6.186,4.433-11,3v-1h-4v-1h-2v-1Zm791-25c5.568-.07,7.945,1.149,12,2l6,7q0.5,5,1,10h-1v3l-2,1v2c-0.895,1.141-4.615,2.334-6,4l-10,1c-2.214-.7-4.223-2.375-7-3-1.794-3.237-3.7-3.951-4-9h-1c-1.093-1.865,1.434-8.448,2-9,1.068-4.1,3.645-5.154,7-7v-1h3v-1Zm-450,2-11,25h-1v2h-1v2h-1c-0.991,2.807.241,7.329,1,9h1q0.5,3,1,6h1v3h1v2h1v3c1.088,2.692,2.791,6.049,4,9h1v-7c2.271-2.551-.084-8.048,1-12h1q1-15,2-30C439.023,624.309,439.8,618.035,438,616Zm87,1c-0.66,6.054-7.658,14.332-5,22h1q0.5,2,1,4h1v-1c3.3-2.787,8.644-19.409,4-24C525.861,616.861,527,617.6,525,617Zm203,44,13-1,37-43h-1c-1.993,3-.912.447-3,2l-5,6h-2l-4,5h-2l-5,6h-2l-6,7h-2l-6,7h-2l-7,8-3,1v2ZM406,619c-0.749,3.656-7.655,17.5-6,19,1.286,6.343,7.283,11.334,10,17,1.139-1.139.4,0,1-2,1.971-1.678,3.384-5.042,4-8h1v-1h-1v-2h-1v-3h-1v-3h-1v-3h-1v-3h-1v-3h-1v-3h-1q-0.5-2.5-1-5h-1Zm-51,57,18-1,1-3c1.976-2.023.963-4.81,2-8,0.683-2.1,3.362-6.149,2-10h-1v-2h-1q-0.5-3-1-6h-1v-2h-1q-0.5-3-1-6l-5-11h-1c-0.309,4.145-1.921,7.818-3,11Q359,657,355,676Zm200-18,5-1c-0.2-7.756-3.579-13.357-5-20h-1l-3,13h1v2l2,1Q554.5,655.5,555,658Zm-20-19-4,13h-1v9h1v1l6-1q0.5-1.5,1-3c2.57-2.2,3.039-6.152,3-11C538.47,644.745,537.942,640.905,535,639Zm-139,7c-0.381,3.612-2.369,9.279-1,14h1v6h1q0.5,2.5,1,5c2.078,1.094,1.771,1.611,5,2,1.02-5.047,3.621-7.882,4-14C403.163,655.671,401.242,647.508,396,646Zm118,3c-1.076,5.823-3.74,9.021-4,16l6-1c1.847-3.494,2.071-5.13,2-11h-1v-3h-1C514.861,648.861,516,649.6,514,649Zm-95,9c-1.117,2.565-2.353,4.794-3,8,5.9,3.959,6.7,13.322,13,17q-2.5-6-5-12v-3h-1v-3h-1C420.552,661.4,422.2,660.154,419,658Zm49,32,9-1q-0.5-14-1-28h-1v2c-2.031,2.238-.914,4.78-2,8C471.1,676.626,468.67,683.335,468,690Zm106-21v4a10.6,10.6,0,0,0,4,1l17-4v-3C586.717,666.9,580.852,668.3,574,669ZM408,695l19-1-2-6-2-1-1-4-2-1v-2l-2-1v-2h-1v-2h-1l-1-3h-2c-1.462,3.186-8.293,13.628-7,18h1Q407.5,692.5,408,695Zm135-15,12-2q-1-3-2-6l-8,1q-0.5,1.5-1,3h-1v4Zm316,92c-0.247,2.243-.09,2.654-1,4h-1v2l-2,1v2l-2,1v2l-3,2v2h-1q-0.5,1.5-1,3l-2,1v2h-1l-3,4-3-1v-1c2.609-1.7,3.013-4.661,3-9l-8-9h-2q-0.5-1-1-2h-2l-2-3h-2q-0.5-1-1-2h-2l-2-3h-2q-0.5-1-1-2h-2l-2-3h-2q-0.5-1-1-2h-2l-2-3h-2v-1l-3-1q-0.5-1-1-2h-2l-2-3c-2.817-1.966-5.88-2.421-8-5-8.076.111-8.52,3.647-16,4a18.931,18.931,0,0,1,3-7l2-1v-2l2-1v-2l2-1q0.5-1.5,1-3h1q0.5-1.5,1-3l16-1v-1h10v-1h10v-1h10v-1h10v-1c6.528-1.865,16.945,1.064,21-3l-4-2q-0.5-1-1-2h-2q-0.5-1-1-2h-2l-2-3h-2q-0.5-1-1-2h-2l-2-3h-2q-0.5-1-1-2h-2l-2-3h-2l-2-3a31.9,31.9,0,0,0-13-5c-1.705,2.046-2.236.831-4,2l-2,3h-3q-0.5-1.5-1-3h1c0.491-2.088,2.716-5.5,4-7l2-1v-2l2-1v-2l2-1v-2h1q0.5-1.5,1-3l2-1q0.5-1.5,1-3h3v1h1c-0.7,2.888-3.89,7.806-1,11,1.984,7.063,11.379,10.253,17,14v1l3,1q0.5,1,1,2h2l2,3h2v1l3,1q0.5,1,1,2h2l2,3h2v1l3,1q0.5,1,1,2h2l2,3h2v1l3,1q0.5,1,1,2h2l2,3,9,5q-0.5,1.5-1,3c-6.98,2.584-17.526,1.888-25,4H855v1h-9v1h-9v1H827c-7.549,2.148-17.813,2.9-27,3v1c1.261,0.674,1.358,1.566,2,2h2l2,3h2q0.5,1,1,2h2q0.5,1,1,2h2v1l3,1q0.5,1,1,2h2l2,3h2v1l3,1q0.5,1,1,2h2l2,3h2l2,3,3,1,2,3,9,1A13,13,0,0,1,859,772ZM529,682q-1-3-2-6h-3c-1.339,2.523-1.99,3.5-2,8h1v-1Zm-25-3a19.149,19.149,0,0,1-2,7h6a7.742,7.742,0,0,1,3-2q0.5-3,1-6ZM198,754l-1-4h1v-2h1c1.933-3.847,7.346-16.736,5-24-4.544-14.069-17.918-25.034-36-19h-4v1h-2v1l-9,3q-0.5,1-1,2h-2q-0.5,1-1,2h-2l-2,3c-3.257,3.2-7.533,6.087-10,10l-1,4h-1v2h-1v3h-1c-2.11,6.667,1.261,14.682,3,18l2,6,4,3,4,5c5.934,3.976,15.048,6.136,25,6v5l-18-1v-1h-3v-1l-6-2q-0.5-1-1-2h-2l-6-7-3-2v-2l-2-1v-2l-2-1-2-6h-1l-1-4h-1v-4c-1.019-3.114-3.612-11.676-2-17h1v-4h1v-3h1l2-6h1v-2l2-1v-2l5-4,4-5c7.745-5.473,23.279-13.143,37-9h5l14,7,3,4,6,5v2l2,1,1,4h1v2h1l2,6h1l4,12c4.77-.1,6.362.6,9,2-0.844,1.135.127,0.145-1,1-2.508,4.344-6.981,6.118-11,9l-2,3-3,1v1C202.8,751.824,201.367,753.252,198,754Zm116-64c-0.911,4.88-2.8,7.965-3,14h8c2.063-4.112,4.026-9.642,6-14h-3v-1c-1.669-.269-1.745.944-2,1h-6Zm17,0-4,12h7v-1h4a19.4,19.4,0,0,0-2-9C333.922,690.906,334.229,690.389,331,690Zm437,71v5l-2,1v4h-1v1l23,81c-2.612,1.382-1.693,1.769-6,2-2.856-3.336-7.239-4.492-11-7v-1l-3-1q-0.5-1-1-2h-2q-0.5-1-1-2h-2q-0.5-1-1-2h-2v-1l-3-1q-0.5-1-1-2h-2q-0.5-1-1-2h-2q-0.5-1-1-2h-2q-0.5-1-1-2l-9-5v1c2.029,2.248.91,4.776,2,8h1v4c1.506,4.457,3.474,10.467,5,15v4h1q0.5,4.5,1,9h1v4a30.252,30.252,0,0,1,2,8h1v1h-1c-1.354,1.587-2.169,1.737-5,2-2.164-2.544-5.122-3.076-8-5q-0.5-1-1-2h-2l-2-3h-2q-0.5-1-1-2h-2v-1l-3-1q-0.5-1-1-2h-2l-2-3h-2q-0.5-1-1-2h-2q-0.5-1-1-2l-3-1-2-3h-2q-0.5-1-1-2h-2l-2-3h-2l-2-3h-2l-2-3h-2q-0.5-1-1-2h-2l-2-3h-2l-2-3h-2v-1l-4-1v-1h-6v1l-4-1v-2h2c1.971-3.229,4.934-3.838,8-6l2-3h2q0.5-1,1-2h2l2-3,4-1q0.5-1,1-2h2v-1l3-1v4c-2.934,1.661-3.1,3.241-3,8,2.451,1.382,3.272,3.772,5,5h2q0.5,1,1,2h2l2,3h2v1l3,1q0.5,1,1,2h2l2,3h2q0.5,1,1,2h2v1l3,1q0.5,1,1,2h2l2,3h2q0.5,1,1,2h2q0.5,1,1,2h2c0.606,0.406.794,1.332,2,2v-4q-4-15.5-8-31c-4.358-2.4-16.351-13.634-23-12v1l-6,1v-3c1.248-.666,1.378-1.585,2-2h2q0.5-1,1-2h2l2-3h2q0.5-1,1-2h2q0.5-1,1-2h2v-1l3-1q0.5-1,1-2h2q0.5-1,1-2a14.658,14.658,0,0,1,8-4v4h-2c-1.708,2.937-2.891,2.863-3,8,1.23,0.97,1.971,3.239,3,4l3,1q0.5,1,1,2h2q0.5,1,1,2l3,1v1h2q0.5,1,1,2h2q0.5,1,1,2h2q0.5,1,1,2h2q0.5,1,1,2h2q0.5,1,1,2l4,1q0.5,1,1,2h2q0.5,1,1,2h2q0.5,1,1,2l4,1q0.5,1,1,2l3,1v-3h-1q-0.5-3.5-1-7h-1v-4h-1v-3h-1q-0.5-3.5-1-7h-1q-0.5-3.5-1-7h-1q-1-5.5-2-11h-1v-4h-1c-2.342-6.119-.054-8.906-9-9-0.525.9-3.2,3.769-5,3v-1c-1.139-1.139-.4,0-1-2,1.252-.675,1.362-1.569,2-2h2l2-3h2l2-3h2q0.5-1,1-2h2q0.5-1,1-2h2v-1C765.364,761.078,765.761,761.3,768,761ZM237,868c-3.722-.773-5.7-2.832-8-5q-0.5-1-1-2h-2q-0.5-1-1-2l-5-4-2-3c-3.7-2.686-8.707-5.03-10-10,3.271,0.218,9.339,3.237,10,3v-1h2c2.576-1.459,6.284-13.151,7-17-3.378-.869-6.649-4.778-9-7q-0.5-1-1-2h-2l-3-4-7-6c-3.774.583-14.782,5.431-16,8v5c2.729,1.541,3.013,2.6,3,7h-1v-1l-3-1-4-5h-2l-2-3-9-8v-2l14,1v-1l4-1v-1l5-1q0.5-1,1-2h2v-1h2v-1h2v-1h2v-1h2v-1h2v-1h2v-1h2v-1l6-2v-1h3v-1h2v-1h2v-1l6-2v-1h3v-1h2v-1l4-1v-1h2v-1h2v-1h2v-1h2v-1h2v-1c3.452-1.854,7.606-2.171,10-5,2.01,0.574.865-.12,2,1,1.518,0.954,1.694,1.954,3,3-4.814,11.441-9.079,24.659-14,36v3h-1v3h-1v3h-1v3h-1v3h-1v2h-1q-1,4.5-2,9h-1v2h-1v3h-1l-1,4h-1q-1,4.5-2,9h-1c-1.631,5.308,2.137,6.676,3,9v3Zm3-79c-2.255,2.467-5.016,2.4-8,4v1h-2v1h-2v1h-2v1h-2v1h-2v1h-2v1h-2q-0.5,1-1,2h-2v1c-2.013,1.14-2.443.175-4,2h1l3,4h2l8,9h2l2,3c1.4,0.168-.295-0.432,1-1l13-31h-3Zm59,76-2,6h-1v2h-1v2h-1v2h-1v2h-1v2l-2,1c-1.647,2.7-1.88,6.758-2,11,1.195,0.946,1.3,2.492,2,3h2v1l3,1v3c-5.22-.133-6.764-2.261-10-4l-4-1v-1l-4-1v-1h-2v-1h-2v-1h-2v-1h-2v-1h-2v-1h-2v-1c-3.029-1.725-5.264-2.031-7-5a10.6,10.6,0,0,1,4-1c2.33,2.461,4.835,1.6,8,1l2-3h1v-2h1v-2h1v-2h1v-2h1v-2h1l1-4h1v-2h1v-2h1v-2h1v-2h1l2-6,2-1v-2h1v-2h1v-2h1v-2h1v-2h1v-2c3.659-6.844,9.326-12.231,10-22-1.263-.981-1.936-3.192-3-4h-2v-1c-1.473-1.372-1.332-.5-2-3h1v-1c5.383,1.014,9.761,4.7,14,7l4,1,1,2,4,1v1h2v1l6,2v1h3v1h2v1h2l1,2,4,1,1,2h2l2,3,3,1v2l3,2c7.56,11.584.7,32.339-10,35-1.661,1.714-12.63,3.35-17,2v-1h-4v-1h-3v-1h-2v-1h-3v-1h-2v-1h-2C305,867.4,303.443,865.592,299,865Zm4-4c4.258,0.446,6.055,2.073,9,3,6.152,1.936,13-1.207,17-2,2.748-4.562,12.376-11.56,9-22-0.718-2.219-2.378-4.216-3-7-4.914-2.855-7.1-6.6-15-7l-2,3h-1v2h-1l-2,6h-1l-3,9-2,1v2C305.843,852.833,303.642,855.32,303,861Zm319-19h18v1h4v1h2v1l5,1q0.5,1,1,2h2l2,3h2q0.5,1,1,2l4,3v2l3,2v2h1v2h1v2h1v2h1q0.5,2,1,4h1q0.5,4,1,8c2,6.412,1.4,20.534-1,26h-1q-1,3-2,6l-2,1v2l-7,6-2,3h-2q-0.5,1-1,2l-6,2v1l-10,2v1c-4.192,1.239-18.024.071-21-1-12.962-4.665-24.056-17.247-29-30q-0.5-4.5-1-9h-1c-1.665-5.814.44-20.434,2-24h1v-2h1q1-3,2-6l2-1v-2l5-4q0.5-1,1-2h2q0.5-1,1-2h2q0.5-1,1-2h2v-1h3v-1h2v-1C617.128,842.78,619.7,844.079,622,842Zm-253,2c6.376,0.164,12.076,2.417,17,4h5v1h4v1h4v1h4v1h4v1h4v1l28,6q-2,9.5-4,19h-3q-0.5-3.5-1-7h-1c-2.016-7.472-11.927-9.623-19-12h-4v-1l-11-2-2,3h-1l-6,27c6.485,0.652,11.611,3.4,17,5,2.784,0.824,8.73.105,10-1,3.783-.919,5.545-3.8,7-7,2.01,0.574.865-.12,2,1h1v4l-7,25c-2.01-.574-0.865.12-2-1h-1v-5c-1.379-4.027-3.664-7.879-8-9v-1l-7-1v-1h-4v-1h-5v-1h-3v-1c-1.353-.41-0.106.342-1,1h-1q-0.5,3.5-1,7h-1v4c-2.188,6.509-4.846,12.492-5,21l3,2v1h2v1h3c7.076,2.843,21.56,6.791,30,3v-1h2l1-2h2l1-2,4-3,1-2h4q-0.5,2.5-1,5l-2,1-1,4h-1v2l-6,10-25-7h-4v-1l-43-10v-1c1.139-1.139.4,0,1-2,4.442,0.44,4.8.754,9,0,0.988-1.918,3.229-4.093,4-6q0.5-4,1-8c1.519-4.456,3.467-10.467,5-15q0.5-4,1-8h1v-4h1v-4h1v-4h1v-4h1c2.248-5.97,2.848-11.052,3-19-2.736-1.528-4.869-3.563-8-5v-3Zm271,10a8.482,8.482,0,0,1-4-2v-1l-5-1v-1c-7.532-2.4-14.368,1.975-19,3l-4,5h-1q-1,3-2,6h-1v4c-1.986,6.259-.733,13.755,1,19v4h1v3h1v3h1v3h1q0.5,2,1,4h1q0.5,2.5,1,5h1q0.5,1.5,1,3l2,1v2l7,6q0.5,1,1,2c1.684,1.155,2.259.03,4,2l13,1v-1c5.723-2.11,11.453-2.862,13-9,2.333-1.991,5.756-14.094,4-20h-1v-5h-1q-0.5-4-1-8h-1v-3h-1v-2h-1v-3h-1q-0.5-2-1-4h-1q-0.5-2-1-4h-1v-2h-1v-2l-2-1v-2h-1C641.557,857.233,640.748,856.589,640,854Zm-76,8,3,22h-3v-1h-1q-0.5-2.5-1-5h-1v-2h-1v-2h-1q-0.5-1-1-2h-2q-0.5-1-1-2h-4v-1l-15,1q0.5,14,1,28h1v16h1v23h1q0.5,3,1,6l3,1v1h8v3c-11.847,2.087-26.592,1.974-41,2l1-3c12.346-.207,10.449-8.8,10-21-2.559-2.934-.779-13.106-1-18-0.527-11.7-2.057-24.336-2-37H506c-2.219.725-4.217,2.369-7,3l-4,5h-1q-1,4.5-2,9h-3v-4h-1v-4h1V866Z" id="Color_Fill_1" class="cls-1" data-name="Color Fill 1"/>
</svg>
