<svg xmlns="http://www.w3.org/2000/svg" viewBox="0 0 512 512" xmlns:xlink="http://www.w3.org/1999/xlink">
 <defs>
  <style>.cls-1{mask:url(#mask);filter:url(#luminosity-noclip-2);}.cls-2,.cls-9{mix-blend-mode:multiply;}.cls-2{fill:url(#linear-gradient);}.cls-3{isolation:isolate;}.cls-4{fill:#fff;}.cls-5{fill:#065bae;}.cls-6{fill:#5cb9ab;}.cls-7{mask:url(#mask-2);}.cls-8{opacity:0.4;mix-blend-mode:lighten;fill:url(#linear-gradient-2);}.cls-9{fill:#e6e6e6;opacity:0.83;}.cls-10{filter:url(#luminosity-noclip);}</style>
  <filter x="114.98" filterUnits="userSpaceOnUse" height="32766" y="-8448" id="luminosity-noclip" color-interpolation-filters="sRGB" width="167.76">
   <feFlood result="bg" flood-color="#fff"/>
   <feBlend in="SourceGraphic" in2="bg"/>
  </filter>
  <mask x="114.98" height="32766" y="-8448" id="mask" width="167.76" maskUnits="userSpaceOnUse">
   <g class="cls-10"/>
  </mask>
  <linearGradient x1="-2391.06" y2="-1486.12" gradientTransform="matrix(0.47, 0.16, -0.22, 0.65, 972.51, 1628.32)" gradientUnits="userSpaceOnUse" y1="-1871" x2="-2391.06" id="linear-gradient">
   <stop offset="0" stop-color="#fff"/>
   <stop offset="0.15" stop-color="#d0d0d0"/>
   <stop offset="0.38" stop-color="#939393"/>
   <stop offset="0.58" stop-color="#626262"/>
   <stop offset="0.76" stop-color="#3e3e3e"/>
   <stop offset="0.91" stop-color="#292929"/>
   <stop offset="1" stop-color="#212121"/>
  </linearGradient>
  <filter x="114.98" filterUnits="userSpaceOnUse" height="252.73" y="37.89" id="luminosity-noclip-2" color-interpolation-filters="sRGB" width="167.76">
   <feFlood result="bg" flood-color="#fff"/>
   <feBlend in="SourceGraphic" in2="bg"/>
  </filter>
  <mask x="114.98" height="252.73" y="37.89" id="mask-2" width="167.76" maskUnits="userSpaceOnUse">
   <g class="cls-1">
    <path d="M159.82,288.09c-17.58-5.85-31.36-21.37-38.79-43.7-9.41-28.26-7.78-64.16,4.48-98.45,12.66-35.43,32.54-66,56-86,21.67-18.5,43.87-25.87,60.89-20.22,33.08,11,54,73.39,30.12,155.08-9.8,33.59-29.63,62.93-54.42,80.51-19.89,14.1-40.54,18.64-58.16,12.79Z" class="cls-2"/>
   </g>
  </mask>
  <linearGradient x1="-2391.06" y2="-1486.12" gradientTransform="matrix(0.47, 0.16, -0.22, 0.65, 972.51, 1628.32)" gradientUnits="userSpaceOnUse" y1="-1871" x2="-2391.06" id="linear-gradient-2">
   <stop offset="0" stop-color="#fff"/>
   <stop offset="1" stop-color="#fff"/>
  </linearGradient>
 </defs>
 <title>Stipe Egg</title>
 <g class="cls-3">
  <g id="Layer_1" data-name="Layer 1">
   <path d="M259.51,484.06c98-1.65,179.49-104.56,172-219.34C422.4,124.2,336.32,26.51,251.84,27.93h-.2C170,29.31,81.71,129.83,80,270.63c-1.45,119.73,81.33,215.07,179.3,213.43Z" class="cls-4"/>
   <path d="M425.8,219.8a358,358,0,0,1,5.22,38c-116.46,3.17-234.39,5.47-350.89,6.94a331.44,331.44,0,0,1,3.23-37.44C158.84,218.72,388.14,217.54,425.8,219.8Zm-165,209.61c-46.46.92-95.36,2-127.2-8.34a21.78,21.78,0,0,1-4.43-2.07,191.2,191.2,0,0,0,29.19,29.2c29,9.57,75.17,7.9,111.22,6.84,31.58-.93,63.94-1.67,87.75-9.44a196.26,196.26,0,0,0,28.57-29.84c-15.36,6.27-36.79,8.4-58.22,10.3S284.12,428.94,260.79,429.41ZM426.59,295.8c-50.19,6.41-110.91,5.59-172.47,6.81-28.64.57-58.84.49-87.66,1.06-27.85.55-61.39.93-85-2.73A240.52,240.52,0,0,0,92,349.88a25.07,25.07,0,0,0,5,2,138.91,138.91,0,0,0,20.08,3c41.94,3.86,89.36,3,134,2.09,60.33-1.2,122.11-2.27,171.46-12.88A225.55,225.55,0,0,0,431.46,295C429.87,295.31,428.26,295.59,426.59,295.8ZM251.84,27.93h-.2c-21.1.36-42.64,7.35-63,19.95,38.79-7,88.3-8.3,127.13-2.47C295.22,33.72,273.48,27.57,251.84,27.93ZM170.1,138.64c75.62-5,161.73-6.23,229.39,1.6a263.59,263.59,0,0,0-25.2-41.47C337.55,91,239.37,90,150.64,100.2a190.69,190.69,0,0,0-19.57,3.38,260.93,260.93,0,0,0-24.44,43C125.73,141.16,147.67,140.11,170.1,138.64Z" class="cls-5"/>
   <path d="M431,257.8c.19,2.3.37,4.6.52,6.92a226.24,226.24,0,0,1-.14,31.12c-51.75,6.26-114.13,5.52-177.37,6.77-29.68.59-61,.53-90.84,1.13-26.42.52-57.74.88-81.62-1.84A253.07,253.07,0,0,1,80,270.63c0-2,.07-3.93.13-5.89C196.66,263.21,314.52,260.91,431,257.8ZM179.27,393c-26.55-.66-52.79-.32-71.58-6.43a209.61,209.61,0,0,0,23.88,35.33c33,9.5,82.35,8.43,129.27,7.5,24.19-.48,47.22-1.5,69.33-3.41,19.44-1.68,38.87-3.55,54.1-8.2a213.8,213.8,0,0,0,23.24-36.2c-19.3,5.21-43.06,6.6-66.6,8.21C288,393.44,232.61,394.36,179.27,393Zm87.57,90.72,2.13-.15c1.26-.1,2.51-.23,3.77-.36l.58-.07a152.69,152.69,0,0,0,62.1-21.77c-21.45,5.06-48.66,6.88-75.22,7.41-28.89.58-57.64-.33-79.82-5.55a153.88,153.88,0,0,0,65,20.4l.68,0q1.81.13,3.63.22l2.17.08c.84,0,1.67.07,2.51.08q2.4,0,4.83,0h.3c1.62,0,3.23-.08,4.84-.17C265.18,483.85,266,483.78,266.84,483.72Zm-116-404.49c13-2.14,28.73-3.1,39.33-4.12,52-5,108.69-5.65,157.42.28,2.49.31,5,.57,7.51.84A179.06,179.06,0,0,0,315,45C276.2,39.79,228,41,189.33,47.44A185.32,185.32,0,0,0,150.82,79.23Zm-20.24,95.5c87.67-5.68,196.84-9.53,282.31-2.56a297.76,297.76,0,0,0-13.75-32.63c-69.21-7.11-155.78-5.73-232.07-.84-21,1.34-41.48,2.37-59.83,6.51A287.55,287.55,0,0,0,94.71,177.7C106.2,176.65,118.19,175.53,130.58,174.73Z" class="cls-6"/>
   <g class="cls-7">
    <path d="M159.82,288.09c-17.58-5.85-31.36-21.37-38.79-43.7-9.41-28.26-7.78-64.16,4.48-98.45,12.66-35.43,32.54-66,56-86,21.67-18.5,43.87-25.87,60.89-20.22,33.08,11,54,73.39,30.12,155.08-9.8,33.59-29.63,62.93-54.42,80.51-19.89,14.1-40.54,18.64-58.16,12.79Z" class="cls-8"/>
   </g>
   <path d="M214.65,436.67l.24,0C327.7,414.79,393.05,288.33,365.1,134.5A578.28,578.28,0,0,0,350.46,71.8h0l.07.09c37.72,45.61,67.77,115.23,73.33,193.76C432,379.76,367.73,467.38,265.64,469.73h-.21c-37.56.86-70.13-9.43-96.28-28.68C183.18,441.67,200.4,439.42,214.65,436.67Z" class="cls-9"/>
  </g>
 </g>
</svg>
