<?xml version='1.0' encoding='utf-8'?>
<!-- Generator: Adobe Illustrator 19.1.0, SVG Export Plug-In . SVG Version: 6.00 Build 0)  -->
<svg id="Layer_1" baseProfile="tiny" xmlns="http://www.w3.org/2000/svg" viewBox="-240 332 130 130" xml:space="preserve" version="1.1" x="0px" y="0px" xmlns:xlink="http://www.w3.org/1999/xlink">
 <g id="Layer_1_1_">
  <path d="M-175,334.6c-34.4,0-62.4,27.9-62.4,62.4c0,34.4,27.9,62.4,62.4,62.4s62.4-27.9,62.4-62.4&#xd;&#xa;&#x9;&#x9;C-112.6,362.6-140.6,334.6-175,334.6z M-170.8,398.8l-31.5,22c-1.4,1-2.6,0.4-2.6-1.3v-44.9c0-1.7,1.1-2.3,2.6-1.3l31.5,22&#xd;&#xa;&#x9;&#x9;C-169.3,396.2-169.3,397.8-170.8,398.8z M-132.9,398.8l-31.5,22c-1.4,1-2.6,0.4-2.6-1.3v-44.9c0-1.7,1.2-2.3,2.6-1.3l31.5,22&#xd;&#xa;&#x9;&#x9;C-131.5,396.2-131.5,397.8-132.9,398.8z" fill="#000000"/>
 </g>
 <g id="Layer_2">
  <g>
   <path d="M-167,374.5c0-1.7,1.2-2.3,2.6-1.3l31.5,22c1.4,1,1.4,2.6,0,3.6l-31.5,22c-1.4,1-2.6,0.4-2.6-1.3V374.5z" fill="#FFFFFF"/>
   <path d="M-204.8,374.5c0-1.7,1.2-2.3,2.6-1.3l31.5,22c1.4,1,1.4,2.6,0,3.6l-31.5,22c-1.4,1-2.6,0.4-2.6-1.3&#xd;&#xa;&#x9;&#x9;&#x9;L-204.8,374.5L-204.8,374.5z" fill="#FFFFFF"/>
  </g>
 </g>
</svg>
