<?xml version='1.0' encoding='utf-8'?>
<!-- Generator: Adobe Illustrator 19.1.0, SVG Export Plug-In . SVG Version: 6.00 Build 0)  -->
<svg x="0px" xmlns="http://www.w3.org/2000/svg" version="1.1" viewBox="-240 332 130 130" xml:space="preserve" baseProfile="tiny" xmlns:xlink="http://www.w3.org/1999/xlink" y="0px" id="Layer_1">
 <g id="Layer_1_1_">
  <path d="M-175,334.6c-34.4,0-62.4,27.9-62.4,62.4c0,34.4,27.9,62.4,62.4,62.4s62.4-27.9,62.4-62.4&#xd;&#xa;&#x9;&#x9;C-112.6,362.6-140.6,334.6-175,334.6z M-183,419.4c0,1.7-1.2,2.3-2.6,1.3l-31.5-22c-1.4-1-1.4-2.6,0-3.6l31.5-22&#xd;&#xa;&#x9;&#x9;c1.4-1,2.6-0.4,2.6,1.3L-183,419.4L-183,419.4z M-145.2,419.4c0,1.7-1.2,2.3-2.6,1.3l-31.5-22c-1.4-1-1.4-2.6,0-3.6l31.5-22&#xd;&#xa;&#x9;&#x9;c1.4-1,2.6-0.4,2.6,1.3V419.4z" fill="#000000"/>
 </g>
 <g id="Layer_2">
  <g>
   <path d="M-183,419.4c0,1.7-1.2,2.3-2.6,1.3l-31.5-22c-1.4-1-1.4-2.6,0-3.6l31.5-22c1.4-1,2.6-0.4,2.6,1.3&#xd;&#xa;&#x9;&#x9;&#x9;L-183,419.4L-183,419.4z" fill="#FFFFFF"/>
   <path d="M-145.2,419.4c0,1.7-1.2,2.3-2.6,1.3l-31.5-22c-1.4-1-1.4-2.6,0-3.6l31.5-22c1.4-1,2.6-0.4,2.6,1.3V419.4z&#xd;&#xa;&#x9;&#x9;&#x9;" fill="#FFFFFF"/>
  </g>
 </g>
</svg>
