<?xml version='1.0' encoding='utf-8'?>
<!-- Generator: Adobe Illustrator 19.1.0, SVG Export Plug-In . SVG Version: 6.00 Build 0)  -->
<svg x="0px" xmlns="http://www.w3.org/2000/svg" version="1.1" viewBox="-240 332 130 130" xml:space="preserve" baseProfile="tiny" xmlns:xlink="http://www.w3.org/1999/xlink" y="0px" id="Layer_1">
 <g id="Layer_1_1_">
  <path d="M-175,340.9c-31,0-56.1,25.1-56.1,56.1c0,31,25.1,56.1,56.1,56.1s56.1-25.1,56.1-56.1&#xd;&#xa;&#x9;&#x9;C-118.9,366-144,340.9-175,340.9z M-182.2,417.2c0,1.5-1,2.1-2.3,1.2l-28.4-19.8c-1.3-0.9-1.3-2.3,0-3.2l28.4-19.8&#xd;&#xa;&#x9;&#x9;c1.3-0.9,2.3-0.3,2.3,1.2L-182.2,417.2L-182.2,417.2z M-148.2,417.2c0,1.5-1,2.1-2.3,1.2l-28.4-19.8c-1.3-0.9-1.3-2.3,0-3.2&#xd;&#xa;&#x9;&#x9;l28.4-19.8c1.3-0.9,2.3-0.3,2.3,1.2V417.2z" fill="#000000"/>
 </g>
 <g id="Layer_2">
  <g>
   <path d="M-182.2,417.2c0,1.5-1,2.1-2.3,1.2l-28.4-19.8c-1.3-0.9-1.3-2.3,0-3.2l28.4-19.8c1.3-0.9,2.3-0.3,2.3,1.2&#xd;&#xa;&#x9;&#x9;&#x9;L-182.2,417.2L-182.2,417.2z" fill="#FFFFFF"/>
   <path d="M-148.2,417.2c0,1.5-1,2.1-2.3,1.2l-28.4-19.8c-1.3-0.9-1.3-2.3,0-3.2l28.4-19.8c1.3-0.9,2.3-0.3,2.3,1.2&#xd;&#xa;&#x9;&#x9;&#x9;V417.2z" fill="#FFFFFF"/>
  </g>
 </g>
</svg>
