<?xml version='1.0' encoding='utf-8'?>
<!-- Generator: Adobe Illustrator 19.1.0, SVG Export Plug-In . SVG Version: 6.00 Build 0)  -->
<svg x="0px" xmlns="http://www.w3.org/2000/svg" version="1.1" viewBox="-240 332 130 130" xml:space="preserve" baseProfile="tiny" xmlns:xlink="http://www.w3.org/1999/xlink" y="0px" id="Layer_1">
 <g id="Layer_1_1_">
  <path d="M-175,340.9c-31,0-56.1,25.1-56.1,56.1c0,31,25.1,56.1,56.1,56.1s56.1-25.1,56.1-56.1&#xd;&#xa;&#x9;&#x9;C-118.9,366-144,340.9-175,340.9z M-171.2,398.6l-28.4,19.8c-1.3,0.9-2.3,0.3-2.3-1.2v-40.4c0-1.5,1-2.1,2.3-1.2l28.4,19.8&#xd;&#xa;&#x9;&#x9;C-169.9,396.3-169.9,397.7-171.2,398.6z M-137.1,398.6l-28.4,19.8c-1.3,0.9-2.3,0.3-2.3-1.2v-40.4c0-1.5,1-2.1,2.3-1.2l28.4,19.8&#xd;&#xa;&#x9;&#x9;C-135.8,396.3-135.8,397.7-137.1,398.6z" fill="#000000"/>
 </g>
 <g id="Layer_2">
  <g>
   <path d="M-167.8,376.8c0-1.5,1-2.1,2.3-1.2l28.4,19.8c1.3,0.9,1.3,2.3,0,3.2l-28.4,19.8c-1.3,0.9-2.3,0.3-2.3-1.2&#xd;&#xa;&#x9;&#x9;&#x9;V376.8z" fill="#FFFFFF"/>
   <path d="M-201.8,376.8c0-1.5,1-2.1,2.3-1.2l28.4,19.8c1.3,0.9,1.3,2.3,0,3.2l-28.4,19.8c-1.3,0.9-2.3,0.3-2.3-1.2&#xd;&#xa;&#x9;&#x9;&#x9;L-201.8,376.8L-201.8,376.8z" fill="#FFFFFF"/>
  </g>
 </g>
</svg>
