<svg xmlns="http://www.w3.org/2000/svg" height="24" width="24">
 <g>
  <title>background</title>
  <rect id="canvas_background" x="-1" height="402" y="-1" fill="none" width="582"/>
 </g>
 <g>
  <title>Layer 1</title>
  <path d="m0,0l24,0l0,24l-24,0l0,-24z" id="svg_1" fill="none"/>
  <path d="m12.064101,2.280911c-3.763681,0 -6.807693,3.044011 -6.807693,6.807693c0,5.105769 6.807693,12.642858 6.807693,12.642858s6.807693,-7.537088 6.807693,-12.642858c0,-3.763681 -3.044011,-6.807693 -6.807693,-6.807693z" stroke="null" id="svg_2" fill-opacity="1" fill="#ff0000"/>
  <circle id="svg_3" cx="12" r="2.5" cy="9"/>
  <path d="m12,2c-3.87,0 -7,3.13 -7,7c0,5.25 7,13 7,13s7,-7.75 7,-13c0,-3.87 -3.13,-7 -7,-7zm-5,7c0,-2.76 2.24,-5 5,-5s5,2.24 5,5c0,2.88 -2.88,7.19 -5,9.88c-2.08,-2.67 -5,-7.03 -5,-9.88z" id="svg_10" fill="#000000"/>
 </g>
</svg>
