<svg xmlns="http://www.w3.org/2000/svg" viewBox="0 0 271.32 289.83">
 <defs>
  <style>.cls-1{fill:#003056;}.cls-2{fill:#ffc627;}.cls-3{fill:#fff;}.cls-4{fill:#f4f9f9;}</style>
 </defs>
 <g id="Layer_2" data-name="Layer 2">
  <g id="Layer_1-2" data-name="Layer 1">
   <path d="M134.36,289.83a3.9,3.9,0,0,1-2.45-.87c-3.76-3.06-92.06-75.78-92.06-159.55a94.52,94.52,0,0,1,189,0c0,83.78-88.3,156.49-92,159.54A3.91,3.91,0,0,1,134.36,289.83Zm0-247.14a86.82,86.82,0,0,0-86.71,86.72c0,68.42,64.15,131.23,83.81,148.85a4.34,4.34,0,0,0,5.8,0c19.66-17.64,83.82-80.52,83.82-148.85A86.82,86.82,0,0,0,134.36,42.69Z" class="cls-1"/>
   <polygon points="41.95 247.6 0 166.46 45.62 162.85 55.03 183.63 60.71 161.66 102.56 158.35 74.36 245.04 41.95 247.6" class="cls-1"/>
   <path d="M154.82,239.55c-4.77.37-8.85-1.28-12.52-3.64a47.33,47.33,0,0,1-20.56,6.25c-18.84,1.49-32.35-8.11-33.59-23.89-.6-7.51,1.9-14.26,7.43-20.14A23.68,23.68,0,0,1,91.24,186a25.37,25.37,0,0,1,8.29-21c5.62-5.2,13.39-8.33,22.48-9,11.76-.93,19.24,2.8,23.44,6.09a24.64,24.64,0,0,1,9.46,17.37,25,25,0,0,1-.3,6.38L181,183.72l-6.32,14.61c-.7,1.62-1.46,3.21-2.26,4.75l10.85,8.63L178.5,219C172.17,228.69,165.63,238.69,154.82,239.55Z" class="cls-1"/>
   <polygon points="227.5 232.94 222.38 222.73 205.98 224.03 202.54 234.92 158.71 238.38 190.36 151.42 226.41 148.57 271.32 229.48 227.5 232.94" class="cls-1"/>
   <polygon points="46.12 240.41 10.98 172.47 41.54 170.05 56.97 204.14 66.28 168.1 93.04 165.98 69.43 238.57 46.12 240.41" class="cls-2"/>
   <path d="M231.72,225.75l-5.11-10.21-25.6,2-3.44,10.89L169,230.71l26.49-72.82,27.28-2.15,37.6,67.75Zm-13.35-26.82L211.23,184l-4.76,15.84Z" class="cls-2"/>
   <path d="M154.45,232.72c-4.38.34-8.29-2.35-11.8-5.12a40.26,40.26,0,0,1-21.28,7.73c-15,1.18-25.29-5.73-26.23-17.6-.57-7.27,2.8-13.52,10.3-19-4.73-4.29-6.81-8.21-7.21-13.27-1-12.13,9.11-21.45,24.49-22.66,16.5-1.31,24.8,8,25.53,17.18.38,4.81-.87,11.32-8.28,16.55l4.15,3.35a42,42,0,0,0,3.17-5.32l.7-1.34,22.4-1.77-1.81,4.18a59.29,59.29,0,0,1-9.64,15.55c2.15,1.24,3.37,1.48,4.54,1.38a4.75,4.75,0,0,0,3.61-1.83l1.72-1.9,5.5,4.37-1.37,2.09C166.28,225.45,161.39,232.17,154.45,232.72Zm-35.1-22.92a5.35,5.35,0,0,0-2.25,4.47c.2,2.56,2.74,4.3,5.9,4.06a9.86,9.86,0,0,0,5.27-2Zm5.47-31.37c-2,.17-4,1.19-3.92,2.83.08,1,1.47,2.78,5.06,5,3.49-2.23,3.71-3.61,3.62-4.84C129.38,179,127,178.26,124.82,178.43Z" class="cls-2"/>
   <path d="M15.38,174.87l24.52-1.94,17.73,39.15h.19l10.69-41.4L89.24,169,67.46,236l-19.68,1.56Z" class="cls-3"/>
   <path d="M197.49,160.48l23.77-1.88,34.68,62.49-22.53,1.78-5.11-10.21L199,215l-3.45,10.89-22.53,1.78Zm25.14,40.86-11.92-24.88-8,26.45Z" class="cls-3"/>
   <path d="M166.14,194.52a54.94,54.94,0,0,1-11.37,17.16c4,2.83,6.42,3.8,9,3.59a7.5,7.5,0,0,0,5.43-2.72l1.53,1.22c-7,10.69-11.19,15.8-16.42,16.21-4,.32-7.88-2.91-11.56-5.87a37.23,37.23,0,0,1-21.51,8.49c-13.5,1.06-22.47-4.73-23.29-15.09-.56-7.13,3.27-13.08,12.11-18.56-6.21-4.86-8.61-8.6-9-13.73-.83-10.55,8.19-18.63,22-19.72,14.45-1.14,21.95,6.59,22.59,14.67.54,6.84-3,12.19-10.31,16l9.29,7.49a33.29,33.29,0,0,0,5.22-7.87Zm-46.69,11.92c-3.47,2.09-5.26,4.91-5,8,.32,4.09,4.18,6.94,8.84,6.57,3.42-.27,6.17-1.73,9.46-5Zm12.92-25.23c-.28-3.61-3.42-5.85-7.7-5.51-4,.32-6.67,2.73-6.43,5.77.19,2.47,2.9,5.22,7.8,8C130.89,186.69,132.62,184.35,132.37,181.21Z" class="cls-3"/>
   <polygon points="98.85 163.99 97.43 143.42 88.19 144.06 89.61 164.63 60.85 166.61 56.24 99.71 84.99 97.72 86.4 118.14 95.64 117.5 94.24 97.09 122.99 95.1 127.61 162 98.85 163.99" class="cls-1"/>
   <path d="M144.14,161.62a31.62,31.62,0,0,1-22.18-6.5,27.67,27.67,0,0,1-10.19-19.94C110.66,119.09,122,106.11,138.21,105a28,28,0,0,1,21.66,7.8c5.79,5.72,8.71,13.74,8.22,22.59l-.26,4.5,2.92,5.53-3.07,4.08C162.23,156.74,154.09,160.93,144.14,161.62Z" class="cls-1"/>
   <polygon points="153.04 176.84 165.99 144.94 143.86 104.71 178.72 102.31 181.07 107.46 182.87 102.02 215.61 99.76 185.65 174.59 153.04 176.84" class="cls-1"/>
   <polygon points="103.35 158.83 101.93 138.26 83.03 139.57 84.45 160.13 65.35 161.45 61.4 104.2 80.5 102.88 81.91 123.3 100.8 122 99.39 101.58 118.5 100.26 122.45 157.51 103.35 158.83" class="cls-1"/>
   <path d="M143.8,156.79c-14.81,1-26.25-8.2-27.2-21.94-.92-13.34,8.51-24.11,21.94-25a23.17,23.17,0,0,1,17.93,6.41c4.79,4.74,7.2,11.44,6.79,18.87l-.16,2.84-1.69.12L165,145l-1.23,1.64C159.23,152.68,152.31,156.21,143.8,156.79Zm-3.59-17.27a9.76,9.76,0,0,0,5.24,1,15.47,15.47,0,0,0,6.29-1.83Zm2.84-12.5a2.83,2.83,0,0,0-3.32-2.14,3.34,3.34,0,0,0-2.48,1.08,3.45,3.45,0,0,0-.67,1.51Z" class="cls-1"/>
   <polygon points="160.44 171.48 171.34 144.62 151.75 109.02 175.71 107.36 181.78 120.7 186.44 106.62 208.26 105.12 182.29 169.97 160.44 171.48" class="cls-1"/>
   <path d="M119,154.51l-12.67.88-1.42-20.57-25.33,1.75L81,157.14,68.34,158l-3.5-50.81,12.66-.88,1.41,20.42L104.24,125l-1.4-20.41,12.66-.88Z" class="cls-2"/>
   <path d="M161.83,144.65c-4,5.29-10.12,8.41-17.65,8.93-13.56.93-23-7.48-23.76-19s7.32-20.79,19-21.6c12-.82,22,8.14,21.27,21.89l-25.7,1.78c.35,4,5.38,7.49,11.34,7.07,4.17-.28,7.95-1.89,12.28-5.34ZM147.5,130c-.48-5.81-2.92-8.63-7.39-8.32-4,.27-7,3.1-6.17,9.26Z" class="cls-2"/>
   <path d="M174.9,144.41,157,111.89l16.69-1.15,8.56,18.79,6.56-19.84,14.53-1-23.3,58.2-14.68,1Z" class="cls-2"/>
   <circle cx="135.32" r="47.35" class="cls-4" cy="47.35"/>
   <path d="M133.05,8.32c-.63.06-.53-.94-1.22-1.11a4.4,4.4,0,0,0-1.7.15,63.85,63.85,0,0,0,1,6.51c.25.45.84.28,1.12.31,0,.06,0,.15.06.19l-3.7.61-.1-.19c.26-.28.84-.15,1-.62-.28-2.24-.58-4.45-1.05-6.57-.73.21-1.75,0-2.06,1-.22.26.16,1-.48.86l-.11-1.92,6.76-1.1a11.82,11.82,0,0,1,.5,1.93" class="cls-1"/>
   <path d="M141.68,8.51c-.43.15-.28-.41-.49-.58C140.4,7,139,7.3,137.87,7.2l-.17.19c-.12.84-.11,1.75-.16,2.62l.13.1c1.08-.14,2.58.57,2.9-.83.05-.09.19,0,.26-.06L140.72,12c-.52.16-.22-.52-.49-.72-.64-.8-1.73-.47-2.65-.59l-.07.13-.17,2.78c.44.8,1.56.51,2.41.56a2.81,2.81,0,0,0,2.15-1.46h.27l-.62,2c-2.24-.06-4.55-.16-6.79-.35-.08-.52.56-.1.76-.36l.26-.45L136,7.12c-.13-.48-.95-.1-.86-.66l6.58.39Z" class="cls-1"/>
   <path d="M149.71,10.26l-.55-.7c-.41-.2-.88-.64-1.34-.3a17.9,17.9,0,0,0-1,3,2.67,2.67,0,0,0,2.46-.12,1.92,1.92,0,0,0,.43-1.85m.93-.49a2,2,0,0,1,.77,1.3,2.13,2.13,0,0,1-1.28,2.06,2.53,2.53,0,0,1-1.34.14,28.48,28.48,0,0,0,1.11,3.66c0,.4.75.41.55.76l-2.08-.7-1.32-4c-.06-.17-.24-.22-.41-.26h-.09a10.44,10.44,0,0,0-.91,2.73c.15.43.88.33.77.76A37.24,37.24,0,0,1,142.86,15l0-.22c.37,0,.82.29,1.12,0,.82-2,1.57-4,2.24-6,.2-.68-.86-.61-.74-1.11a24,24,0,0,1,5.13,2.15" class="cls-1"/>
   <path d="M122.72,13.59l-2.08-2.25,0,3a10.85,10.85,0,0,0,2-.79M120.44,9c2,1.92,3.71,4.05,5.77,5.8.25.22.71-.32.67.18l-3.06,1.24-.13-.19c.2-.2.8-.41.57-.86a8.65,8.65,0,0,0-1-1.11,19.12,19.12,0,0,0-2.68,1.11c.14.56-.11,1.34.43,1.69.28.11.74-.25.75.12a23.43,23.43,0,0,1-2.27.92c-.24-.28.44-.51.44-.84.11-2.69.07-5.26.12-8,.13,0,.22-.13.39-.09" class="cls-1"/>
   <path d="M114.65,12.45c.79,2.42,1.56,4.83,2.4,7.23-.19.58-.66.05-.94,0l-3.69-2.2c.26,1.64.91,3.21,1.33,4.85l-.35.28c-2.31-1.37-4.5-3-6.88-4.24-.26-.13-.44.3-.63,0a22.7,22.7,0,0,1,2.37-1.94l.17.16c-.17.24-.43.43-.35.77a37,37,0,0,0,4.37,2.87,29.71,29.71,0,0,0-.89-3.22c-.84-.38-1.6-1.5-2.63-.82a.17.17,0,0,1-.1-.22c.91-.68,1.8-1.41,2.76-2,.15.34-.55.57-.36,1a38.38,38.38,0,0,0,4.46,2.77v-.32c-.59-1.48-1-3.06-1.64-4.49-.3-.32-.67,0-1,.1,0,0,0,0-.09,0l-.13-.13a14.9,14.9,0,0,1,1.87-1.49c.3.31-.18.65-.09,1.06" class="cls-1"/>
   <path d="M160.79,15.14a16.17,16.17,0,0,1-.83,1.44.34.34,0,0,1-.28-.14,1.43,1.43,0,0,0-.14-1.29,11.26,11.26,0,0,0-2.29-1.6l-.19.06-1.49,2.19a7.48,7.48,0,0,0,2.1,1.29c.51.13.76-.53,1.17-.33l-1.5,2.31c-.4-.28.21-.9-.18-1.3a6.18,6.18,0,0,0-1.9-1.37,16.53,16.53,0,0,0-1.73,2.65c.05.42.44.61.74.88l-.15.19A24.54,24.54,0,0,1,151,18c.28-.24.65.26,1,.09a59.36,59.36,0,0,0,3.66-5.53c0-.36-.3-.54-.54-.76l.14-.19Z" class="cls-1"/>
   <path d="M165.37,20.73a2,2,0,0,0-1.14-1.59,18.75,18.75,0,0,0-2.35,2.29l.94.76a1.67,1.67,0,0,0,1.66.08,1.72,1.72,0,0,0,.89-1.54m1.25,1.17a2.13,2.13,0,0,1-1.29,1.7c-.74.36-1.51-.06-2.18-.3l-.54,4,.26.57-.13.1-1.54-1.52.6-4.38-.32-.32a9.53,9.53,0,0,0-2,2c-.24.45.62.73.27,1.12l-2.62-2.66c.24-.49.53.22.81.25l.44,0c1.59-1.43,3.18-3.05,4.66-4.55.2-.5-.57-.76-.27-1.11,1.39,1.57,3.6,2.93,3.88,5.11" class="cls-1"/>
   <path d="M121.09,57.57a15.85,15.85,0,0,0-1-2.49l0,.08-2.55,9.6c.36,0,.77.07,1.07-.1Zm-1.06,7,1.48-6-.19-.28-2.09,6.37c.26.13.54,0,.8,0m3-1.78-1-2.71c-.4,1.48-.75,3-1,4.48l.93-.06c1.23.32.72-1.15,1.14-1.71m-4.93,3.08a1.71,1.71,0,0,0-.93.07l-.27,1.21h.13c1,.29.72-.85,1.07-1.28m1.31.88c-.09-.33-.15-.79-.6-.88a2.12,2.12,0,0,0-.35,1.08,3.73,3.73,0,0,0,1-.2M122,55a1.44,1.44,0,0,0-.67-.16,2,2,0,0,0,.4.89Zm2.64,1.51-.4-1.08h-.18l.21,2.46Zm1.3-.74h-.09a3.39,3.39,0,0,0-.34,1.4,3.13,3.13,0,0,0,.43-1.4m2.83,1.09v-.48l-1.88-.4a17,17,0,0,0-.91,2.53c.28.78.51,1.63.86,2.36.66-1.33,1.35-2.64,1.94-4m-5.81,1a6.69,6.69,0,0,0-.11-1.66c0,.55-.52,1.26.11,1.66m7.73-1c-.3,0-.55-.25-.9-.18-.29,3.06-.39,6.23-.5,9.31.11-.12.36,0,.45-.14Zm1,.25c0-.13-.17-.14-.28-.12-.37,2.76-.42,5.5-.73,8.28l1.17-4.39Zm-8.57,2.15c.07-.19-.13-.37-.19-.53Zm5.09,5.36c.14-1.83.4-3.68.41-5.47L127.22,62Zm-2.16-2c1-1-.18-2.17-.38-3.22a12.92,12.92,0,0,0-.62,1.7Zm-.75,1.61c1-.84-.07-1.73-.5-2.45a3.42,3.42,0,0,0,.32,2.55Zm2.34,1a15.42,15.42,0,0,0-.78-2.29c-.65.81.48,1.54.78,2.29m4.48.54a14.1,14.1,0,0,0-.15-2.37l-.58,2.41c.28,0,.45-.1.73,0m-4.6.35-1.19-2a3.85,3.85,0,0,0-.66,1.7c.2.76,1.29.23,1.85.26m7.6-8.49-.48,0,.36.8a1.21,1.21,0,0,0,.12-.77m.47,2.1c.11-.65.73-1.32.36-1.92l-.44,1.79Zm-1.45,2.44.52-2.43L133.8,58c.09,1.38.1,2.89.3,4.3m3.23-3.48.22-.76a2,2,0,0,0-.53,0c-.22.34.2.58.31.8m5.49,3.72-.22-4.08c-.3,0-.58-.16-.89,0a34.59,34.59,0,0,0-.71,4.39ZM138.39,61a3,3,0,0,0,.05-2.63c-.29.84-.93,1.89-.05,2.63m2.38-2.61-.76,0c-.72.93,0,2,.25,2.94a13.76,13.76,0,0,0,.51-2.91m5.51,5.06-.9-5h-.09l.36,5.1a.89.89,0,0,0,.63-.13M150,58.76l-2-.17a13,13,0,0,0,.88,3l1.16,0a1.69,1.69,0,0,1,.52,1.65h.22c.21-.15.59-.28.57-.62A16,16,0,0,0,150,58.76M136.39,61.6c.06-.77,1-1.6.2-2.28-.16.73-1.07,1.63-.2,2.28m1.64.62-.53-1L136.92,63c.11.11.06.41.32.35.8.14.5-.77.79-1.12m1.67.75a9.2,9.2,0,0,0-.47-1.75l-.31,1,.42.76c.11,0,.26,0,.36,0m-3.81.1a1.15,1.15,0,0,0-.32-.89,6.35,6.35,0,0,0-.43,1.44h.18c.34,0,.47-.25.57-.55m7,.89,0-.09a18.3,18.3,0,0,0-1.83.24c0,.15.06.24.08.35l1.78-.37Zm-3.64.87c0-.39-.42-.5-.77-.38a.53.53,0,0,0-.26.62Zm-2.37.34c-.13-.15-.09-.52-.37-.44a.59.59,0,0,0-.22.58.79.79,0,0,0,.59-.14m-1.62-.25c-.43,0-.86.2-.8.68l.54-.06a.58.58,0,0,0,.26-.62m21.14-1.65,3.28-3.83c-1.52,1.24-3,2.56-4.49,3.88a9.56,9.56,0,0,0,1.21,0m.33-14a2.45,2.45,0,0,0-1.56.5,29.47,29.47,0,0,0,4.61,6,24.49,24.49,0,0,0-3-6.46m-2.24.79-.13-.06c-.83.44-1.91.26-2.67.88,1.35,3,2.47,6.06,4.77,8.63a2.86,2.86,0,0,0,2.36-1.18,25,25,0,0,0-4.33-8.27m-1.23,6.18-2.24-5a11.12,11.12,0,0,1-3.34,1.15c.77,1.54,1.62,3.06,2.46,4.58a9.31,9.31,0,0,1,1.83.49,1.42,1.42,0,0,1-.79,1.2L152.78,61a1,1,0,0,0,.9.49c.37-.09.78-.32.76-.77-.22-1.56-.85-3-1.2-4.46m-6.38-3.71a1.12,1.12,0,0,0-.67.32l1.09,3.66,1.76.31a39.28,39.28,0,0,0-2.18-4.29m-.48,3.81c-.34-1.08-.52-2.26-.95-3.26l-.13.09c.15,1.07.4,2.09.64,3.13Zm-4.71-2.69a1.69,1.69,0,0,0-.45.18l-.43,1.53a.78.78,0,0,0,.63.09,9.5,9.5,0,0,0,.25-1.8m-1.34.47c-.12,0-.15.09-.26,0-.53.06-.48.7-.53,1l.44.09a4.28,4.28,0,0,0,.35-1.15m2.21,1.58a8.38,8.38,0,0,0-.11-1.47c-.06.48-.19,1-.21,1.43.13,0,.21.06.32,0m-3.85-1.12c-.15-.06-.22.09-.35,0,0,.15.06.24.08.35.29.16.18-.26.27-.39m-15.08-5.15c-.09-.72,1.21-2.13-.28-2.19a9.52,9.52,0,0,0,.24,2.46c0-.1,0-.21,0-.27m-1,2.83c-.07-1.66-.24-3.32-.44-4.88A38.69,38.69,0,0,0,121,52.08c.56,0,1,.34,1.57.21m4-3.23c.42-1.14-1.2-.71-1.74-1.17l-1,4.42.13.28,1.66.25Zm2-.09-1-.14-1,4.19c.2,0,.45.18.63,0,.42-1.36,1-2.66,1.44-4m.8,0h-.09c-.55,1.39-1,2.79-1.44,4.23a4.09,4.09,0,0,0,1.25.12,42.34,42.34,0,0,0,.28-4.35m1.9,2.54-.11-2.37-.89-.08a23.28,23.28,0,0,0-.23,4.51l.17,0a13,13,0,0,0,1.06-2.11m3.07-1.46-1.2-.31c-.07.75.52,1.32.76,2a8.45,8.45,0,0,0,.44-1.66m1.84.34-1-.13a9.17,9.17,0,0,0-.47,2.28l1.73-.4a2.3,2.3,0,0,0-.28-1.75m2.41.61-1.06-.27c-.15.37-.25.84.05,1.12.52,0,1.06-.22,1-.85m1.18.25-.41-.09c-.39.54.32.11.41.09m-6.25,1.58c0-.09-.09-.3-.13-.44v.44Zm22.1-5.34a36.93,36.93,0,0,0-2.33-4l-2.05.56,2.67,3.85Zm-5.1-3.31a15.23,15.23,0,0,0-1.86.15c.59,1.47,1.25,2.9,2,4.33l2.5-.57c-.8-1.33-1.67-2.63-2.59-3.91M150,48.82l-2-4.45a26.17,26.17,0,0,0-3.7.83c.09.22,0,.51.1.73l2.11.43c.35.07.76.14.84.57a2.87,2.87,0,0,1-2,1l.95,1.78c1.26-.29,2.55-.6,3.75-.93m-4.46,1.12a3.72,3.72,0,0,0-.51-1l.38,1.08Zm-20.72-5.69a8.4,8.4,0,0,1-1.83-.78l.14,1.11,1.6.34a.76.76,0,0,0,.09-.67m2.75,1.32.13-.62-2-.43-.18.62a10.17,10.17,0,0,0,2.07.43M142,45c-.25,0-.82-.07-.62.36l.68.09c0-.15,0-.34-.06-.45m-12.43.46c-.39-.05-.73-.22-1.12-.3-.21.13-.11.44-.26.63a5.36,5.36,0,0,0,1.38.34Zm11-.28,0-.13c-.13,0-.31,0-.44.06Zm-9.65.94c.07-.37-.33-.28-.54-.35-.18.43.1.75.55.67Zm4.13.41-2.24-.2,0,.58a12.77,12.77,0,0,0,2.15.48c.07-.26.23-.6,0-.86m2.5.56a4.8,4.8,0,0,1-1.48-.44c-.16.34.06.75.18,1.08a3.66,3.66,0,0,1,.73.16c.67.39.48-.54.57-.8m2.18.43-1.42-.25a1.36,1.36,0,0,0-.21.84l.84.22c.71.51.63-.5.79-.81m.87,1.16.31-1-.36,0a1.84,1.84,0,0,0-.36.95Zm1.47-.87c-.12,0-.19-.05-.32,0l-.35,1.12.77.12a3.68,3.68,0,0,0-.1-1.21m10.1-6.25c-.17-.21-.19-.47-.36-.67a6.34,6.34,0,0,0-2.68.11,2,2,0,0,0,.49.8,16.33,16.33,0,0,0,2.55-.24m-3.36.21c-.08-1-1.12-.53-1.66-.43a1.75,1.75,0,0,0,.23.57,4.67,4.67,0,0,0,1.43-.14m-2,.19-.2-.49c-.91.09-1.72.37-2.64.47,0,.08,0,.17.06.23a19.67,19.67,0,0,0,2.78-.21m-17,.91,0-.9-.63-.18a2.36,2.36,0,0,0-.26,1,2,2,0,0,0,.84.12m11.89-1a17.8,17.8,0,0,0-1.86.24c-.21,0-.47.15-.38.37l.67-.06c.54-.17,1.59.23,1.57-.55m-10.93,1.21L130.75,42h-.05l0,1.06Zm3.29-.38c.2-1-1-.61-1.51-.7,0,.28-.15.71.08.94l1.43-.11Zm2.15,0v-.35l-1.51-.12.14.58Zm2.45-.15v-.26c-.48.09-1.06,0-1.56.09l0,.27Zm-9.81-2.79,1-4.39h-2.28l-1.54,6.76,2.15.43.16-.9a5.63,5.63,0,0,1-1.13-.92c-.08-.26-.23-.6,0-.86Zm4.35-.17c-.35-1.41-.74-2.8-1.16-4.18.14,1.34.1,2.87.34,4.25Zm3.59-2.52-.59-1.66H132.8L134,39.57c1.06,0,2.07-.08,3.09-.12l1.09-4.11H138l-.75,1.74c-.11,0-.26,0-.35,0m3.51-1.73H139a27.74,27.74,0,0,0-1,4.07l1.55-.1a31.82,31.82,0,0,0,.86-4m1.43,3.86-.17-3.84h-.5c-.29,1.31-.7,2.64-.86,3.94Zm3.8-.2-1.69-3.65c-.15,0-.32,0-.45,0l.29,3.72a8.85,8.85,0,0,0,1.85-.11m-1-3.62h-.13L146.23,39l.77-.07c-.76-1.18-1.51-2.39-2.36-3.55m4.12,0-3.45,0,2.45,3.56c1-.12,2,0,2.91-.16-.65-1.13-1.27-2.26-1.91-3.37m-18.61,4.28.07-1.75a10.1,10.1,0,0,0-.38,1.83c.11,0,.24,0,.31-.08m.07-7.38-1.75-.3L128,34.22l2.33,0a9.56,9.56,0,0,0-.06-1.92m10.87.26a1.72,1.72,0,0,1-1.08-.09,3.12,3.12,0,0,0-.75,1.8l1.49,0Zm-2.42,1c-2.14-.41-4.56-.15-6.62-.84l.46,1.56,4.48.06.19.54c-.07-.82.89-.53,1.33-.59Zm2.92.74a1.35,1.35,0,0,0,0-.54l-.13.54Zm2.85-6.48a20.19,20.19,0,0,0-1.72-3.11l.25,3.18Zm-14.38.5c-.08-.72-.07-1.58-.21-2.33-.23,1.4-.74,2.75-.9,4.13a2.59,2.59,0,0,0,1.2.16c.21-.77-.57-1.1-.54-1.79.09-.18.32-.18.45-.17m11.25-.41a12.69,12.69,0,0,0-.05-1.62l-.44,1.66Zm-5.52,2.51c-1.17-.67-2.73,0-4-.32-.15.11-.09.37,0,.52,2.45.41,4.86.91,7.34,1.2a8.38,8.38,0,0,0,.34-1.49,25,25,0,0,1-3.66.09m5.63-.24c-.48.17-1.58-.23-1.33.74l1.37-.16a1.4,1.4,0,0,0,0-.58m4.51.28a20.63,20.63,0,0,1-2.75-.16v.31l1.29.05v.67c-.16.52-.72.71-1.21.81.2.82.91,1.43,1.29,2.17l3.53,0a35.81,35.81,0,0,0-2.15-3.87m-3.76-12.9.2,3.09c2.51.09,5-.23,7.47-.33A.59.59,0,0,1,150,21c-1.47,2-4.32.95-6.21,2l-1.15.27c.63,1.48,1.62,2.93,2.44,4.41l.13.08,8.55-.3c.23.24.1.56,0,.82-.7.69-1.73.63-2.64.82-.93-.1-1.5.67-2.32.92s-1.47.18-2.18.37a27.87,27.87,0,0,0,2.27,4h8.28l.93,4.08c1.11,1.14,2.8.81,4.13,1.43l1.14,2.81,1,.08,0,1h-1.56a23.2,23.2,0,0,1-1.24-3c-1.44-.56-3-.7-4.3-1.7-.25-1.22-.43-2.47-.76-3.66l-.13-.09-6.84,0v.23c.66,1.09,1.23,2.2,1.95,3.26l4.66-.19c.26.17.06.54,0,.76-.32.7-1.09.7-1.65,1.05l-1.78.33c-.13.3.21.5.32.76,1.36-.09,2.89,0,4.25-.26.15.11.45.11.39.41-.2.74-1.07,1.08-1.72,1.35l-1.84.24v.26l2.27,3.88,3.18-.76a.89.89,0,0,1,.32.32c.08.69-.72,1.18-1.2,1.48a9,9,0,0,1-1.33.64,33.75,33.75,0,0,0,5,7.34c.46-.21.6-1,1.2-.77a.4.4,0,0,1,.05.63l-5.79,7.6c0,.22.19.41.36.57A14.05,14.05,0,0,0,156.56,69a16.07,16.07,0,0,1-1.13,3.23,17.49,17.49,0,0,1-4.15.71l-9.22.71c-8.4.22-16.77.58-24.9-.55-.67-1.65-1.41-3.38-3.13-4.44-.1-.32-.38-.76-.11-1,.82-.3,2.37.21,2.38-1.06-.08-.28.33-.56,0-.75-.7,0-1.73.34-2.2-.29l.09-.51,2.5-.15.27-.58,2.67-9.86s0-.06.06-.1a14.81,14.81,0,0,0-1.53-.56c-1.15-.89-2.6-1-3.91-1.53-.45-.19-.25-.86-.18-1.21l.13-.1,4.7.78.09-.09-1-2.77c0-.24.13-.47.41-.49s.56.37.67.61a19.81,19.81,0,0,0,1.19,3c.63-1.68,1-3.46,1.52-5.19-1.3-.83-2.9-1-4.31-1.68a3.46,3.46,0,0,1-2.11-1.36c.09-.26,0-.62.25-.81,2.15.45,4.28,1,6.41,1.42l0-1.12c-2.11-.26-4.92-.14-5.58-2.63a.4.4,0,0,1,.22-.45c1.74.28,3.44.62,5.12,1l.13-.09-.25-2.94a.43.43,0,0,1,.41-.32c.2-.06.35.11.44.25a17.36,17.36,0,0,0,.26,3.26,19.49,19.49,0,0,0,2.69.61c.57-2.18,1.11-4.4,1.6-6.63l-1.79-.07H114.05c-.34,1.68-.34,3.49-.62,5.21a49.92,49.92,0,0,1-5.16,3.4,2.59,2.59,0,0,1-1.4-.31l0-1.12c.35.08.91.41,1.38.22L112.34,40l.15-.36.56-5.46,14.15.1a11,11,0,0,0,.65-2.46c-1.5-1.26-3.63-1.19-5.53-1.56-.58-.14-.4-.74-.5-1.17l6.31.93.19-.22,1-4.39c-1.4-.29-2.4-1.6-4-1.4a13,13,0,0,1-3-.87,1.58,1.58,0,0,1-.55-1.24h.63l7.36,1.41c0-1.19-.15-2.54-.13-3.75,0-.28.3-.39.48-.5s.39-.08.58.08l.19.41.26,4c2.45.72,5.08,1,7.56,1.59a.71.71,0,0,1-.42.81c-1.62.31-3.38-.38-5,.14a14.33,14.33,0,0,1-1.89-.31l-.09.14.21,2.38c2.79.05,5.68-.18,8.53-.26a17.32,17.32,0,0,0,1.12-4.67c-1,0-1.8-.4-2.73-.5-1.8.11-4,.58-5.28-.85a1.85,1.85,0,0,1-.1-.67c2.57-.26,5.33-.3,8-.57l.1-.13a17.59,17.59,0,0,1,0-3.32c.27-.26,1-.29,1.08.22" class="cls-1"/>
   <path d="M121.32,26.67c-.66,1-1.95.89-2.59,1.85a4.89,4.89,0,0,0,0,2,1.43,1.43,0,0,1-.71.62c-.35,0-.74-.11-.76-.48.45-.88-.7-1-1.1-1.3-1.2-.77-2.65-.37-4-.13-.2-.07-.45,0-.6-.22a9.58,9.58,0,0,1,2.23-1.55c1-.68,1.77.4,2.56.78.48.33.9.83,1.4,1.11.18-.77-.05-1.68.34-2.37l.39-.27c1-.25,2-.42,3-.75.34.2,0,.51-.12.73" class="cls-1"/>
   <path d="M104.19,28.78l-3-.5a16.33,16.33,0,0,0,2,2.39,20.19,20.19,0,0,0,1-1.89m3.57-1.15c.26,0,.29-.55.54-.31v.23l-1.54,2.64h-.23c0-.26.26-.54.09-.84-.43-.44-1.07-.38-1.61-.49a18.57,18.57,0,0,0-1.47,2.44,3.22,3.22,0,0,0,1.19,1.24c.44.12.49-.77.89-.37l-1.2,2.06c-.5,0,0-.61-.23-.92L99.4,27l.17-.31c2.74.33,5.43.86,8.19,1" class="cls-1"/>
   <path d="M171.6,28.78a2.14,2.14,0,0,0-2.24-1c-1.68.42-3.57,1.19-4.32,2.95a2.11,2.11,0,0,0,.46,1.78,2,2,0,0,0,1.41.62,6.29,6.29,0,0,0,4.75-2.63,2.14,2.14,0,0,0-.06-1.7m.32-.59a3.93,3.93,0,0,1,.47,3.35,4.55,4.55,0,0,1-3.77,2.86,3.54,3.54,0,0,1-3.6-1.59,4,4,0,0,1-.6-3.48,4.78,4.78,0,0,1,4-2.9,3.71,3.71,0,0,1,3.5,1.76" class="cls-1"/>
   <path d="M97.34,38.16a1.55,1.55,0,0,0-1.2-.72,1.24,1.24,0,0,0-.63.42.79.79,0,0,0,.14.92,2.24,2.24,0,0,0,2,.08Zm4.48,1.21a30,30,0,0,1-3.12,1.05,1.8,1.8,0,0,0,1,1.2,1.91,1.91,0,0,0,1.69-.29,1.78,1.78,0,0,0,.47-2m-2.27-3.79a14.27,14.27,0,0,0,1.87,2.13,2.58,2.58,0,0,0,1.42-1,1.52,1.52,0,0,0-.16-1.47c.06-.11.17-.09.28-.09a2.55,2.55,0,0,1,.47,2.71,3.8,3.8,0,0,1-1.11,1.26,3.94,3.94,0,0,1-.19,3.45,2.23,2.23,0,0,1-1.3.81,2.32,2.32,0,0,1-2.12-1.23,9.85,9.85,0,0,1-.62-1.65,2.83,2.83,0,0,1-3-1,2.22,2.22,0,0,1,.21-2.23,1.33,1.33,0,0,1,1.2-.52,1.5,1.5,0,0,1,1.26.85c.45.35-.06,1.64.91,1.24a9.13,9.13,0,0,0,2.28-.82c-.41-.56-1-1.21-1.7-1.11-.32.12-.32.7-.67.59a16.67,16.67,0,0,1,.65-2.64c.43,0,.08.58.3.8" class="cls-1"/>
   <path d="M175.16,36.8c-1.42,1.86-2.78,3.76-4.11,5.67a24.79,24.79,0,0,0,4.47-1.12c.27-.27.21-.73.25-1h.28l.6,2.64-.19.1c-.28-.21-.28-.65-.67-.82H175l-6.38,1.49a.39.39,0,0,1,0-.54l4.64-6.34a41.28,41.28,0,0,0-4.65,1c-.24.12-.57.29-.63.6s.2.69-.21.68a16.15,16.15,0,0,1-.64-2.64c.37-.25.28.31.49.44.36.59,1.08.18,1.56.17L173.9,36a2.29,2.29,0,0,0,.63-1.22h.22Z" class="cls-1"/>
   <path d="M94.42,45.6l.85.57,6.82,2.36,0,.36L95,52.3c-.45.14-.16.79-.63.72l-.2-3.36c.58-.22.1.69.62.76l.64,0c1.46-.63,2.93-1.29,4.36-2a36.42,36.42,0,0,0-4.71-1.66c-.38-.11-.63.25-.71.55s0,.37-.18.35h-.09c0-.84-.13-1.7-.1-2.52.28-.08.34.31.45.5" class="cls-1"/>
   <path d="M176.6,52.71l-2,.15c0-.6.8-.31,1.06-.78.63-.45.28-1.3.43-2-2.07-.2-4.25-.11-6.4-.17-.28-.05-.52.21-.61.46s.16.72-.31.62l.06-3.71c.5-.08.14.63.4.85l.41.22c2.11.09,4.33.07,6.4.11a4.3,4.3,0,0,0,0-1.6c-.21-.58-.81-.72-1.29-.89V45.7l2,.21Z" class="cls-1"/>
   <path d="M115.36,46.7c-.7,1.13-1.87,1.34-3,1.59-.75.34.09,2-1.2,1.54,0-.76-.57-1.24-1-1.78a4.77,4.77,0,0,1-1.93-.47c0-.29-.43-.5-.23-.76l2.37.15,1.17,1.26c.67-1.57,2.62-.88,3.84-1.53" class="cls-1"/>
   <path d="M112.74,54.26l-.09.07c-.41-.24-.84-.66-1.35-.44A6.86,6.86,0,0,0,110,55.53a1.1,1.1,0,0,1,.2.76,1,1,0,0,1-.89.36c-.1-.5.05-.95-.5-1.24-.9-.83-1.73.46-2.61.09l-.07-.07c.67-.47,1.25-1.28,2-1.36l1.31,1a4.45,4.45,0,0,1,2.12-2.6,2.37,2.37,0,0,1,1.13,1.78" class="cls-1"/>
   <path d="M100.29,58.39a1.25,1.25,0,0,1,.29,1.15,1.33,1.33,0,0,1-2.29.6A1.4,1.4,0,0,1,98,58.8a1.34,1.34,0,0,1,2.32-.41" class="cls-1"/>
   <path d="M172.58,59a1.39,1.39,0,0,1-.12,1.22,1.6,1.6,0,0,1-1.12.64,1.4,1.4,0,0,1-1.25-.75A1.23,1.23,0,0,1,170,59a1.37,1.37,0,0,1,1.15-.81,1.41,1.41,0,0,1,1.39.82" class="cls-1"/>
   <path d="M165.42,63.67c-.09.36-.38.81-.08,1.16,1.9,1.55,3.92,2.76,5.85,4.2l-.31.32c-2.68.21-5.33.55-8,.83l4,2.78a.94.94,0,0,0,.85,0c.19-.13.39-.6.62-.23l-1.49,2.22h-.23c-.06-.37.29-.81,0-1.21-1.52-1.35-3.23-2.29-4.82-3.5-.62-.2-1,.47-1.51.24l1.23-1.71c2.31-.3,4.74-.36,7-.73v-.1L165,65.5a.88.88,0,0,0-1,.33.16.16,0,0,1-.26.06l-.1-.1,1.51-2.21Z" class="cls-1"/>
   <path d="M108.2,67.34c.43.52.2,1.79,1.19,1.56l.16.22a16.17,16.17,0,0,1-2,1.64l-.13-.23c.49-.86,1-2.07.36-3a2.24,2.24,0,0,0-1.89-1.28A4.67,4.67,0,0,0,102,68a3,3,0,0,0-.71,1.8A3,3,0,0,0,103,72.31a5.71,5.71,0,0,0,1.79.39l0,.32a3.63,3.63,0,0,1-3.33-1.28,4.5,4.5,0,0,1-1.12-3.6A4.53,4.53,0,0,1,103.8,65a4.08,4.08,0,0,1,4.4,2.36" class="cls-1"/>
   <path d="M159.94,71.64c0,.23-.2.49-.26.77.55,2.58,1.35,5.06,2,7.59l-.37.3c-1.41-.92-2.82-1.84-4.22-2.78.25,1.62.75,3.24,1.1,4.87l-.35.27-6.2-4.33a1.32,1.32,0,0,0-1-.12l-.1-.19a20.52,20.52,0,0,1,2.58-1.75c.24.35-.54.54-.25,1a42.46,42.46,0,0,0,4.18,3c-.14-1.08-.49-2.2-.74-3.27-.82-.39-1.58-1.61-2.56-.91l-.13-.19c.87-.73,1.87-1.32,2.8-2,.07,0,.11.1.16.15-.14.28-.72.59-.43,1a42.5,42.5,0,0,0,4.27,3c-.29-1.6-.85-3.22-1.29-4.82-.21-.44-.67-.29-1-.12,0,.07-.11,0-.17,0s-.13-.11-.09-.22a20.89,20.89,0,0,1,2-1.31Z" class="cls-1"/>
   <path d="M110.35,76.9l1.09-2.82a20.41,20.41,0,0,0-2.76,1.4l1.52,1.42Zm3.1-4.14-2.68,7.59c-.24.43.51.61.14.93l-2.52-2.22c.26-.45.58.37,1,.09a3.42,3.42,0,0,0,.75-1.54L108,75.71c-.44.42-1.65.54-1.27,1.41a.66.66,0,0,1,.23.35l-.13.13L105,76c.12-.43.46.07.74,0l.63-.13c2.3-1.06,4.53-2.3,6.87-3.29Z" class="cls-1"/>
   <path d="M120.15,78.51a1.82,1.82,0,0,0-1.48-1,25.32,25.32,0,0,0-1.58,3,3.19,3.19,0,0,0,1.57.44,1.82,1.82,0,0,0,1.49-2.44m1.53.57a2.38,2.38,0,0,1-.55,2.29,2.14,2.14,0,0,1-1.62.6,8.24,8.24,0,0,1-2.69-1c-.42.86-1.14,1.64-1.1,2.63.17.26.66.3.59.63l-.08.09L113,82.69c0-.22.22-.28.35-.19a.65.65,0,0,0,.64.09,55.87,55.87,0,0,0,3.08-5.75c.12-.45-.36-.68-.65-.89l.15-.22c1.71,1.06,3.93,1.47,5.08,3.35" class="cls-1"/>
   <path d="M129.19,82.33c-.47,0-.25-.6-.46-.86-.81-.84-2-.87-3.1-1.12a10.92,10.92,0,0,0-.78,2.59,4.42,4.42,0,0,0,2.18.56c.6.18.74-.64,1.17-.68a19.68,19.68,0,0,1-.61,2.69c-.48.1-.17-.56-.36-.8-.53-.9-1.63-.78-2.47-1.09a9.9,9.9,0,0,0-.74,3.1,4.86,4.86,0,0,0,2.34.74,2.65,2.65,0,0,0,2.23-1.06l.22,0a14.67,14.67,0,0,1-1,1.89c-2.18-.5-4.31-1.1-6.5-1.6v-.28c.37-.06.86.18,1.08-.31l1.51-6.05c.11-.63-.88-.51-.74-1l6.37,1.6Z" class="cls-1"/>
   <path d="M148.54,80.78a2.52,2.52,0,0,0-1.41-1.07,2.18,2.18,0,0,0-2,.69,2.66,2.66,0,0,0-.37,2c.4,1.6.81,3.59,2.63,4.23a2.18,2.18,0,0,0,2-.84c.71-1.65,0-3.58-.84-5m1.82-.07a4.52,4.52,0,0,1,.67,3.92,3.86,3.86,0,0,1-2.94,2.55,3.68,3.68,0,0,1-3.4-.87,4.83,4.83,0,0,1-1.22-4.91,4.14,4.14,0,0,1,3.62-2.4,3.87,3.87,0,0,1,3.27,1.71" class="cls-1"/>
   <path d="M141.06,80.88c.1.64.18,1.29.28,1.92-.07.09-.2,0-.32.06-.18-.43-.28-1-.75-1.21a3.85,3.85,0,0,0-1.79-.07L138.8,88a.57.57,0,0,0,.49.48,1,1,0,0,1,.63.13v.13l-3.74.22c-.1-.06,0-.19-.06-.26.39-.1.93,0,1.08-.55l-.34-6.48a2.38,2.38,0,0,0-2,.36c-.42.31-.21,1.07-.75,1.13l0-2c2.29-.1,4.6-.21,6.89-.33" class="cls-1"/>
  </g>
 </g>
</svg>
