<?xml version="1.0" encoding="utf-8"?>
<!-- Generator: Adobe Illustrator 19.0.0, SVG Export Plug-In . SVG Version: 6.00 Build 0)  -->
<svg version="1.1" id="Layer_1" xmlns="http://www.w3.org/2000/svg" xmlns:xlink="http://www.w3.org/1999/xlink" x="0px" y="0px"
	 viewBox="0 0 450 80" style="enable-background:new 0 0 450 80;" xml:space="preserve">
<style type="text/css">
	.st0{clip-path:url(#SVGID_2_);fill:#ED1C24;}
	.st1{fill:#FFFFFF;}
	.st2{fill:#ED1C24;}
</style>
<g>
	<g>
		<defs>
			<rect id="SVGID_1_" width="450" height="80"/>
		</defs>
		<clipPath id="SVGID_2_">
			<use xlink:href="#SVGID_1_"  style="overflow:visible;"/>
		</clipPath>
		<polygon class="st0" points="0,0 0,80 451,80 451,0 0,0 		"/>
	</g>
	<path class="st1" d="M11,40.2c0-15.5,12.5-28,28-28c15.5,0,28,12.5,28,28c0,15.5-12.5,28-28,28C23.5,68.2,11,55.6,11,40.2"/>
	<polygon class="st2" points="34.1,22.9 34.1,24 33,24 33,22.9 31.5,22.9 31.5,24 30.3,24 30.3,22.9 29,22.9 29,26.3 35.4,26.3 
		35.4,22.9 34.1,22.9 	"/>
	<path class="st2" d="M30.4,21.5c0,0.4-0.3,0.7-0.7,0.7c-0.4,0-0.7-0.3-0.7-0.7c0-0.4,0.3-0.7,0.7-0.7
		C30.1,20.7,30.4,21.1,30.4,21.5"/>
	<path class="st2" d="M33,21.5c0,0.4-0.3,0.7-0.7,0.7c-0.4,0-0.7-0.3-0.7-0.7c0-0.4,0.3-0.7,0.7-0.7C32.6,20.7,33,21.1,33,21.5"/>
	<path class="st2" d="M35.5,21.5c0,0.4-0.3,0.7-0.7,0.7c-0.4,0-0.7-0.3-0.7-0.7c0-0.4,0.3-0.7,0.7-0.7
		C35.2,20.7,35.5,21.1,35.5,21.5"/>
	<path class="st2" d="M46.5,35.1v4.7h-11v-4.7v-4.2v-2.3h-11v6.4h4.6v22.3h6.4V47.2h11v10.2h6.4V35.1H46.5L46.5,35.1z M31.9,33.6
		c-0.8,0-1.5-0.7-1.5-1.5c0-0.8,0.7-1.5,1.5-1.5s1.5,0.7,1.5,1.5C33.4,33,32.7,33.6,31.9,33.6"/>
	<g id="XMLID_89_">
		<path id="XMLID_90_" class="st1" d="M83.7,12.8h9.6l6,18.8h-7.7l-0.7-3h-5.4l-0.8,3h-7.1L83.7,12.8z M89.8,24l-1.5-7.1h-0.1
			L86.7,24H89.8z"/>
		<path id="XMLID_93_" class="st1" d="M100.2,12.8h8.8c7.5,0,9.9,4,9.9,9.6c0,5.7-3.7,9.2-9.5,9.2h-9.3V12.8z M107.5,27.3h0.7
			c1.2,0,1.9-0.4,2.4-1.2c0.5-0.8,0.6-2.1,0.6-3.9c0-1.8-0.2-3.1-0.6-3.9c-0.5-0.8-1.2-1.2-2.4-1.2h-0.7V27.3z"/>
		<path id="XMLID_96_" class="st1" d="M129.9,12.3c6.5,0,9.7,4,9.7,9.9s-3.2,9.9-9.7,9.9c-6.5,0-9.7-4-9.7-9.9
			S123.4,12.3,129.9,12.3z M129.9,27.2c1.1,0,2-0.6,2-5c0-4.2-0.8-5-2-5c-1.2,0-2,0.8-2,5C127.9,26.6,128.8,27.2,129.9,27.2z"/>
		<path id="XMLID_99_" class="st1" d="M141.6,12.8h10.9c4.5,0,6.7,2.6,6.7,6.2c0,3.7-2.4,6.3-7.7,6.3H149v6.3h-7.4V12.8z M149.4,21
			c1.9,0,2.7-0.7,2.7-2s-0.6-1.9-2.2-1.9H149V21H149.4z"/>
		<path id="XMLID_102_" class="st1" d="M164.2,17.9h-4.6v-5h16.7v5h-4.6v13.7h-7.4V17.9z"/>
	</g>
	<g id="XMLID_86_">
		<path id="XMLID_87_" class="st1" d="M190.7,25.1l-6.3-12.3h7.7l2.6,7.9h0.1l2.6-7.9h7.1l-6.3,12.3v6.5h-7.4V25.1z"/>
	</g>
	<g id="XMLID_77_">
		<path id="XMLID_78_" class="st1" d="M213.4,12.3c6.5,0,9.7,4,9.7,9.9s-3.2,9.9-9.7,9.9c-6.5,0-9.7-4-9.7-9.9S207,12.3,213.4,12.3z
			 M213.4,27.2c1.1,0,2-0.6,2-5c0-4.2-0.8-5-2-5c-1.2,0-2,0.8-2,5C211.4,26.6,212.3,27.2,213.4,27.2z"/>
		<path id="XMLID_81_" class="st1" d="M242.8,25.3c0,4.5-3.2,6.8-8.9,6.8c-5.7,0-8.9-2.3-8.9-6.8V12.8h7.4V25c0,1.5,0.7,2.1,1.5,2.1
			c0.8,0,1.5-0.6,1.5-2.1V12.8h7.4V25.3z"/>
		<path id="XMLID_83_" class="st1" d="M245.3,12.8h11.1c4,0,6.4,1.2,6.4,4.8c0,2.2-0.9,3.8-3.7,4.5v0.1c1.8,0.2,2.8,1,3.2,2.4
			c0.4,1.6,0.4,4.3,1.2,7.1h-7.3c-0.4-1.4-0.7-3.8-0.9-5.4c-0.2-0.9-0.6-1.3-1.8-1.3h-0.9v6.7h-7.3V12.8z M253.2,20.7
			c1.4,0,2.5-0.5,2.5-1.9c0-1.4-1-1.7-2.4-1.7h-0.7v3.6H253.2z"/>
	</g>
	<g id="XMLID_55_">
		<path id="XMLID_56_" class="st1" d="M78.3,35.8h10.9c4.5,0,6.7,2.6,6.7,6.2c0,3.7-2.4,6.3-7.7,6.3h-2.4v6.3h-7.4V35.8z M86.1,44
			c1.9,0,2.7-0.7,2.7-2s-0.6-1.9-2.2-1.9h-0.8V44H86.1z"/>
		<path id="XMLID_59_" class="st1" d="M97.6,35.8h14.3v4.9h-7.2v2h6.6v4.9h-6.6v2.1h7.4v4.9H97.6V35.8z"/>
		<path id="XMLID_61_" class="st1" d="M113.9,35.8H125c4,0,6.4,1.2,6.4,4.8c0,2.2-0.9,3.8-3.7,4.5v0.1c1.8,0.2,2.8,1,3.2,2.4
			c0.4,1.6,0.4,4.3,1.2,7.1h-7.3c-0.4-1.4-0.7-3.8-0.9-5.4c-0.2-0.9-0.6-1.3-1.8-1.3h-0.9v6.7h-7.3V35.8z M121.8,43.7
			c1.4,0,2.5-0.5,2.5-1.9c0-1.4-1-1.7-2.4-1.7h-0.7v3.6H121.8z"/>
		<path id="XMLID_64_" class="st1" d="M133.7,35.8h14.3v4.9h-6.8v2h6.4v4.9h-6.4v7h-7.4V35.8z"/>
		<path id="XMLID_66_" class="st1" d="M149.5,35.8h14.3v4.9h-7.2v2h6.6v4.9h-6.6v2.1h7.4v4.9h-14.5V35.8z"/>
		<path id="XMLID_68_" class="st1" d="M183.6,47.7c0,5.2-4.1,7.4-8.8,7.4c-6.6,0-9.6-4-9.6-10c-0.2-5.8,3.3-9.8,9.6-9.8
			c4.7,0,8.7,1.9,8.8,7.4h-6.8c-0.1-2.1-0.9-2.5-1.8-2.5c-1.9,0-2.1,2-2.1,5c0,2.9,0.2,5,2,5c1,0,1.6-0.6,1.7-2.5H183.6z"/>
		<path id="XMLID_70_" class="st1" d="M189,40.9h-4.6v-5H201v5h-4.6v13.7H189V40.9z"/>
		<path id="XMLID_72_" class="st1" d="M230.1,41.2L230.1,41.2l-2.7,13.4h-6.8l-2.7-13.4h-0.1v13.4h-6.3V35.8h10.3L224,47h0.1
			l2.1-11.2h10.3v18.8h-6.3V41.2z"/>
		<path id="XMLID_74_" class="st1" d="M243.2,35.8h9.6l6,18.8h-7.7l-0.7-3h-5.4l-0.8,3h-7.1L243.2,35.8z M249.4,47l-1.5-7.1h-0.1
			l-1.6,7.1H249.4z"/>
	</g>
	<g id="XMLID_35_">
		<path id="XMLID_36_" class="st1" d="M261.7,40.9h-4.6v-5h16.7v5h-4.6v13.7h-7.4V40.9z"/>
		<path id="XMLID_38_" class="st1" d="M292.9,47.7c0,5.2-4.1,7.4-8.8,7.4c-6.6,0-9.6-4-9.6-10c-0.2-5.8,3.3-9.8,9.6-9.8
			c4.7,0,8.7,1.9,8.8,7.4h-6.8c-0.1-2.1-0.9-2.5-1.8-2.5c-1.9,0-2.1,2-2.1,5c0,2.9,0.2,5,2,5c1,0,1.6-0.6,1.7-2.5H292.9z"/>
		<path id="XMLID_40_" class="st1" d="M305.5,47.7h-3.2v6.9h-7.4V35.8h7.4v6.3h3.2v-6.3h7.4v18.8h-7.4V47.7z"/>
		<path id="XMLID_42_" class="st1" d="M333.8,35.3c6.5,0,9.7,4,9.7,9.9c0,5.9-3.2,9.9-9.7,9.9c-6.5,0-9.7-4-9.7-9.9
			C324.1,39.4,327.3,35.3,333.8,35.3z M333.8,50.2c1.1,0,2-0.6,2-5c0-4.2-0.8-5-2-5c-1.2,0-2,0.8-2,5
			C331.7,49.6,332.6,50.2,333.8,50.2z"/>
		<path id="XMLID_45_" class="st1" d="M345.4,35.8h8.9l4,11.4h0.1V35.8h6v18.8h-8.9l-4-11.4h-0.1v11.4h-6V35.8z"/>
		<path id="XMLID_47_" class="st1" d="M367.1,35.8h7.4v13.7h6.8v5h-14.3V35.8z"/>
		<path id="XMLID_49_" class="st1" d="M382.9,35.8h7.4v18.8h-7.4V35.8z"/>
		<path id="XMLID_51_" class="st1" d="M393,35.8h8.9l4,11.4h0.1V35.8h6v18.8h-8.9l-4-11.4H399v11.4h-6V35.8z"/>
		<path id="XMLID_53_" class="st1" d="M414.6,35.8h14.3v4.9h-7.2v2h6.6v4.9h-6.6v2.1h7.4v4.9h-14.5V35.8z"/>
	</g>
	<g id="XMLID_15_">
		<path id="XMLID_16_" class="st1" d="M81.7,62.1c2.2,0,3.4,1.2,3.4,2.9c0,1.8-1.1,2.9-3.4,2.9s-3.4-1.2-3.4-2.9
			C78.3,63.3,79.4,62.1,81.7,62.1z M81.7,66.5c0.4,0,0.6-0.3,0.6-1.4c0-1.1-0.2-1.4-0.6-1.4S81,63.9,81,65
			C81,66.1,81.2,66.5,81.7,66.5z"/>
		<path id="XMLID_19_" class="st1" d="M92.4,64c0-0.3,0-0.4-0.1-0.5s-0.2-0.1-0.4-0.1c-0.4,0-0.6,0.2-0.6,0.4s0.1,0.4,0.8,0.5
			c2.1,0.3,2.7,0.7,2.7,1.8c0,1.2-0.8,2-3,2c-1.8,0-2.9-0.5-2.9-2h2.4c0,0.3,0.1,0.5,0.2,0.6c0.1,0.1,0.3,0.2,0.4,0.2
			c0.4,0,0.5-0.2,0.5-0.5c0-0.2-0.1-0.3-0.4-0.4c-0.2,0-0.4-0.1-1.2-0.2C89.5,65.4,89,65,89,64c0-1,0.8-1.8,2.8-1.8
			c1.7,0,2.9,0.4,2.9,1.9H92.4z"/>
		<path id="XMLID_21_" class="st1" d="M102.6,64.5c0-0.7-0.1-1.1-0.6-1.1c-0.4,0-0.7,0.2-0.7,1.6c0,1.3,0.2,1.5,0.6,1.5
			c0.4,0,0.5-0.3,0.6-1h2.5c0,1.5-1,2.4-3.2,2.4c-1.7,0-3.2-0.7-3.2-3c0-1.9,1.3-2.9,3.2-2.9c2.1,0,3,0.9,3.1,2.4H102.6z"/>
		<path id="XMLID_23_" class="st1" d="M112.3,63.8c0-0.3-0.1-0.4-0.5-0.4c-0.3,0-0.5,0.1-0.5,0.6h-2.2c0.1-1.5,1.5-1.8,2.8-1.8
			c2.1,0,2.8,0.7,2.8,2v3.7h-2.3l-0.1-0.5c-0.4,0.5-1,0.7-1.6,0.7c-1.1,0-1.9-0.6-1.9-1.7c0-1.4,1.1-1.9,3.2-1.9h0.3V63.8z
			 M112.3,65.4H112c-0.7,0-0.9,0.3-0.9,0.6c0,0.4,0.2,0.6,0.6,0.6c0.5,0,0.6-0.3,0.6-0.7V65.4z"/>
		<path id="XMLID_26_" class="st1" d="M118.9,62.3h2.6l0.1,0.6c0.4-0.5,0.7-0.7,1.1-0.7c0.2,0,0.5,0,0.7,0.2v2
			c-0.3-0.1-0.6-0.2-1.1-0.2c-0.5,0-0.7,0.3-0.7,0.7v2.9h-2.7V62.3z"/>
		<path id="XMLID_28_" class="st1" d="M130.5,64c0-0.3,0-0.4-0.1-0.5s-0.2-0.1-0.4-0.1c-0.4,0-0.6,0.2-0.6,0.4s0.1,0.4,0.8,0.5
			c2.1,0.3,2.7,0.7,2.7,1.8c0,1.2-0.8,2-3,2c-1.8,0-2.9-0.5-2.9-2h2.4c0,0.3,0.1,0.5,0.2,0.6c0.1,0.1,0.3,0.2,0.4,0.2
			c0.4,0,0.5-0.2,0.5-0.5c0-0.2-0.1-0.3-0.4-0.4c-0.2,0-0.4-0.1-1.2-0.2c-1.4-0.3-1.9-0.6-1.9-1.7c0-1,0.8-1.8,2.8-1.8
			c1.7,0,2.9,0.4,2.9,1.9H130.5z"/>
		<path id="XMLID_30_" class="st1" d="M140.1,63.8c0-0.3-0.1-0.4-0.5-0.4c-0.3,0-0.5,0.1-0.5,0.6h-2.2c0.1-1.5,1.5-1.8,2.8-1.8
			c2.1,0,2.8,0.7,2.8,2v3.7h-2.3l-0.1-0.5c-0.4,0.5-1,0.7-1.6,0.7c-1.1,0-1.9-0.6-1.9-1.7c0-1.4,1.1-1.9,3.2-1.9h0.3V63.8z
			 M140.1,65.4h-0.4c-0.7,0-0.9,0.3-0.9,0.6c0,0.4,0.2,0.6,0.6,0.6c0.5,0,0.6-0.3,0.6-0.7V65.4z"/>
		<path id="XMLID_33_" class="st1" d="M146.7,62.3h2.6l0.1,0.6c0.4-0.5,0.7-0.7,1.1-0.7c0.2,0,0.5,0,0.7,0.2v2
			c-0.3-0.1-0.6-0.2-1.1-0.2c-0.5,0-0.7,0.3-0.7,0.7v2.9h-2.7V62.3z"/>
	</g>
	<g id="XMLID_12_">
		<path id="XMLID_13_" class="st1" d="M158.5,64.5c0-0.7-0.1-1.1-0.6-1.1c-0.4,0-0.7,0.2-0.7,1.6c0,1.3,0.2,1.5,0.6,1.5
			c0.4,0,0.5-0.3,0.6-1h2.5c0,1.5-1,2.4-3.2,2.4c-1.7,0-3.2-0.7-3.2-3c0-1.9,1.3-2.9,3.2-2.9c2.1,0,3,0.9,3.1,2.4H158.5z"/>
	</g>
	<g id="XMLID_1_">
		<path id="XMLID_2_" class="st1" d="M164.7,65.5h2.7v2.3h-2.7V65.5z"/>
		<path id="XMLID_4_" class="st1" d="M174.9,62.1c2.2,0,3.4,1.2,3.4,2.9c0,1.8-1.1,2.9-3.4,2.9s-3.4-1.2-3.4-2.9
			C171.6,63.3,172.7,62.1,174.9,62.1z M174.9,66.5c0.4,0,0.6-0.3,0.6-1.4c0-1.1-0.2-1.4-0.6-1.4s-0.6,0.3-0.6,1.4
			C174.3,66.1,174.5,66.5,174.9,66.5z"/>
		<path id="XMLID_7_" class="st1" d="M182.3,62.3h2.6l0.1,0.6c0.4-0.5,0.7-0.7,1.1-0.7c0.2,0,0.5,0,0.7,0.2v2
			c-0.3-0.1-0.6-0.2-1.1-0.2c-0.5,0-0.7,0.3-0.7,0.7v2.9h-2.7V62.3z"/>
		<path id="XMLID_9_" class="st1" d="M194.5,67L194.5,67c-0.4,0.6-1.1,0.7-1.7,0.7c-1.1,0-2.4-0.6-2.4-2.6c0-2.1,1.1-2.9,2.4-2.9
			c0.6,0,1.2,0.2,1.6,0.8h0l0-0.6h2.5v5c0,2.2-1.4,2.7-3.3,2.7c-2.2,0-2.9-0.7-3-1.9h2.6c0,0.1,0,0.2,0.1,0.3
			c0.1,0.1,0.2,0.1,0.4,0.1c0.5,0,0.7-0.2,0.7-0.9V67z M194.4,65c0-0.6,0-1.3-0.6-1.3c-0.6,0-0.6,0.8-0.6,1.4c0,0.7,0,1.1,0.6,1.1
			C194.4,66.2,194.4,65.6,194.4,65z"/>
	</g>
</g>
</svg>
