<?xml version="1.0" encoding="utf-8"?>
<!-- Generator: Adobe Illustrator 19.0.0, SVG Export Plug-In . SVG Version: 6.00 Build 0)  -->
<svg version="1.1" id="Layer_1" xmlns="http://www.w3.org/2000/svg" xmlns:xlink="http://www.w3.org/1999/xlink" x="0px" y="0px"
	 viewBox="0 0 200 800" style="enable-background:new 0 0 200 800;" xml:space="preserve">
<style type="text/css">
	.st0{clip-path:url(#SVGID_2_);fill:#ED1C24;}
	.st1{fill:#FFFFFF;}
	.st2{fill:#ED1C24;}
</style>
<g>
	<g>
		<defs>
			<rect id="SVGID_1_" y="0.6" width="200" height="799.8"/>
		</defs>
		<clipPath id="SVGID_2_">
			<use xlink:href="#SVGID_1_"  style="overflow:visible;"/>
		</clipPath>
		<polygon class="st0" points="0,0.4 0,800.4 200,800.4 200,0.4 0,0.4 		"/>
	</g>
	<g>
		<path class="st1" d="M23.6,667.7c3.1,0,4.6,1.6,4.6,4s-1.5,4-4.6,4c-3.1,0-4.6-1.6-4.6-4S20.5,667.7,23.6,667.7z M23.6,673.6
			c0.6,0,0.9-0.5,0.9-2s-0.3-2-0.9-2s-0.9,0.5-0.9,2S23,673.6,23.6,673.6z"/>
		<path class="st1" d="M38.2,670.2c0-0.4-0.1-0.6-0.2-0.7c-0.1-0.1-0.3-0.2-0.5-0.2c-0.6,0-0.8,0.2-0.8,0.6s0.1,0.5,1.1,0.6
			c2.9,0.4,3.7,1,3.7,2.4c0,1.6-1.1,2.7-4.1,2.7c-2.4,0-3.9-0.7-4-2.7h3.3c0,0.4,0.1,0.7,0.2,0.8c0.1,0.2,0.3,0.2,0.6,0.2
			c0.6,0,0.7-0.3,0.7-0.6c0-0.2-0.1-0.5-0.6-0.6c-0.2,0-0.5-0.1-1.6-0.3c-1.8-0.4-2.6-0.9-2.6-2.3s1.1-2.5,3.8-2.5
			c2.3,0,3.9,0.6,4,2.5H38.2z"/>
		<path class="st1" d="M52.2,671c0-0.9-0.1-1.5-0.8-1.5c-0.6,0-0.9,0.3-0.9,2.2c0,1.8,0.3,2,0.9,2c0.6,0,0.8-0.4,0.8-1.4h3.4
			c0,2.1-1.4,3.3-4.3,3.3c-2.4,0-4.3-1-4.3-4c0-2.6,1.8-3.9,4.4-3.9c2.9,0,4.1,1.3,4.2,3.3H52.2z"/>
		<path class="st1" d="M65.4,670c0-0.4-0.2-0.6-0.7-0.6c-0.5,0-0.7,0.2-0.7,0.8h-3c0.1-2,2-2.5,3.9-2.5c2.9,0,3.8,0.9,3.8,2.7v5.1
			h-3.2l-0.1-0.7c-0.5,0.7-1.3,0.9-2.1,0.9c-1.5,0-2.6-0.8-2.6-2.3c0-1.9,1.5-2.6,4.3-2.6h0.4V670z M65.4,672.2h-0.5
			c-1,0-1.2,0.5-1.2,0.9c0,0.5,0.3,0.8,0.8,0.8c0.6,0,0.8-0.4,0.8-1V672.2z"/>
		<path class="st1" d="M74.3,667.9h3.5l0.1,0.8c0.5-0.7,1-0.9,1.5-0.9c0.3,0,0.6,0,1,0.2v2.7c-0.4-0.1-0.9-0.2-1.5-0.2
			c-0.7,0-0.9,0.5-0.9,0.9v3.9h-3.6V667.9z"/>
		<path class="st1" d="M90.1,670.2c0-0.4-0.1-0.6-0.2-0.7c-0.1-0.1-0.3-0.2-0.5-0.2c-0.6,0-0.8,0.2-0.8,0.6s0.1,0.5,1.1,0.6
			c2.9,0.4,3.7,1,3.7,2.4c0,1.6-1.1,2.7-4.1,2.7c-2.4,0-3.9-0.7-4-2.7h3.3c0,0.4,0.1,0.7,0.2,0.8c0.1,0.2,0.3,0.2,0.6,0.2
			c0.6,0,0.7-0.3,0.7-0.6c0-0.2-0.1-0.5-0.6-0.6c-0.2,0-0.5-0.1-1.6-0.3c-1.8-0.4-2.6-0.9-2.6-2.3s1.1-2.5,3.8-2.5
			c2.3,0,3.9,0.6,4,2.5H90.1z"/>
		<path class="st1" d="M103.3,670c0-0.4-0.2-0.6-0.7-0.6c-0.5,0-0.7,0.2-0.7,0.8h-3c0.1-2,2-2.5,3.9-2.5c2.9,0,3.8,0.9,3.8,2.7v5.1
			h-3.2l-0.1-0.7c-0.5,0.7-1.3,0.9-2.1,0.9c-1.5,0-2.6-0.8-2.6-2.3c0-1.9,1.5-2.6,4.3-2.6h0.4V670z M103.3,672.2h-0.5
			c-1,0-1.2,0.5-1.2,0.9c0,0.5,0.3,0.8,0.8,0.8c0.6,0,0.8-0.4,0.8-1V672.2z"/>
		<path class="st1" d="M112.2,667.9h3.5l0.1,0.8c0.5-0.7,1-0.9,1.5-0.9c0.3,0,0.6,0,1,0.2v2.7c-0.4-0.1-0.9-0.2-1.5-0.2
			c-0.7,0-0.9,0.5-0.9,0.9v3.9h-3.6V667.9z"/>
	</g>
	<g>
		<path class="st1" d="M128.3,671c0-0.9-0.2-1.5-0.8-1.5c-0.6,0-0.9,0.3-0.9,2.2c0,1.8,0.3,2,0.9,2c0.6,0,0.8-0.4,0.8-1.4h3.4
			c0,2.1-1.3,3.3-4.3,3.3c-2.4,0-4.3-1-4.3-4c0-2.6,1.8-3.9,4.4-3.9c2.9,0,4.1,1.3,4.2,3.3H128.3z"/>
	</g>
	<g>
		<path class="st1" d="M136.8,672.3h3.6v3.1h-3.6V672.3z"/>
		<path class="st1" d="M150.8,667.7c3.1,0,4.6,1.6,4.6,4s-1.5,4-4.6,4c-3.1,0-4.6-1.6-4.6-4S147.7,667.7,150.8,667.7z M150.8,673.6
			c0.6,0,0.9-0.5,0.9-2s-0.3-2-0.9-2s-0.9,0.5-0.9,2S150.2,673.6,150.8,673.6z"/>
		<path class="st1" d="M160.8,667.9h3.5l0.1,0.8c0.5-0.7,1-0.9,1.5-0.9c0.3,0,0.6,0,1,0.2v2.7c-0.4-0.1-0.9-0.2-1.5-0.2
			c-0.7,0-0.9,0.5-0.9,0.9v3.9h-3.6V667.9z"/>
		<path class="st1" d="M177.4,674.3L177.4,674.3c-0.6,0.8-1.5,1-2.4,1c-1.5,0-3.2-0.9-3.2-3.6c0-2.8,1.4-4,3.3-4
			c0.9,0,1.7,0.3,2.1,1h0l0.1-0.8h3.4v6.9c0,3.1-1.9,3.7-4.5,3.7c-2.9,0-3.9-1-4.1-2.5h3.6c0,0.2,0.1,0.3,0.2,0.4
			c0.1,0.1,0.3,0.2,0.6,0.2c0.6,0,0.9-0.3,0.9-1.3V674.3z M177.3,671.6c0-0.9,0-1.8-0.9-1.8c-0.9,0-0.9,1.1-0.9,1.9
			c0,0.9,0,1.5,0.8,1.5C177.3,673.3,177.3,672.5,177.3,671.6z"/>
	</g>
	<path class="st1" d="M34.5,486.3c0-36.2,29.3-65.5,65.5-65.5c36.2,0,65.5,29.3,65.5,65.5c0,36.2-29.3,65.5-65.5,65.5
		C63.8,551.8,34.5,522.4,34.5,486.3"/>
	<polygon class="st2" points="89.4,445.8 89.4,448.4 86.8,448.4 86.8,445.8 83.2,445.8 83.2,448.4 80.5,448.4 80.5,445.8 
		77.5,445.8 77.5,453.8 92.5,453.8 92.5,445.8 89.4,445.8 	"/>
	<path class="st2" d="M80.7,442.5c0,0.9-0.8,1.7-1.7,1.7s-1.7-0.8-1.7-1.7c0-0.9,0.8-1.7,1.7-1.7S80.7,441.6,80.7,442.5"/>
	<path class="st2" d="M86.7,442.5c0,0.9-0.8,1.7-1.7,1.7c-0.9,0-1.7-0.8-1.7-1.7c0-0.9,0.8-1.7,1.7-1.7
		C85.9,440.8,86.7,441.6,86.7,442.5"/>
	<path class="st2" d="M92.7,442.5c0,0.9-0.8,1.7-1.7,1.7c-0.9,0-1.7-0.8-1.7-1.7c0-0.9,0.8-1.7,1.7-1.7
		C91.9,440.8,92.7,441.6,92.7,442.5"/>
	<path class="st2" d="M118.2,474.4v11H92.5v-11v-9.8v-5.3H66.7v15h10.8v52.2h14.9v-23.9h25.8v23.9h14.9v-52.2H118.2L118.2,474.4z
		 M84.2,471c-2,0-3.5-1.6-3.5-3.5c0-2,1.6-3.5,3.5-3.5s3.5,1.6,3.5,3.5C87.7,469.4,86.1,471,84.2,471"/>
	<g>
		<path class="st1" d="M28.8,123.4h15.5l9.7,30.2H41.6l-1.2-4.8h-8.6l-1.2,4.8H19.1L28.8,123.4z M38.7,141.3L36.3,130h-0.1
			l-2.6,11.4H38.7z"/>
		<path class="st1" d="M55.3,123.4h14.2c12.1,0,15.9,6.5,15.9,15.4c0,9.1-5.9,14.7-15.2,14.7H55.3V123.4z M67,146.7h1.2
			c1.9,0,3-0.7,3.8-1.9c0.8-1.3,1-3.4,1-6.3s-0.3-5.1-1-6.3c-0.8-1.2-1.9-1.9-3.8-1.9H67V146.7z"/>
		<path class="st1" d="M103.1,122.6c10.4,0,15.6,6.5,15.6,15.9s-5.2,15.9-15.6,15.9c-10.4,0-15.6-6.5-15.6-15.9
			S92.7,122.6,103.1,122.6z M103.1,146.5c1.8,0,3.2-1,3.2-8c0-6.8-1.3-8-3.2-8s-3.2,1.2-3.2,8C99.8,145.4,101.2,146.5,103.1,146.5z"
			/>
		<path class="st1" d="M121.8,123.4h17.5c7.3,0,10.7,4.2,10.7,9.9c0,6-3.9,10.1-12.4,10.1h-3.9v10.2h-11.9V123.4z M134.4,136.5
			c3.1,0,4.3-1.1,4.3-3.3s-1-3-3.6-3h-1.3v6.3H134.4z"/>
		<path class="st1" d="M158.2,131.5h-7.4v-8.1h26.8v8.1h-7.4v22.1h-11.9V131.5z"/>
	</g>
	<g>
		<path class="st1" d="M31.7,185.6l-12.6-24.4h15.3l5.2,15.7h0.1l5.2-15.7H59l-12.6,24.4v12.9H31.7V185.6z"/>
	</g>
	<g>
		<path class="st1" d="M77.9,160.2c12.9,0,19.3,8,19.3,19.7s-6.4,19.7-19.3,19.7c-12.9,0-19.3-8-19.3-19.7S65,160.2,77.9,160.2z
			 M77.9,189.8c2.3,0,4-1.3,4-9.9c0-8.4-1.6-9.9-4-9.9c-2.4,0-4,1.5-4,9.9C73.9,188.5,75.6,189.8,77.9,189.8z"/>
		<path class="st1" d="M137.4,186c0,9-6.5,13.5-17.7,13.5s-17.7-4.5-17.7-13.5v-24.8h14.8v24.2c0,2.9,1.4,4.1,2.9,4.1
			c1.6,0,2.9-1.1,2.9-4.1v-24.2h14.8V186z"/>
		<path class="st1" d="M143.4,161.2h22.1c8,0,12.7,2.4,12.7,9.5c0,4.3-1.8,7.5-7.4,8.9v0.1c3.6,0.3,5.6,1.9,6.3,4.8
			c0.8,3.2,0.7,8.5,2.4,14.1h-14.5c-0.9-2.8-1.3-7.5-1.9-10.7c-0.3-1.9-1.2-2.6-3.6-2.6h-1.7v13.3h-14.5V161.2z M159.2,176.8
			c2.8,0,4.9-1,4.9-3.8c0-2.7-1.9-3.3-4.8-3.3h-1.3v7.1H159.2z"/>
	</g>
	<g>
		<path class="st1" d="M21.6,208.6h14c5.8,0,8.5,3.4,8.5,7.9c0,4.8-3.1,8.1-9.8,8.1h-3.1v8.1h-9.5V208.6z M31.6,219.1
			c2.5,0,3.4-0.9,3.4-2.6c0-1.7-0.8-2.4-2.9-2.4h-1v5H31.6z"/>
		<path class="st1" d="M46.2,208.6h18.3v6.3h-9.1v2.6h8.4v6.3h-8.4v2.7h9.4v6.3H46.2V208.6z"/>
		<path class="st1" d="M67.2,208.6h14.2c5.2,0,8.2,1.6,8.2,6.1c0,2.8-1.2,4.9-4.8,5.7v0.1c2.3,0.2,3.6,1.2,4.1,3.1
			c0.5,2.1,0.5,5.5,1.6,9.1h-9.3c-0.6-1.8-0.9-4.8-1.2-6.9c-0.2-1.2-0.8-1.7-2.3-1.7h-1.1v8.5h-9.3V208.6z M77.3,218.6
			c1.8,0,3.2-0.6,3.2-2.4c0-1.8-1.2-2.1-3.1-2.1h-0.9v4.6H77.3z"/>
		<path class="st1" d="M92.4,208.6h18.3v6.3h-8.7v2.6h8.1v6.3h-8.1v8.9h-9.5V208.6z"/>
		<path class="st1" d="M112.7,208.6H131v6.3h-9.1v2.6h8.4v6.3h-8.4v2.7h9.4v6.3h-18.6V208.6z"/>
		<path class="st1" d="M156.4,223.8c0,6.6-5.3,9.5-11.2,9.5c-8.4,0-12.3-5.1-12.3-12.7c-0.2-7.5,4.2-12.5,12.3-12.5
			c6.1,0,11.2,2.5,11.2,9.5h-8.7c-0.1-2.7-1.1-3.3-2.3-3.3c-2.5,0-2.7,2.5-2.7,6.4c0,3.7,0.2,6.4,2.6,6.4c1.2,0,2.1-0.7,2.2-3.3
			H156.4z"/>
		<path class="st1" d="M163.2,215.1h-5.9v-6.5h21.4v6.5h-5.9v17.6h-9.5V215.1z"/>
	</g>
	<g>
		<path class="st1" d="M50.2,250.4L50.2,250.4L46,271.2H35.4l-4.1-20.8h-0.1v20.8h-9.8v-29.1h16l3.2,17.3h0.1l3.2-17.3h16v29.1h-9.8
			V250.4z"/>
		<path class="st1" d="M70.5,242.1h15l9.4,29.1H82.9l-1.1-4.7h-8.3l-1.2,4.7h-11L70.5,242.1z M80.1,259.4l-2.3-11h-0.1l-2.5,11H80.1
			z"/>
	</g>
	<g>
		<path class="st1" d="M99.1,249.9H92v-7.8h25.9v7.8h-7.2v21.3H99.1V249.9z"/>
		<path class="st1" d="M147.5,260.5c0,8-6.4,11.5-13.6,11.5c-10.2,0-14.9-6.2-14.9-15.4c-0.3-9.1,5.1-15.2,15-15.2
			c7.3,0,13.5,3,13.6,11.5H137c-0.2-3.3-1.4-4-2.8-4c-3,0-3.3,3.1-3.3,7.7c0,4.4,0.2,7.7,3.1,7.7c1.5,0,2.5-0.9,2.7-4H147.5z"/>
		<path class="st1" d="M167,260.5h-4.9v10.7h-11.5v-29.1h11.5v9.8h4.9v-9.8h11.5v29.1H167V260.5z"/>
	</g>
	<g>
		<path class="st1" d="M35.4,280.3c9.7,0,14.5,6,14.5,14.8s-4.8,14.8-14.5,14.8s-14.5-6-14.5-14.8S25.7,280.3,35.4,280.3z
			 M35.4,302.6c1.7,0,3-1,3-7.5c0-6.4-1.2-7.5-3-7.5s-3,1.1-3,7.5C32.4,301.6,33.7,302.6,35.4,302.6z"/>
		<path class="st1" d="M53,281h13.4l6,17h0.1v-17h9v28.2H68l-6-17.2H62v17.2h-9V281z"/>
		<path class="st1" d="M85.4,281h11.2v20.6h10.3v7.6H85.4V281z"/>
		<path class="st1" d="M109.2,281h11.2v28.2h-11.2V281z"/>
		<path class="st1" d="M124.3,281h13.4l6,17h0.1v-17h9v28.2h-13.4l-6-17.2h-0.1v17.2h-9V281z"/>
		<path class="st1" d="M156.8,281h21.4v7.3h-10.7v3h9.9v7.3h-9.9v3.2h11.1v7.3h-21.8V281z"/>
	</g>
</g>
</svg>
